Inter-Bold.ufo
<glyph name="exclam" format="2">
  <advance width="914"/>
  <unicode hex="0021"/>
  <outline>
    <contour>
      <point x="679" y="2048" type="line"/>
      <point x="234" y="2048" type="line"/>
      <point x="274" y="614" type="line"/>
      <point x="640" y="614" type="line"/>
    </contour>
    <component base="period" xOffset="38"/>
  </outline>
</glyph>
<glyph name="numbersign" format="2">
  <advance width="1829"/>
  <unicode hex="0023"/>
  <note>
1. outline
2. slant 9.4 deg
3. remove extra shapes created by outlining
</note>
  <outline>
    <contour>
      <point x="946" y="0" type="line"/>
      <point x="1266" y="0" type="line"/>
      <point x="1602" y="2048" type="line"/>
      <point x="1282" y="2048" type="line"/>
    </contour>
    <contour>
      <point x="29" y="508" type="line"/>
      <point x="1629" y="508" type="line"/>
      <point x="1682" y="828" type="line"/>
      <point x="82" y="828" type="line"/>
    </contour>
    <contour>
      <point x="226" y="0" type="line"/>
      <point x="546" y="0" type="line"/>
      <point x="882" y="2048" type="line"/>
      <point x="562" y="2048" type="line"/>
    </contour>
    <contour>
      <point x="146" y="1220" type="line"/>
      <point x="1746" y="1220" type="line"/>
      <point x="1800" y="1540" type="line"/>
      <point x="200" y="1540" type="line"/>
    </contour>
  </outline>
</glyph>
<glyph name="dollar" format="2">
  <advance width="1844"/>
  <unicode hex="0024"/>
  <outline>
    <contour>
      <point x="809" y="-256" type="line"/>
      <point x="1045" y="-256" type="line"/>
      <point x="1069" y="2304" type="line"/>
      <point x="833" y="2304" type="line"/>
    </contour>
    <component base="S"/>
  </outline>
</glyph>
<glyph name="percent" format="2">
  <advance width="2420"/>
  <unicode hex="0025"/>
  <outline>
    <contour>
      <point x="1287" y="384" type="line" smooth="yes"/>
      <point x="1288" y="138"/>
      <point x="1445" y="-71"/>
      <point x="1738" y="-71" type="curve" smooth="yes"/>
      <point x="2028" y="-71"/>
      <point x="2190" y="138"/>
      <point x="2189" y="384" type="curve" smooth="yes"/>
      <point x="2189" y="492" type="line" smooth="yes"/>
      <point x="2190" y="740"/>
      <point x="2032" y="947"/>
      <point x="1738" y="947" type="curve" smooth="yes"/>
      <point x="1449" y="947"/>
      <point x="1288" y="738"/>
      <point x="1287" y="492" type="curve" smooth="yes"/>
    </contour>
    <contour>
      <point x="1578" y="492" type="line" smooth="yes"/>
      <point x="1579" y="590"/>
      <point x="1618" y="691"/>
      <point x="1738" y="691" type="curve" smooth="yes"/>
      <point x="1864" y="691"/>
      <point x="1897" y="590"/>
      <point x="1896" y="492" type="curve" smooth="yes"/>
      <point x="1896" y="384" type="line" smooth="yes"/>
      <point x="1897" y="286"/>
      <point x="1860" y="187"/>
      <point x="1738" y="187" type="curve" smooth="yes"/>
      <point x="1616" y="187"/>
      <point x="1579" y="289"/>
      <point x="1578" y="384" type="curve" smooth="yes"/>
    </contour>
    <contour>
      <point x="236" y="1556" type="line" smooth="yes"/>
      <point x="237" y="1310"/>
      <point x="394" y="1103"/>
      <point x="686" y="1103" type="curve" smooth="yes"/>
      <point x="977" y="1103"/>
      <point x="1139" y="1308"/>
      <point x="1138" y="1556" type="curve" smooth="yes"/>
      <point x="1138" y="1664" type="line" smooth="yes"/>
      <point x="1139" y="1912"/>
      <point x="981" y="2119"/>
      <point x="686" y="2119" type="curve" smooth="yes"/>
      <point x="400" y="2119"/>
      <point x="237" y="1912"/>
      <point x="236" y="1664" type="curve" smooth="yes"/>
    </contour>
    <contour>
      <point x="529" y="1664" type="line" smooth="yes"/>
      <point x="530" y="1759"/>
      <point x="567" y="1863"/>
      <point x="686" y="1863" type="curve" smooth="yes"/>
      <point x="812" y="1863"/>
      <point x="846" y="1762"/>
      <point x="845" y="1664" type="curve" smooth="yes"/>
      <point x="845" y="1556" type="line" smooth="yes"/>
      <point x="846" y="1458"/>
      <point x="808" y="1359"/>
      <point x="686" y="1359" type="curve" smooth="yes"/>
      <point x="568" y="1359"/>
      <point x="530" y="1458"/>
      <point x="529" y="1556" type="curve" smooth="yes"/>
    </contour>
    <component base="fraction" xOffset="785"/>
  </outline>
</glyph>
<glyph name="ampersand" format="2">
  <advance width="1898"/>
  <unicode hex="0026"/>
  <outline>
    <contour>
      <point x="798" y="-30" type="curve" smooth="yes"/>
      <point x="980" y="-30"/>
      <point x="1178" y="22"/>
      <point x="1330" y="144" type="curve" smooth="yes"/>
      <point x="1370" y="169"/>
      <point x="1406" y="191"/>
      <point x="1446" y="216" type="curve" smooth="yes"/>
      <point x="1635" y="357"/>
      <point x="1768" y="622"/>
      <point x="1768" y="999" type="curve"/>
      <point x="1415" y="999" type="line"/>
      <point x="1415" y="590"/>
      <point x="1106" y="312"/>
      <point x="819" y="312" type="curve" smooth="yes"/>
      <point x="641" y="312"/>
      <point x="526" y="422"/>
      <point x="526" y="568" type="curve" smooth="yes"/>
      <point x="526" y="646"/>
      <point x="579" y="736"/>
      <point x="692" y="818" type="curve" smooth="yes"/>
      <point x="1110" y="1119" type="line" smooth="yes"/>
      <point x="1282" y="1243"/>
      <point x="1382" y="1399"/>
      <point x="1382" y="1592" type="curve" smooth="yes"/>
      <point x="1382" y="1854"/>
      <point x="1179" y="2075"/>
      <point x="850" y="2075" type="curve" smooth="yes"/>
      <point x="514" y="2075"/>
      <point x="291" y="1846"/>
      <point x="291" y="1549" type="curve" smooth="yes"/>
      <point x="291" y="1285"/>
      <point x="476" y="1084"/>
      <point x="636" y="902" type="curve" smooth="yes"/>
      <point x="1446" y="0" type="line"/>
      <point x="1890" y="0" type="line"/>
      <point x="919" y="1114" type="line" smooth="yes"/>
      <point x="778" y="1284"/>
      <point x="656" y="1413"/>
      <point x="656" y="1542" type="curve" smooth="yes"/>
      <point x="656" y="1645"/>
      <point x="734" y="1731"/>
      <point x="853" y="1732" type="curve" smooth="yes"/>
      <point x="973" y="1733"/>
      <point x="1041" y="1649"/>
      <point x="1041" y="1568" type="curve" smooth="yes"/>
      <point x="1041" y="1482"/>
      <point x="994" y="1411"/>
      <point x="892" y="1346" type="curve" smooth="yes"/>
      <point x="495" y="1085" type="line" smooth="yes"/>
      <point x="267" y="930"/>
      <point x="113" y="784"/>
      <point x="113" y="544" type="curve" smooth="yes"/>
      <point x="113" y="221"/>
      <point x="372" y="-30"/>
    </contour>
  </outline>
</glyph>
<glyph name="parenleft" format="2">
  <advance width="1152"/>
  <unicode hex="0028"/>
  <guideline x="1046" y="1330" angle="270.0"/>
  <outline>
    <contour>
      <point x="264" y="821" type="curve" smooth="yes"/>
      <point x="264" y="324"/>
      <point x="395" y="-89"/>
      <point x="668" y="-445" type="curve"/>
      <point x="1075" y="-445" type="line"/>
      <point x="866" y="-181"/>
      <point x="707" y="347"/>
      <point x="707" y="821" type="curve" smooth="yes"/>
      <point x="707" y="1294"/>
      <point x="866" y="1822"/>
      <point x="1075" y="2086" type="curve"/>
      <point x="668" y="2086" type="line"/>
      <point x="395" y="1730"/>
      <point x="264" y="1318"/>
    </contour>
  </outline>
</glyph>
<glyph name="asterisk" format="2">
  <advance width="1590"/>
  <unicode hex="002A"/>
  <note>
hexagonal angle: 30 deg
</note>
  <guideline x="296" y="1333" angle="0.0"/>
  <guideline x="328" y="1047" angle="0.0"/>
  <guideline x="822" y="1640" angle="90.0"/>
  <outline>
    <contour>
      <point x="661" y="896" type="line"/>
      <point x="930" y="896" type="line"/>
      <point x="904" y="1283" type="line"/>
      <point x="1228" y="1066" type="line"/>
      <point x="1362" y="1302" type="line"/>
      <point x="1014" y="1472" type="line"/>
      <point x="1362" y="1642" type="line"/>
      <point x="1228" y="1878" type="line"/>
      <point x="904" y="1661" type="line"/>
      <point x="930" y="2048" type="line"/>
      <point x="661" y="2048" type="line"/>
      <point x="686" y="1661" type="line"/>
      <point x="362" y="1878" type="line"/>
      <point x="228" y="1642" type="line"/>
      <point x="577" y="1472" type="line"/>
      <point x="228" y="1302" type="line"/>
      <point x="362" y="1066" type="line"/>
      <point x="686" y="1283" type="line"/>
    </contour>
  </outline>
</glyph>
<glyph name="plus" format="2">
  <advance width="1914"/>
  <unicode hex="002B"/>
  <guideline x="352" y="819" angle="0.0"/>
  <outline>
    <contour>
      <point x="778" y="111" type="line"/>
      <point x="1136" y="111" type="line"/>
      <point x="1136" y="1527" type="line"/>
      <point x="778" y="1527" type="line"/>
    </contour>
    <contour>
      <point x="249" y="640" type="line"/>
      <point x="1665" y="640" type="line"/>
      <point x="1665" y="998" type="line"/>
      <point x="249" y="998" type="line"/>
    </contour>
  </outline>
</glyph>
<glyph name="comma" format="2">
  <advance width="853"/>
  <unicode hex="002C"/>
  <outline>
    <contour>
      <point x="633" y="280" type="line"/>
      <point x="281" y="280" type="line"/>
      <point x="276" y="168" type="line" smooth="yes"/>
      <point x="264" y="-104"/>
      <point x="186" y="-383"/>
      <point x="157" y="-500" type="curve"/>
      <point x="433" y="-500" type="line"/>
      <point x="481" y="-379"/>
      <point x="595" y="-95"/>
      <point x="622" y="170" type="curve" smooth="yes"/>
    </contour>
  </outline>
</glyph>
<glyph name="hyphen" format="2">
  <advance width="1320"/>
  <unicode hex="002D"/>
  <guideline x="1103" y="841" angle="0.0"/>
  <outline>
    <contour>
      <point x="1127" y="1010" type="line"/>
      <point x="193" y="1010" type="line"/>
      <point x="193" y="672" type="line"/>
      <point x="1127" y="672" type="line"/>
    </contour>
  </outline>
</glyph>
<glyph name="period" format="2">
  <advance width="838"/>
  <unicode hex="002E"/>
  <outline>
    <contour>
      <point x="419" y="-26" type="curve" smooth="yes"/>
      <point x="547" y="-26"/>
      <point x="658" y="81"/>
      <point x="659" y="214" type="curve" smooth="yes"/>
      <point x="658" y="345"/>
      <point x="547" y="452"/>
      <point x="419" y="452" type="curve" smooth="yes"/>
      <point x="287" y="452"/>
      <point x="178" y="345"/>
      <point x="179" y="214" type="curve" smooth="yes"/>
      <point x="178" y="81"/>
      <point x="287" y="-26"/>
    </contour>
  </outline>
</glyph>
<glyph name="zero" format="2">
  <advance width="1938"/>
  <unicode hex="0030"/>
  <guideline x="351" y="1061" angle="90.0"/>
  <outline>
    <contour>
      <point x="969" y="-45" type="curve" smooth="yes"/>
      <point x="1484" y="-45"/>
      <point x="1795" y="347"/>
      <point x="1796" y="1022" type="curve" smooth="yes"/>
      <point x="1797" y="1692"/>
      <point x="1482" y="2076"/>
      <point x="969" y="2076" type="curve" smooth="yes"/>
      <point x="455" y="2076"/>
      <point x="143" y="1693"/>
      <point x="142" y="1022" type="curve" smooth="yes"/>
      <point x="140" y="349"/>
      <point x="453" y="-44"/>
    </contour>
    <contour>
      <point x="969" y="314" type="curve" smooth="yes"/>
      <point x="734" y="314"/>
      <point x="582" y="550"/>
      <point x="583" y="1022" type="curve" smooth="yes"/>
      <point x="584" y="1487"/>
      <point x="735" y="1721"/>
      <point x="969" y="1721" type="curve" smooth="yes"/>
      <point x="1202" y="1721"/>
      <point x="1354" y="1487"/>
      <point x="1354" y="1022" type="curve" smooth="yes"/>
      <point x="1355" y="550"/>
      <point x="1203" y="314"/>
    </contour>
  </outline>
</glyph>
<glyph name="one" format="2">
  <advance width="1378"/>
  <unicode hex="0031"/>
  <outline>
    <contour>
      <point x="1057" y="2048" type="line"/>
      <point x="650" y="2048" type="line"/>
      <point x="143" y="1727" type="line"/>
      <point x="143" y="1343" type="line"/>
      <point x="612" y="1637" type="line"/>
      <point x="624" y="1637" type="line"/>
      <point x="624" y="0" type="line"/>
      <point x="1057" y="0" type="line"/>
    </contour>
  </outline>
</glyph>
<glyph name="two" format="2">
  <advance width="1774"/>
  <unicode hex="0032"/>
  <outline>
    <contour>
      <point x="166" y="0" type="line"/>
      <point x="1626" y="0" type="line"/>
      <point x="1626" y="354" type="line"/>
      <point x="766" y="354" type="line"/>
      <point x="766" y="368" type="line"/>
      <point x="1065" y="661" type="line" smooth="yes"/>
      <point x="1486" y="1045"/>
      <point x="1599" y="1237"/>
      <point x="1599" y="1470" type="curve" smooth="yes"/>
      <point x="1599" y="1825"/>
      <point x="1309" y="2076"/>
      <point x="870" y="2076" type="curve" smooth="yes"/>
      <point x="440" y="2076"/>
      <point x="145" y="1819"/>
      <point x="146" y="1417" type="curve"/>
      <point x="557" y="1417" type="line"/>
      <point x="556" y="1613"/>
      <point x="680" y="1733"/>
      <point x="867" y="1733" type="curve" smooth="yes"/>
      <point x="1047" y="1733"/>
      <point x="1181" y="1621"/>
      <point x="1181" y="1441" type="curve" smooth="yes"/>
      <point x="1181" y="1278"/>
      <point x="1081" y="1166"/>
      <point x="895" y="987" type="curve" smooth="yes"/>
      <point x="166" y="312" type="line"/>
    </contour>
  </outline>
</glyph>
<glyph name="three" format="2">
  <advance width="1857"/>
  <unicode hex="0033"/>
  <outline>
    <contour>
      <point x="923" y="-28" type="curve" smooth="yes"/>
      <point x="1383" y="-28"/>
      <point x="1712" y="225"/>
      <point x="1711" y="575" type="curve" smooth="yes"/>
      <point x="1712" y="830"/>
      <point x="1550" y="1012"/>
      <point x="1249" y="1050" type="curve"/>
      <point x="1249" y="1066" type="line"/>
      <point x="1478" y="1107"/>
      <point x="1636" y="1269"/>
      <point x="1635" y="1499" type="curve" smooth="yes"/>
      <point x="1636" y="1822"/>
      <point x="1353" y="2076"/>
      <point x="929" y="2076" type="curve" smooth="yes"/>
      <point x="509" y="2076"/>
      <point x="193" y="1830"/>
      <point x="187" y="1476" type="curve"/>
      <point x="602" y="1476" type="line"/>
      <point x="607" y="1632"/>
      <point x="750" y="1733"/>
      <point x="927" y="1733" type="curve" smooth="yes"/>
      <point x="1102" y="1733"/>
      <point x="1219" y="1627"/>
      <point x="1218" y="1473" type="curve" smooth="yes"/>
      <point x="1219" y="1312"/>
      <point x="1082" y="1203"/>
      <point x="885" y="1203" type="curve" smooth="yes"/>
      <point x="694" y="1203" type="line"/>
      <point x="694" y="885" type="line"/>
      <point x="885" y="885" type="line" smooth="yes"/>
      <point x="1117" y="885"/>
      <point x="1262" y="769"/>
      <point x="1261" y="604" type="curve" smooth="yes"/>
      <point x="1262" y="441"/>
      <point x="1122" y="329"/>
      <point x="924" y="329" type="curve" smooth="yes"/>
      <point x="733" y="329"/>
      <point x="590" y="429"/>
      <point x="582" y="579" type="curve"/>
      <point x="146" y="579" type="line"/>
      <point x="153" y="221"/>
      <point x="473" y="-28"/>
    </contour>
  </outline>
</glyph>
<glyph name="four" format="2">
  <advance width="1909"/>
  <unicode hex="0034"/>
  <outline>
    <contour>
      <point x="135" y="360" type="line"/>
      <point x="1786" y="360" type="line"/>
      <point x="1786" y="707" type="line"/>
      <point x="571" y="707" type="line"/>
      <point x="571" y="723" type="line"/>
      <point x="1110" y="1576" type="line"/>
      <point x="1284" y="1576" type="line"/>
      <point x="1284" y="2048" type="line"/>
      <point x="990" y="2048" type="line"/>
      <point x="135" y="701" type="line"/>
    </contour>
    <contour>
      <point x="1118" y="0" type="line"/>
      <point x="1532" y="0" type="line"/>
      <point x="1532" y="2048" type="line"/>
      <point x="1126" y="2048" type="line"/>
      <point x="1126" y="615" type="line"/>
      <point x="1118" y="464" type="line"/>
    </contour>
  </outline>
</glyph>
<glyph name="five" format="2">
  <advance width="1815"/>
  <unicode hex="0035"/>
  <guideline x="543" y="2030" angle="0.0"/>
  <outline>
    <contour>
      <point x="914" y="-28" type="curve" smooth="yes"/>
      <point x="1370" y="-28"/>
      <point x="1680" y="269"/>
      <point x="1679" y="683" type="curve" smooth="yes"/>
      <point x="1680" y="1075"/>
      <point x="1406" y="1357"/>
      <point x="1037" y="1357" type="curve" smooth="yes"/>
      <point x="857" y="1357"/>
      <point x="702" y="1282"/>
      <point x="630" y="1181" type="curve"/>
      <point x="618" y="1181" type="line"/>
      <point x="671" y="1694" type="line"/>
      <point x="1566" y="1694" type="line"/>
      <point x="1566" y="2048" type="line"/>
      <point x="314" y="2048" type="line"/>
      <point x="217" y="968" type="line"/>
      <point x="602" y="899" type="line"/>
      <point x="665" y="984"/>
      <point x="787" y="1037"/>
      <point x="908" y="1037" type="curve" smooth="yes"/>
      <point x="1114" y="1036"/>
      <point x="1262" y="887"/>
      <point x="1262" y="672" type="curve" smooth="yes"/>
      <point x="1262" y="459"/>
      <point x="1117" y="312"/>
      <point x="914" y="312" type="curve" smooth="yes"/>
      <point x="742" y="312"/>
      <point x="603" y="420"/>
      <point x="593" y="579" type="curve"/>
      <point x="173" y="579" type="line"/>
      <point x="181" y="225"/>
      <point x="490" y="-28"/>
    </contour>
  </outline>
</glyph>
<glyph name="six" format="2">
  <advance width="1859"/>
  <unicode hex="0036"/>
  <outline>
    <contour>
      <point x="952" y="-28" type="curve" smooth="yes"/>
      <point x="1408" y="-30"/>
      <point x="1719" y="269"/>
      <point x="1718" y="686" type="curve" smooth="yes"/>
      <point x="1719" y="1070"/>
      <point x="1451" y="1347"/>
      <point x="1088" y="1347" type="curve" smooth="yes"/>
      <point x="863" y="1347"/>
      <point x="664" y="1239"/>
      <point x="572" y="1058" type="curve"/>
      <point x="558" y="1058" type="line"/>
      <point x="560" y="1463"/>
      <point x="700" y="1711"/>
      <point x="967" y="1711" type="curve" smooth="yes"/>
      <point x="1124" y="1711"/>
      <point x="1237" y="1626"/>
      <point x="1270" y="1476" type="curve"/>
      <point x="1697" y="1476" type="line"/>
      <point x="1656" y="1820"/>
      <point x="1376" y="2082"/>
      <point x="967" y="2082" type="curve" smooth="yes"/>
      <point x="461" y="2082"/>
      <point x="136" y="1672"/>
      <point x="134" y="978" type="curve" smooth="yes"/>
      <point x="136" y="228"/>
      <point x="531" y="-26"/>
    </contour>
    <contour>
      <point x="950" y="312" type="curve" smooth="yes"/>
      <point x="750" y="312"/>
      <point x="602" y="473"/>
      <point x="602" y="673" type="curve" smooth="yes"/>
      <point x="603" y="872"/>
      <point x="754" y="1034"/>
      <point x="953" y="1034" type="curve" smooth="yes"/>
      <point x="1153" y="1034"/>
      <point x="1299" y="877"/>
      <point x="1298" y="674" type="curve" smooth="yes"/>
      <point x="1299" y="469"/>
      <point x="1150" y="312"/>
    </contour>
  </outline>
</glyph>
<glyph name="seven" format="2">
  <advance width="1675"/>
  <unicode hex="0037"/>
  <outline>
    <contour>
      <point x="247" y="0" type="line"/>
      <point x="694" y="0" type="line"/>
      <point x="1544" y="1689" type="line"/>
      <point x="1544" y="2048" type="line"/>
      <point x="107" y="2048" type="line"/>
      <point x="107" y="1694" type="line"/>
      <point x="1096" y="1694" type="line"/>
      <point x="1096" y="1680" type="line"/>
    </contour>
  </outline>
</glyph>
<glyph name="eight" format="2">
  <advance width="1861"/>
  <unicode hex="0038"/>
  <note>
essentially two conjoined "three" glyphs
</note>
  <outline>
    <contour>
      <point x="930" y="-28" type="curve" smooth="yes"/>
      <point x="1392" y="-28"/>
      <point x="1724" y="219"/>
      <point x="1725" y="551" type="curve" smooth="yes"/>
      <point x="1724" y="807"/>
      <point x="1527" y="1016"/>
      <point x="1281" y="1057" type="curve"/>
      <point x="1281" y="1071" type="line"/>
      <point x="1495" y="1115"/>
      <point x="1648" y="1300"/>
      <point x="1649" y="1525" type="curve" smooth="yes"/>
      <point x="1648" y="1842"/>
      <point x="1344" y="2076"/>
      <point x="930" y="2076" type="curve" smooth="yes"/>
      <point x="515" y="2076"/>
      <point x="211" y="1842"/>
      <point x="212" y="1525" type="curve" smooth="yes"/>
      <point x="211" y="1301"/>
      <point x="362" y="1115"/>
      <point x="580" y="1071" type="curve"/>
      <point x="580" y="1057" type="line"/>
      <point x="330" y="1016"/>
      <point x="135" y="807"/>
      <point x="136" y="551" type="curve" smooth="yes"/>
      <point x="135" y="219"/>
      <point x="468" y="-28"/>
    </contour>
    <contour>
      <point x="930" y="290" type="curve" smooth="yes"/>
      <point x="724" y="290"/>
      <point x="586" y="412"/>
      <point x="586" y="585" type="curve" smooth="yes"/>
      <point x="586" y="762"/>
      <point x="731" y="890"/>
      <point x="930" y="890" type="curve" smooth="yes"/>
      <point x="1128" y="890"/>
      <point x="1274" y="762"/>
      <point x="1274" y="585" type="curve" smooth="yes"/>
      <point x="1274" y="411"/>
      <point x="1135" y="290"/>
    </contour>
    <contour>
      <point x="930" y="1205" type="curve" smooth="yes"/>
      <point x="757" y="1205"/>
      <point x="634" y="1318"/>
      <point x="634" y="1480" type="curve" smooth="yes"/>
      <point x="634" y="1640"/>
      <point x="755" y="1750"/>
      <point x="930" y="1750" type="curve" smooth="yes"/>
      <point x="1104" y="1750"/>
      <point x="1226" y="1639"/>
      <point x="1226" y="1480" type="curve" smooth="yes"/>
      <point x="1226" y="1318"/>
      <point x="1102" y="1205"/>
    </contour>
  </outline>
</glyph>
<glyph name="nine" format="2">
  <advance width="1859"/>
  <unicode hex="0039"/>
  <note>
six mirrored
</note>
  <outline>
    <contour>
      <point x="907" y="2082" type="curve" smooth="yes"/>
      <point x="449" y="2084"/>
      <point x="140" y="1784"/>
      <point x="142" y="1368" type="curve" smooth="yes"/>
      <point x="140" y="984"/>
      <point x="408" y="707"/>
      <point x="771" y="707" type="curve" smooth="yes"/>
      <point x="996" y="707"/>
      <point x="1196" y="816"/>
      <point x="1287" y="996" type="curve"/>
      <point x="1301" y="996" type="line"/>
      <point x="1300" y="590"/>
      <point x="1159" y="343"/>
      <point x="892" y="343" type="curve" smooth="yes"/>
      <point x="735" y="343"/>
      <point x="622" y="429"/>
      <point x="589" y="578" type="curve"/>
      <point x="162" y="578" type="line"/>
      <point x="202" y="233"/>
      <point x="482" y="-28"/>
      <point x="892" y="-28" type="curve" smooth="yes"/>
      <point x="1399" y="-28"/>
      <point x="1724" y="382"/>
      <point x="1725" y="1077" type="curve" smooth="yes"/>
      <point x="1724" y="1826"/>
      <point x="1328" y="2081"/>
    </contour>
    <contour>
      <point x="910" y="1742" type="curve" smooth="yes"/>
      <point x="1109" y="1742"/>
      <point x="1256" y="1580"/>
      <point x="1258" y="1382" type="curve" smooth="yes"/>
      <point x="1256" y="1183"/>
      <point x="1104" y="1021"/>
      <point x="906" y="1021" type="curve" smooth="yes"/>
      <point x="706" y="1021"/>
      <point x="560" y="1177"/>
      <point x="562" y="1380" type="curve" smooth="yes"/>
      <point x="560" y="1585"/>
      <point x="709" y="1742"/>
    </contour>
  </outline>
</glyph>
<glyph name="greater" format="2">
  <advance width="1914"/>
  <unicode hex="003E"/>
  <guideline x="352" y="819" angle="0.0"/>
  <outline>
    <contour>
      <point x="1661" y="643" type="line"/>
      <point x="1661" y="995" type="line"/>
      <point x="253" y="1615" type="line"/>
      <point x="253" y="1210" type="line"/>
      <point x="1217" y="823" type="line"/>
      <point x="1204" y="844" type="line"/>
      <point x="1204" y="794" type="line"/>
      <point x="1217" y="815" type="line"/>
      <point x="253" y="428" type="line"/>
      <point x="253" y="23" type="line"/>
    </contour>
  </outline>
</glyph>
<glyph name="question" format="2">
  <advance width="1584"/>
  <unicode hex="003F"/>
  <outline>
    <contour>
      <point x="536" y="614" type="line"/>
      <point x="915" y="614" type="line"/>
      <point x="915" y="648" type="line" smooth="yes"/>
      <point x="917" y="843"/>
      <point x="987" y="934"/>
      <point x="1145" y="1029" type="curve" smooth="yes"/>
      <point x="1332" y="1140"/>
      <point x="1454" y="1287"/>
      <point x="1454" y="1522" type="curve" smooth="yes"/>
      <point x="1454" y="1872"/>
      <point x="1172" y="2076"/>
      <point x="775" y="2076" type="curve" smooth="yes"/>
      <point x="412" y="2076"/>
      <point x="116" y="1886"/>
      <point x="107" y="1486" type="curve"/>
      <point x="515" y="1486" type="line"/>
      <point x="521" y="1649"/>
      <point x="642" y="1736"/>
      <point x="773" y="1736" type="curve" smooth="yes"/>
      <point x="908" y="1736"/>
      <point x="1017" y="1646"/>
      <point x="1017" y="1507" type="curve" smooth="yes"/>
      <point x="1017" y="1376"/>
      <point x="922" y="1289"/>
      <point x="799" y="1211" type="curve" smooth="yes"/>
      <point x="631" y="1105"/>
      <point x="537" y="998"/>
      <point x="536" y="648" type="curve" smooth="yes"/>
    </contour>
    <component base="period" xOffset="314"/>
  </outline>
</glyph>
<glyph name="at" format="2">
  <advance width="2902"/>
  <unicode hex="0040"/>
  <outline>
    <contour>
      <point x="1511" y="-590" type="curve" smooth="yes"/>
      <point x="1796" y="-590"/>
      <point x="2075" y="-523"/>
      <point x="2200" y="-452" type="curve"/>
      <point x="2101" y="-162" type="line"/>
      <point x="1994" y="-206"/>
      <point x="1764" y="-264"/>
      <point x="1534" y="-264" type="curve" smooth="yes"/>
      <point x="882" y="-264"/>
      <point x="528" y="82"/>
      <point x="526" y="714" type="curve" smooth="yes"/>
      <point x="528" y="1286"/>
      <point x="854" y="1717"/>
      <point x="1519" y="1717" type="curve" smooth="yes"/>
      <point x="2000" y="1717"/>
      <point x="2447" y="1487"/>
      <point x="2446" y="859" type="curve" smooth="yes"/>
      <point x="2447" y="468"/>
      <point x="2375" y="290"/>
      <point x="2237" y="290" type="curve" smooth="yes"/>
      <point x="2168" y="290"/>
      <point x="2126" y="342"/>
      <point x="2125" y="435" type="curve" smooth="yes"/>
      <point x="2125" y="1411" type="line"/>
      <point x="1812" y="1411" type="line"/>
      <point x="1812" y="1299" type="line"/>
      <point x="1798" y="1299" type="line"/>
      <point x="1764" y="1387"/>
      <point x="1552" y="1470"/>
      <point x="1327" y="1436" type="curve" smooth="yes"/>
      <point x="1060" y="1397"/>
      <point x="772" y="1178"/>
      <point x="770" y="714" type="curve" smooth="yes"/>
      <point x="772" y="243"/>
      <point x="1040" y="2"/>
      <point x="1356" y="-15" type="curve" smooth="yes"/>
      <point x="1583" y="-28"/>
      <point x="1787" y="67"/>
      <point x="1834" y="188" type="curve"/>
      <point x="1846" y="188" type="line"/>
      <point x="1868" y="50"/>
      <point x="1960" y="-44"/>
      <point x="2192" y="-27" type="curve" smooth="yes"/>
      <point x="2624" y="-3"/>
      <point x="2789" y="345"/>
      <point x="2788" y="836" type="curve" smooth="yes"/>
      <point x="2789" y="1547"/>
      <point x="2319" y="2039"/>
      <point x="1524" y="2039" type="curve" smooth="yes"/>
      <point x="664" y="2039"/>
      <point x="171" y="1506"/>
      <point x="170" y="702" type="curve" smooth="yes"/>
      <point x="171" y="-115"/>
      <point x="660" y="-590"/>
    </contour>
    <contour>
      <point x="1465" y="314" type="curve" smooth="yes"/>
      <point x="1204" y="314"/>
      <point x="1116" y="514"/>
      <point x="1115" y="726" type="curve" smooth="yes"/>
      <point x="1116" y="954"/>
      <point x="1241" y="1103"/>
      <point x="1463" y="1103" type="curve" smooth="yes"/>
      <point x="1716" y="1103"/>
      <point x="1792" y="969"/>
      <point x="1793" y="729" type="curve" smooth="yes"/>
      <point x="1796" y="457"/>
      <point x="1710" y="314"/>
    </contour>
  </outline>
</glyph>
<glyph name="A" format="2">
  <advance width="2106"/>
  <unicode hex="0041"/>
  <outline>
    <contour>
      <point x="531" y="0" type="line"/>
      <point x="1045" y="1580" type="line"/>
      <point x="1061" y="1580" type="line"/>
      <point x="1574" y="0" type="line"/>
      <point x="2038" y="0" type="line"/>
      <point x="1332" y="2048" type="line"/>
      <point x="774" y="2048" type="line"/>
      <point x="67" y="0" type="line"/>
    </contour>
    <contour>
      <point x="502" y="805" type="line"/>
      <point x="502" y="467" type="line"/>
      <point x="1598" y="467" type="line"/>
      <point x="1598" y="805" type="line"/>
    </contour>
  </outline>
</glyph>
<glyph name="B" format="2">
  <advance width="1861"/>
  <unicode hex="0042"/>
  <guideline x="826" y="1138" angle="0.0"/>
  <outline>
    <contour>
      <point x="178" y="0" type="line"/>
      <point x="1053" y="0" type="line" smooth="yes"/>
      <point x="1513" y="0"/>
      <point x="1758" y="240"/>
      <point x="1758" y="566" type="curve" smooth="yes"/>
      <point x="1758" y="869"/>
      <point x="1541" y="1052"/>
      <point x="1308" y="1063" type="curve"/>
      <point x="1308" y="1083" type="line"/>
      <point x="1521" y="1131"/>
      <point x="1678" y="1282"/>
      <point x="1678" y="1523" type="curve" smooth="yes"/>
      <point x="1678" y="1830"/>
      <point x="1450" y="2048"/>
      <point x="998" y="2048" type="curve" smooth="yes"/>
      <point x="178" y="2048" type="line"/>
    </contour>
    <contour>
      <point x="611" y="354" type="line"/>
      <point x="611" y="898" type="line"/>
      <point x="974" y="898" type="line" smooth="yes"/>
      <point x="1182" y="898"/>
      <point x="1311" y="778"/>
      <point x="1311" y="609" type="curve" smooth="yes"/>
      <point x="1311" y="455"/>
      <point x="1206" y="354"/>
      <point x="964" y="354" type="curve" smooth="yes"/>
    </contour>
    <contour>
      <point x="611" y="1191" type="line"/>
      <point x="611" y="1698" type="line"/>
      <point x="940" y="1698" type="line" smooth="yes"/>
      <point x="1132" y="1698"/>
      <point x="1241" y="1599"/>
      <point x="1241" y="1451" type="curve" smooth="yes"/>
      <point x="1241" y="1289"/>
      <point x="1109" y="1191"/>
      <point x="932" y="1191" type="curve" smooth="yes"/>
    </contour>
  </outline>
</glyph>
<glyph name="C" format="2">
  <advance width="2118"/>
  <unicode hex="0043"/>
  <outline>
    <contour>
      <point x="1985" y="1331" type="line"/>
      <point x="1928" y="1804"/>
      <point x="1570" y="2076"/>
      <point x="1096" y="2076" type="curve" smooth="yes"/>
      <point x="555" y="2076"/>
      <point x="142" y="1694"/>
      <point x="142" y="1024" type="curve" smooth="yes"/>
      <point x="142" y="356"/>
      <point x="548" y="-28"/>
      <point x="1096" y="-28" type="curve" smooth="yes"/>
      <point x="1621" y="-28"/>
      <point x="1938" y="321"/>
      <point x="1985" y="698" type="curve"/>
      <point x="1547" y="700" type="line"/>
      <point x="1506" y="481"/>
      <point x="1334" y="355"/>
      <point x="1103" y="355" type="curve" smooth="yes"/>
      <point x="792" y="355"/>
      <point x="581" y="586"/>
      <point x="581" y="1024" type="curve" smooth="yes"/>
      <point x="581" y="1450"/>
      <point x="789" y="1693"/>
      <point x="1106" y="1693" type="curve" smooth="yes"/>
      <point x="1343" y="1693"/>
      <point x="1514" y="1556"/>
      <point x="1547" y="1331" type="curve"/>
    </contour>
  </outline>
</glyph>
<glyph name="D" format="2">
  <advance width="2048"/>
  <unicode hex="0044"/>
  <note>
!post:RemoveOverlap
</note>
  <outline>
    <contour>
      <point x="904" y="0" type="line" smooth="yes"/>
      <point x="1528" y="0"/>
      <point x="1906" y="386"/>
      <point x="1906" y="1026" type="curve" smooth="yes"/>
      <point x="1906" y="1664"/>
      <point x="1528" y="2048"/>
      <point x="910" y="2048" type="curve" smooth="yes"/>
      <point x="362" y="2048" type="line"/>
      <point x="362" y="1677" type="line"/>
      <point x="887" y="1677" type="line" smooth="yes"/>
      <point x="1271" y="1677"/>
      <point x="1474" y="1481"/>
      <point x="1474" y="1026" type="curve" smooth="yes"/>
      <point x="1474" y="569"/>
      <point x="1271" y="371"/>
      <point x="886" y="371" type="curve" smooth="yes"/>
      <point x="371" y="371" type="line"/>
      <point x="371" y="0" type="line"/>
    </contour>
    <contour>
      <point x="611" y="2048" type="line"/>
      <point x="178" y="2048" type="line"/>
      <point x="178" y="0" type="line"/>
      <point x="611" y="0" type="line"/>
    </contour>
  </outline>
</glyph>
<glyph name="E" format="2">
  <advance width="1725"/>
  <unicode hex="0045"/>
  <outline>
    <contour>
      <point x="178" y="0" type="line"/>
      <point x="1562" y="0" type="line"/>
      <point x="1562" y="357" type="line"/>
      <point x="611" y="357" type="line"/>
      <point x="611" y="846" type="line"/>
      <point x="1487" y="846" type="line"/>
      <point x="1487" y="1203" type="line"/>
      <point x="611" y="1203" type="line"/>
      <point x="611" y="1691" type="line"/>
      <point x="1558" y="1691" type="line"/>
      <point x="1558" y="2048" type="line"/>
      <point x="178" y="2048" type="line"/>
    </contour>
  </outline>
</glyph>
<glyph name="F" format="2">
  <advance width="1647"/>
  <unicode hex="0046"/>
  <outline>
    <contour>
      <point x="178" y="0" type="line"/>
      <point x="611" y="0" type="line"/>
      <point x="611" y="846" type="line"/>
      <point x="1444" y="846" type="line"/>
      <point x="1444" y="1203" type="line"/>
      <point x="611" y="1203" type="line"/>
      <point x="611" y="1691" type="line"/>
      <point x="1534" y="1691" type="line"/>
      <point x="1534" y="2048" type="line"/>
      <point x="178" y="2048" type="line"/>
    </contour>
  </outline>
</glyph>
<glyph name="G" format="2">
  <advance width="2142"/>
  <unicode hex="0047"/>
  <guideline x="1374" y="1355" angle="7.9575"/>
  <outline>
    <contour>
      <point x="1536" y="1386" type="curve"/>
      <point x="1976" y="1386" type="line"/>
      <point x="1920" y="1791"/>
      <point x="1563" y="2076"/>
      <point x="1100" y="2076" type="curve" smooth="yes"/>
      <point x="559" y="2076"/>
      <point x="142" y="1686"/>
      <point x="142" y="1022" type="curve" smooth="yes"/>
      <point x="142" y="374"/>
      <point x="532" y="-28"/>
      <point x="1109" y="-28" type="curve" smooth="yes"/>
      <point x="1626" y="-28"/>
      <point x="1995" y="299"/>
      <point x="1995" y="838" type="curve" smooth="yes"/>
      <point x="1995" y="1096" type="line"/>
      <point x="1138" y="1096" type="line"/>
      <point x="1138" y="770" type="line"/>
      <point x="1666" y="770" type="line"/>
      <point x="1578" y="783" type="line"/>
      <point x="1578" y="522"/>
      <point x="1404" y="355"/>
      <point x="1111" y="355" type="curve" smooth="yes"/>
      <point x="786" y="355"/>
      <point x="581" y="598"/>
      <point x="581" y="1026" type="curve" smooth="yes"/>
      <point x="581" y="1452"/>
      <point x="794" y="1693"/>
      <point x="1107" y="1693" type="curve" smooth="yes"/>
      <point x="1330" y="1693"/>
      <point x="1481" y="1578"/>
    </contour>
  </outline>
</glyph>
<glyph name="H" format="2">
  <advance width="2101"/>
  <unicode hex="0048"/>
  <outline>
    <contour>
      <point x="178" y="0" type="line"/>
      <point x="611" y="0" type="line"/>
      <point x="611" y="846" type="line"/>
      <point x="1490" y="846" type="line"/>
      <point x="1490" y="0" type="line"/>
      <point x="1922" y="0" type="line"/>
      <point x="1922" y="2048" type="line"/>
      <point x="1490" y="2048" type="line"/>
      <point x="1490" y="1203" type="line"/>
      <point x="611" y="1203" type="line"/>
      <point x="611" y="2048" type="line"/>
      <point x="178" y="2048" type="line"/>
    </contour>
  </outline>
</glyph>
<glyph name="J" format="2">
  <advance width="1605"/>
  <unicode hex="004A"/>
  <guideline x="1211" y="1476" angle="90.0"/>
  <outline>
    <contour>
      <point x="998" y="2048" type="line"/>
      <point x="998" y="620" type="line" smooth="yes"/>
      <point x="997" y="423"/>
      <point x="909" y="319"/>
      <point x="749" y="319" type="curve" smooth="yes"/>
      <point x="598" y="319"/>
      <point x="500" y="413"/>
      <point x="497" y="576" type="curve"/>
      <point x="66" y="576" type="line"/>
      <point x="64" y="167"/>
      <point x="356" y="-28"/>
      <point x="727" y="-28" type="curve" smooth="yes"/>
      <point x="1142" y="-28"/>
      <point x="1425" y="223"/>
      <point x="1426" y="620" type="curve" smooth="yes"/>
      <point x="1426" y="2048" type="line"/>
    </contour>
  </outline>
</glyph>
<glyph name="K" format="2">
  <advance width="1942"/>
  <unicode hex="004B"/>
  <guideline x="1328" y="1911" angle="90.0"/>
  <outline>
    <contour>
      <point x="178" y="0" type="line"/>
      <point x="611" y="0" type="line"/>
      <point x="611" y="582" type="line"/>
      <point x="824" y="842" type="line"/>
      <point x="1385" y="0" type="line"/>
      <point x="1903" y="0" type="line"/>
      <point x="1134" y="1131" type="line"/>
      <point x="1894" y="2048" type="line"/>
      <point x="1375" y="2048" type="line"/>
      <point x="638" y="1145" type="line"/>
      <point x="611" y="1145" type="line"/>
      <point x="611" y="2048" type="line"/>
      <point x="178" y="2048" type="line"/>
    </contour>
  </outline>
</glyph>
<glyph name="L" format="2">
  <advance width="1598"/>
  <unicode hex="004C"/>
  <guideline x="156" y="1560" angle="0.0"/>
  <guideline x="834" y="310" angle="90.0"/>
  <outline>
    <contour>
      <point x="178" y="0" type="line"/>
      <point x="1489" y="0" type="line"/>
      <point x="1489" y="357" type="line"/>
      <point x="611" y="357" type="line"/>
      <point x="611" y="2048" type="line"/>
      <point x="178" y="2048" type="line"/>
    </contour>
  </outline>
</glyph>
<glyph name="M" format="2">
  <advance width="2602"/>
  <unicode hex="004D"/>
  <outline>
    <contour>
      <point x="178" y="2048" type="line"/>
      <point x="178" y="0" type="line"/>
      <point x="598" y="0" type="line"/>
      <point x="598" y="1338" type="line"/>
      <point x="615" y="1338" type="line"/>
      <point x="1145" y="10" type="line"/>
      <point x="1431" y="10" type="line"/>
      <point x="1961" y="1333" type="line"/>
      <point x="1978" y="1333" type="line"/>
      <point x="1978" y="0" type="line"/>
      <point x="2398" y="0" type="line"/>
      <point x="2398" y="2048" type="line"/>
      <point x="1864" y="2048" type="line"/>
      <point x="1300" y="672" type="line"/>
      <point x="1276" y="672" type="line"/>
      <point x="712" y="2048" type="line"/>
    </contour>
  </outline>
</glyph>
<glyph name="N" format="2">
  <advance width="2070"/>
  <unicode hex="004E"/>
  <outline>
    <contour>
      <point x="1891" y="2048" type="line"/>
      <point x="1460" y="2048" type="line"/>
      <point x="1460" y="760" type="line"/>
      <point x="1442" y="760" type="line"/>
      <point x="558" y="2048" type="line"/>
      <point x="178" y="2048" type="line"/>
      <point x="178" y="0" type="line"/>
      <point x="611" y="0" type="line"/>
      <point x="611" y="1289" type="line"/>
      <point x="626" y="1289" type="line"/>
      <point x="1517" y="0" type="line"/>
      <point x="1891" y="0" type="line"/>
    </contour>
  </outline>
</glyph>
<glyph name="O" format="2">
  <advance width="2202"/>
  <unicode hex="004F"/>
  <outline>
    <contour>
      <point x="2060" y="1024" type="curve" smooth="yes"/>
      <point x="2060" y="1694"/>
      <point x="1644" y="2076"/>
      <point x="1101" y="2076" type="curve" smooth="yes"/>
      <point x="555" y="2076"/>
      <point x="142" y="1694"/>
      <point x="142" y="1024" type="curve" smooth="yes"/>
      <point x="142" y="357"/>
      <point x="555" y="-28"/>
      <point x="1101" y="-28" type="curve" smooth="yes"/>
      <point x="1644" y="-28"/>
      <point x="2060" y="354"/>
    </contour>
    <contour>
      <point x="1621" y="1024" type="curve" smooth="yes"/>
      <point x="1621" y="590"/>
      <point x="1415" y="355"/>
      <point x="1101" y="355" type="curve" smooth="yes"/>
      <point x="786" y="355"/>
      <point x="581" y="590"/>
      <point x="581" y="1024" type="curve" smooth="yes"/>
      <point x="581" y="1458"/>
      <point x="786" y="1693"/>
      <point x="1101" y="1693" type="curve" smooth="yes"/>
      <point x="1415" y="1693"/>
      <point x="1621" y="1458"/>
    </contour>
  </outline>
</glyph>
<glyph name="P" format="2">
  <advance width="1824"/>
  <unicode hex="0050"/>
  <outline>
    <contour>
      <point x="178" y="0" type="line"/>
      <point x="611" y="0" type="line"/>
      <point x="611" y="1694" type="line"/>
      <point x="903" y="1694" type="line" smooth="yes"/>
      <point x="1153" y="1694"/>
      <point x="1274" y="1558"/>
      <point x="1274" y="1354" type="curve" smooth="yes"/>
      <point x="1274" y="1151"/>
      <point x="1153" y="1011"/>
      <point x="905" y="1011" type="curve" smooth="yes"/>
      <point x="460" y="1011" type="line"/>
      <point x="460" y="664" type="line"/>
      <point x="975" y="664" type="line" smooth="yes"/>
      <point x="1446" y="664"/>
      <point x="1720" y="945"/>
      <point x="1720" y="1354" type="curve" smooth="yes"/>
      <point x="1720" y="1761"/>
      <point x="1451" y="2048"/>
      <point x="986" y="2048" type="curve" smooth="yes"/>
      <point x="178" y="2048" type="line"/>
    </contour>
  </outline>
</glyph>
<glyph name="Q" format="2">
  <advance width="2204"/>
  <unicode hex="0051"/>
  <outline>
    <contour>
      <point x="951" y="712" type="line"/>
      <point x="1268" y="294" type="line"/>
      <point x="1389" y="122" type="line"/>
      <point x="1625" y="-168" type="line"/>
      <point x="2029" y="-168" type="line"/>
      <point x="1686" y="262" type="line"/>
      <point x="1504" y="474" type="line"/>
      <point x="1319" y="712" type="line"/>
    </contour>
    <component base="O"/>
  </outline>
</glyph>
<glyph name="R" format="2">
  <advance width="1848"/>
  <unicode hex="0052"/>
  <outline>
    <contour>
      <point x="178" y="0" type="line"/>
      <point x="611" y="0" type="line"/>
      <point x="611" y="1694" type="line"/>
      <point x="903" y="1694" type="line" smooth="yes"/>
      <point x="1153" y="1694"/>
      <point x="1274" y="1583"/>
      <point x="1274" y="1379" type="curve" smooth="yes"/>
      <point x="1274" y="1176"/>
      <point x="1153" y="1074"/>
      <point x="905" y="1074" type="curve" smooth="yes"/>
      <point x="434" y="1074" type="line"/>
      <point x="434" y="726" type="line"/>
      <point x="975" y="726" type="line" smooth="yes"/>
      <point x="1446" y="726"/>
      <point x="1720" y="970"/>
      <point x="1720" y="1379" type="curve" smooth="yes"/>
      <point x="1720" y="1786"/>
      <point x="1451" y="2048"/>
      <point x="986" y="2048" type="curve" smooth="yes"/>
      <point x="178" y="2048" type="line"/>
    </contour>
    <contour>
      <point x="1284" y="932" type="line"/>
      <point x="817" y="932" type="line"/>
      <point x="1315" y="0" type="line"/>
      <point x="1793" y="0" type="line"/>
    </contour>
  </outline>
</glyph>
<glyph name="S" format="2">
  <advance width="1844"/>
  <unicode hex="0053"/>
  <note>
recipe: use stroke + offset curve filter with 32, no autostroke
</note>
  <outline>
    <contour>
      <point x="1289" y="1459" type="curve"/>
      <point x="1704" y="1459" type="line"/>
      <point x="1698" y="1824"/>
      <point x="1398" y="2076"/>
      <point x="942" y="2076" type="curve" smooth="yes"/>
      <point x="493" y="2076"/>
      <point x="164" y="1828"/>
      <point x="166" y="1456" type="curve" smooth="yes"/>
      <point x="165" y="1154"/>
      <point x="378" y="981"/>
      <point x="724" y="898" type="curve" smooth="yes"/>
      <point x="947" y="842" type="line" smooth="yes"/>
      <point x="1170" y="788"/>
      <point x="1294" y="724"/>
      <point x="1295" y="586" type="curve" smooth="yes"/>
      <point x="1294" y="436"/>
      <point x="1152" y="334"/>
      <point x="932" y="334" type="curve" smooth="yes"/>
      <point x="707" y="334"/>
      <point x="545" y="438"/>
      <point x="531" y="643" type="curve"/>
      <point x="112" y="643" type="line"/>
      <point x="123" y="200"/>
      <point x="440" y="-29"/>
      <point x="937" y="-29" type="curve" smooth="yes"/>
      <point x="1437" y="-29"/>
      <point x="1731" y="210"/>
      <point x="1732" y="585" type="curve" smooth="yes"/>
      <point x="1731" y="926"/>
      <point x="1474" y="1107"/>
      <point x="1118" y="1187" type="curve" smooth="yes"/>
      <point x="934" y="1231" type="line" smooth="yes"/>
      <point x="756" y="1272"/>
      <point x="607" y="1338"/>
      <point x="610" y="1485" type="curve" smooth="yes"/>
      <point x="610" y="1617"/>
      <point x="727" y="1714"/>
      <point x="939" y="1714" type="curve" smooth="yes"/>
      <point x="1146" y="1714"/>
      <point x="1273" y="1620"/>
    </contour>
  </outline>
</glyph>
<glyph name="T" format="2">
  <advance width="1882"/>
  <unicode hex="0054"/>
  <outline>
    <contour>
      <point x="100" y="1691" type="line"/>
      <point x="727" y="1691" type="line"/>
      <point x="727" y="0" type="line"/>
      <point x="1155" y="0" type="line"/>
      <point x="1155" y="1691" type="line"/>
      <point x="1782" y="1691" type="line"/>
      <point x="1782" y="2048" type="line"/>
      <point x="100" y="2048" type="line"/>
    </contour>
  </outline>
</glyph>
<glyph name="U" format="2">
  <advance width="2054"/>
  <unicode hex="0055"/>
  <outline>
    <contour>
      <point x="1446" y="2048" type="line"/>
      <point x="1446" y="709" type="line" smooth="yes"/>
      <point x="1446" y="490"/>
      <point x="1269" y="357"/>
      <point x="1027" y="357" type="curve" smooth="yes"/>
      <point x="788" y="357"/>
      <point x="611" y="490"/>
      <point x="611" y="709" type="curve" smooth="yes"/>
      <point x="611" y="2048" type="line"/>
      <point x="178" y="2048" type="line"/>
      <point x="178" y="694" type="line" smooth="yes"/>
      <point x="178" y="230"/>
      <point x="530" y="-29"/>
      <point x="1027" y="-29" type="curve" smooth="yes"/>
      <point x="1522" y="-29"/>
      <point x="1876" y="230"/>
      <point x="1876" y="694" type="curve" smooth="yes"/>
      <point x="1876" y="2048" type="line"/>
    </contour>
  </outline>
</glyph>
<glyph name="V" format="2">
  <advance width="2106"/>
  <unicode hex="0056"/>
  <outline>
    <contour>
      <point x="548" y="2048" type="line"/>
      <point x="67" y="2048" type="line"/>
      <point x="774" y="0" type="line"/>
      <point x="1332" y="0" type="line"/>
      <point x="2038" y="2048" type="line"/>
      <point x="1558" y="2048" type="line"/>
      <point x="1062" y="492" type="line"/>
      <point x="1043" y="492" type="line"/>
    </contour>
  </outline>
</glyph>
<glyph name="W" format="2">
  <advance width="2917"/>
  <unicode hex="0057"/>
  <outline>
    <contour>
      <point x="639" y="0" type="line"/>
      <point x="1061" y="0" type="line"/>
      <point x="1450" y="1339" type="line"/>
      <point x="1466" y="1339" type="line"/>
      <point x="1856" y="0" type="line"/>
      <point x="2278" y="0" type="line"/>
      <point x="2864" y="2048" type="line"/>
      <point x="2391" y="2048" type="line"/>
      <point x="2052" y="622" type="line"/>
      <point x="2034" y="622" type="line"/>
      <point x="1661" y="2048" type="line"/>
      <point x="1256" y="2048" type="line"/>
      <point x="882" y="625" type="line"/>
      <point x="865" y="625" type="line"/>
      <point x="526" y="2048" type="line"/>
      <point x="53" y="2048" type="line"/>
    </contour>
  </outline>
</glyph>
<glyph name="X" format="2">
  <advance width="2012"/>
  <unicode hex="0058"/>
  <note>
recipe: offset curve 32, no auto
</note>
  <outline>
    <contour>
      <point x="584" y="2048" type="line"/>
      <point x="93" y="2048" type="line"/>
      <point x="722" y="1024" type="line"/>
      <point x="81" y="0" type="line"/>
      <point x="577" y="0" type="line"/>
      <point x="997" y="699" type="line"/>
      <point x="1013" y="699" type="line"/>
      <point x="1433" y="0" type="line"/>
      <point x="1931" y="0" type="line"/>
      <point x="1292" y="1024" type="line"/>
      <point x="1917" y="2048" type="line"/>
      <point x="1428" y="2048" type="line"/>
      <point x="1013" y="1350" type="line"/>
      <point x="997" y="1350" type="line"/>
    </contour>
  </outline>
</glyph>
<glyph name="Y" format="2">
  <advance width="2040"/>
  <unicode hex="0059"/>
  <outline>
    <contour>
      <point x="58" y="2048" type="line"/>
      <point x="805" y="724" type="line"/>
      <point x="805" y="0" type="line"/>
      <point x="1235" y="0" type="line"/>
      <point x="1235" y="724" type="line"/>
      <point x="1982" y="2048" type="line"/>
      <point x="1497" y="2048" type="line"/>
      <point x="1030" y="1166" type="line"/>
      <point x="1010" y="1166" type="line"/>
      <point x="543" y="2048" type="line"/>
    </contour>
  </outline>
</glyph>
<glyph name="Z" format="2">
  <advance width="1878"/>
  <unicode hex="005A"/>
  <guideline x="644" y="1030" angle="0.0"/>
  <guideline x="1082" y="1585" angle="55.0453"/>
  <outline>
    <contour>
      <point x="156" y="0" type="line"/>
      <point x="1724" y="0" type="line"/>
      <point x="1724" y="357" type="line"/>
      <point x="699" y="357" type="line"/>
      <point x="1722" y="1791" type="line"/>
      <point x="1722" y="2048" type="line"/>
      <point x="154" y="2048" type="line"/>
      <point x="154" y="1691" type="line"/>
      <point x="1178" y="1691" type="line"/>
      <point x="156" y="257" type="line"/>
    </contour>
  </outline>
</glyph>
<glyph name="bracketleft" format="2">
  <advance width="1152"/>
  <unicode hex="005B"/>
  <outline>
    <contour>
      <point x="298" y="-445" type="line"/>
      <point x="1087" y="-445" type="line"/>
      <point x="1087" y="-126" type="line"/>
      <point x="710" y="-126" type="line"/>
      <point x="710" y="1768" type="line"/>
      <point x="1087" y="1768" type="line"/>
      <point x="1087" y="2086" type="line"/>
      <point x="298" y="2086" type="line"/>
    </contour>
  </outline>
</glyph>
<glyph name="backslash" format="2">
  <advance width="1200"/>
  <unicode hex="005C"/>
  <outline>
    <contour>
      <point x="105" y="2048" type="line"/>
      <point x="718" y="-308" type="line"/>
      <point x="1091" y="-308" type="line"/>
      <point x="478" y="2048" type="line"/>
    </contour>
  </outline>
</glyph>
<glyph name="asciicircum" format="2">
  <advance width="1373"/>
  <unicode hex="005E"/>
  <outline>
    <contour>
      <point x="650" y="1826" type="line"/>
      <point x="650" y="1717" type="line"/>
      <point x="722" y="1717" type="line"/>
      <point x="722" y="1826" type="line"/>
    </contour>
    <contour>
      <point x="93" y="1120" type="line"/>
      <point x="417" y="1120" type="line"/>
      <point x="696" y="1757" type="line"/>
      <point x="677" y="1757" type="line"/>
      <point x="958" y="1120" type="line"/>
      <point x="1280" y="1120" type="line"/>
      <point x="858" y="2003" type="line"/>
      <point x="514" y="2003" type="line"/>
    </contour>
  </outline>
</glyph>
<glyph name="grave" format="2">
  <advance width="1400"/>
  <unicode hex="0060"/>
  <note>
mirrored version of acute
</note>
  <outline>
    <contour>
      <point x="702" y="1734" type="line"/>
      <point x="1003" y="1734" type="line"/>
      <point x="790" y="2189" type="line"/>
      <point x="397" y="2189" type="line"/>
    </contour>
  </outline>
</glyph>
<glyph name="a" format="2">
  <advance width="1634"/>
  <unicode hex="0061"/>
  <guideline x="307" y="1832" angle="0.0"/>
  <outline>
    <contour>
      <point x="608" y="-29" type="curve" smooth="yes"/>
      <point x="835" y="-29"/>
      <point x="982" y="70"/>
      <point x="1057" y="213" type="curve"/>
      <point x="1069" y="213" type="line"/>
      <point x="1069" y="0" type="line"/>
      <point x="1473" y="0" type="line"/>
      <point x="1473" y="1036" type="line" smooth="yes"/>
      <point x="1473" y="1402"/>
      <point x="1163" y="1556"/>
      <point x="821" y="1556" type="curve" smooth="yes"/>
      <point x="453" y="1556"/>
      <point x="211" y="1380"/>
      <point x="152" y="1100" type="curve"/>
      <point x="546" y="1068" type="line"/>
      <point x="575" y="1170"/>
      <point x="666" y="1245"/>
      <point x="819" y="1245" type="curve" smooth="yes"/>
      <point x="964" y="1245"/>
      <point x="1047" y="1172"/>
      <point x="1047" y="1046" type="curve" smooth="yes"/>
      <point x="1047" y="1040" type="line" smooth="yes"/>
      <point x="1047" y="941"/>
      <point x="942" y="928"/>
      <point x="675" y="902" type="curve" smooth="yes"/>
      <point x="371" y="874"/>
      <point x="98" y="772"/>
      <point x="98" y="429" type="curve" smooth="yes"/>
      <point x="98" y="125"/>
      <point x="315" y="-29"/>
    </contour>
    <contour>
      <point x="730" y="265" type="curve" smooth="yes"/>
      <point x="599" y="265"/>
      <point x="505" y="326"/>
      <point x="505" y="443" type="curve" smooth="yes"/>
      <point x="505" y="563"/>
      <point x="604" y="622"/>
      <point x="754" y="643" type="curve" smooth="yes"/>
      <point x="847" y="656"/>
      <point x="999" y="678"/>
      <point x="1050" y="712" type="curve"/>
      <point x="1050" y="549" type="line" smooth="yes"/>
      <point x="1050" y="388"/>
      <point x="917" y="265"/>
    </contour>
  </outline>
</glyph>
<glyph name="b" format="2">
  <advance width="1789"/>
  <unicode hex="0062"/>
  <note>
top anchor should match top anchor of i
</note>
  <guideline x="833" y="144" angle="0.0"/>
  <outline>
    <contour>
      <point x="178" y="0" type="line"/>
      <point x="598" y="0" type="line"/>
      <point x="598" y="246" type="line"/>
      <point x="617" y="246" type="line"/>
      <point x="676" y="118"/>
      <point x="805" y="-25"/>
      <point x="1053" y="-25" type="curve" smooth="yes"/>
      <point x="1403" y="-25"/>
      <point x="1676" y="252"/>
      <point x="1676" y="766" type="curve" smooth="yes"/>
      <point x="1676" y="1294"/>
      <point x="1391" y="1556"/>
      <point x="1054" y="1556" type="curve" smooth="yes"/>
      <point x="797" y="1556"/>
      <point x="674" y="1403"/>
      <point x="617" y="1278" type="curve"/>
      <point x="604" y="1278" type="line"/>
      <point x="604" y="2048" type="line"/>
      <point x="178" y="2048" type="line"/>
    </contour>
    <contour>
      <point x="595" y="768" type="curve" smooth="yes"/>
      <point x="595" y="1042"/>
      <point x="711" y="1217"/>
      <point x="918" y="1217" type="curve" smooth="yes"/>
      <point x="1129" y="1217"/>
      <point x="1241" y="1034"/>
      <point x="1241" y="768" type="curve" smooth="yes"/>
      <point x="1241" y="500"/>
      <point x="1127" y="314"/>
      <point x="918" y="314" type="curve" smooth="yes"/>
      <point x="713" y="314"/>
      <point x="595" y="494"/>
    </contour>
  </outline>
</glyph>
<glyph name="c" format="2">
  <advance width="1654"/>
  <unicode hex="0063"/>
  <guideline x="983" y="1126" angle="0.0"/>
  <outline>
    <contour>
      <point x="864" y="-30" type="curve" smooth="yes"/>
      <point x="1273" y="-30"/>
      <point x="1530" y="210"/>
      <point x="1550" y="563" type="curve"/>
      <point x="1148" y="563" type="line"/>
      <point x="1123" y="399"/>
      <point x="1015" y="307"/>
      <point x="869" y="307" type="curve" smooth="yes"/>
      <point x="670" y="307"/>
      <point x="541" y="474"/>
      <point x="541" y="768" type="curve" smooth="yes"/>
      <point x="541" y="1058"/>
      <point x="671" y="1224"/>
      <point x="869" y="1224" type="curve" smooth="yes"/>
      <point x="1025" y="1224"/>
      <point x="1125" y="1121"/>
      <point x="1148" y="968" type="curve"/>
      <point x="1550" y="968" type="line"/>
      <point x="1532" y="1323"/>
      <point x="1263" y="1556"/>
      <point x="862" y="1556" type="curve" smooth="yes"/>
      <point x="396" y="1556"/>
      <point x="108" y="1233"/>
      <point x="108" y="762" type="curve" smooth="yes"/>
      <point x="108" y="295"/>
      <point x="391" y="-30"/>
    </contour>
  </outline>
</glyph>
<glyph name="d" format="2">
  <advance width="1789"/>
  <unicode hex="0064"/>
  <outline>
    <contour>
      <point x="736" y="-25" type="curve" smooth="yes"/>
      <point x="984" y="-25"/>
      <point x="1113" y="118"/>
      <point x="1172" y="246" type="curve"/>
      <point x="1190" y="246" type="line"/>
      <point x="1190" y="0" type="line"/>
      <point x="1610" y="0" type="line"/>
      <point x="1610" y="2048" type="line"/>
      <point x="1185" y="2048" type="line"/>
      <point x="1185" y="1278" type="line"/>
      <point x="1172" y="1278" type="line"/>
      <point x="1115" y="1403"/>
      <point x="992" y="1556"/>
      <point x="735" y="1556" type="curve" smooth="yes"/>
      <point x="398" y="1556"/>
      <point x="113" y="1294"/>
      <point x="113" y="766" type="curve" smooth="yes"/>
      <point x="113" y="252"/>
      <point x="386" y="-25"/>
    </contour>
    <contour>
      <point x="871" y="314" type="curve" smooth="yes"/>
      <point x="662" y="314"/>
      <point x="548" y="500"/>
      <point x="548" y="768" type="curve" smooth="yes"/>
      <point x="548" y="1034"/>
      <point x="660" y="1217"/>
      <point x="871" y="1217" type="curve" smooth="yes"/>
      <point x="1078" y="1217"/>
      <point x="1194" y="1042"/>
      <point x="1194" y="768" type="curve" smooth="yes"/>
      <point x="1194" y="494"/>
      <point x="1076" y="314"/>
    </contour>
  </outline>
</glyph>
<glyph name="e" format="2">
  <advance width="1683"/>
  <unicode hex="0065"/>
  <outline>
    <contour>
      <point x="870" y="-30" type="curve" smooth="yes"/>
      <point x="1250" y="-30"/>
      <point x="1506" y="155"/>
      <point x="1566" y="440" type="curve"/>
      <point x="1172" y="466" type="line"/>
      <point x="1129" y="349"/>
      <point x="1019" y="288"/>
      <point x="877" y="288" type="curve" smooth="yes"/>
      <point x="664" y="288"/>
      <point x="529" y="429"/>
      <point x="529" y="658" type="curve" smooth="yes"/>
      <point x="529" y="909" type="line" smooth="yes"/>
      <point x="531" y="1090"/>
      <point x="666" y="1238"/>
      <point x="860" y="1238" type="curve" smooth="yes"/>
      <point x="1045" y="1238"/>
      <point x="1173" y="1106"/>
      <point x="1174" y="923" type="curve"/>
      <point x="278" y="923" type="line"/>
      <point x="278" y="659" type="line"/>
      <point x="1575" y="659" type="line"/>
      <point x="1575" y="776" type="line" smooth="yes"/>
      <point x="1575" y="1298"/>
      <point x="1259" y="1556"/>
      <point x="853" y="1556" type="curve" smooth="yes"/>
      <point x="401" y="1556"/>
      <point x="108" y="1235"/>
      <point x="108" y="761" type="curve" smooth="yes"/>
      <point x="108" y="274"/>
      <point x="397" y="-30"/>
    </contour>
  </outline>
</glyph>
<glyph name="f" format="2">
  <advance width="1086"/>
  <unicode hex="0066"/>
  <outline>
    <contour>
      <point x="996" y="1536" type="line"/>
      <point x="48" y="1536" type="line"/>
      <point x="48" y="1216" type="line"/>
      <point x="996" y="1216" type="line"/>
    </contour>
    <component base="_part.f_base" xOffset="-14"/>
  </outline>
</glyph>
<glyph name="g" format="2">
  <advance width="1783"/>
  <unicode hex="0067"/>
  <outline>
    <contour>
      <point x="862" y="-598" type="curve" smooth="yes"/>
      <point x="1301" y="-598"/>
      <point x="1613" y="-398"/>
      <point x="1613" y="-15" type="curve" smooth="yes"/>
      <point x="1613" y="1536" type="line"/>
      <point x="1190" y="1536" type="line"/>
      <point x="1190" y="1278" type="line"/>
      <point x="1174" y="1278" type="line"/>
      <point x="1117" y="1403"/>
      <point x="992" y="1556"/>
      <point x="735" y="1556" type="curve" smooth="yes"/>
      <point x="398" y="1556"/>
      <point x="113" y="1294"/>
      <point x="113" y="771" type="curve" smooth="yes"/>
      <point x="113" y="260"/>
      <point x="390" y="22"/>
      <point x="736" y="22" type="curve" smooth="yes"/>
      <point x="981" y="22"/>
      <point x="1118" y="145"/>
      <point x="1174" y="272" type="curve"/>
      <point x="1192" y="272" type="line"/>
      <point x="1192" y="-9" type="line" smooth="yes"/>
      <point x="1192" y="-210"/>
      <point x="1057" y="-292"/>
      <point x="872" y="-292" type="curve" smooth="yes"/>
      <point x="684" y="-292"/>
      <point x="589" y="-210"/>
      <point x="554" y="-127" type="curve"/>
      <point x="160" y="-180" type="line"/>
      <point x="211" y="-412"/>
      <point x="448" y="-598"/>
    </contour>
    <contour>
      <point x="871" y="342" type="curve" smooth="yes"/>
      <point x="662" y="342"/>
      <point x="548" y="508"/>
      <point x="548" y="773" type="curve" smooth="yes"/>
      <point x="548" y="1034"/>
      <point x="660" y="1217"/>
      <point x="871" y="1217" type="curve" smooth="yes"/>
      <point x="1078" y="1217"/>
      <point x="1194" y="1042"/>
      <point x="1194" y="773" type="curve" smooth="yes"/>
      <point x="1194" y="502"/>
      <point x="1076" y="342"/>
    </contour>
  </outline>
</glyph>
<glyph name="h" format="2">
  <advance width="1758"/>
  <unicode hex="0068"/>
  <note>
based on "n" and made slightly wider, brining the top vertical stem with it out.
</note>
  <guideline x="142" y="1488" angle="0.0"/>
  <outline>
    <contour>
      <point x="596" y="888" type="line" smooth="yes"/>
      <point x="597" y="1086"/>
      <point x="718" y="1202"/>
      <point x="892" y="1202" type="curve" smooth="yes"/>
      <point x="1065" y="1202"/>
      <point x="1167" y="1091"/>
      <point x="1166" y="902" type="curve" smooth="yes"/>
      <point x="1166" y="0" type="line"/>
      <point x="1592" y="0" type="line"/>
      <point x="1592" y="978" type="line" smooth="yes"/>
      <point x="1593" y="1338"/>
      <point x="1381" y="1556"/>
      <point x="1061" y="1556" type="curve" smooth="yes"/>
      <point x="828" y="1556"/>
      <point x="672" y="1446"/>
      <point x="602" y="1265" type="curve"/>
      <point x="584" y="1265" type="line"/>
      <point x="584" y="2048" type="line"/>
      <point x="170" y="2048" type="line"/>
      <point x="170" y="0" type="line"/>
      <point x="596" y="0" type="line"/>
    </contour>
  </outline>
</glyph>
<glyph name="k" format="2">
  <advance width="1638"/>
  <unicode hex="006B"/>
  <guideline x="384" y="1920" angle="90.0"/>
  <outline>
    <contour>
      <point x="556" y="442" type="line"/>
      <point x="838" y="764" type="line"/>
      <point x="939" y="764" type="line"/>
      <point x="1600" y="1536" type="line"/>
      <point x="1111" y="1536" type="line"/>
      <point x="619" y="953" type="line"/>
      <point x="557" y="953" type="line"/>
    </contour>
    <contour>
      <point x="170" y="0" type="line"/>
      <point x="596" y="0" type="line"/>
      <point x="596" y="2048" type="line"/>
      <point x="170" y="2048" type="line"/>
    </contour>
    <contour>
      <point x="1130" y="0" type="line"/>
      <point x="1629" y="0" type="line"/>
      <point x="962" y="970" type="line"/>
      <point x="678" y="669" type="line"/>
    </contour>
  </outline>
</glyph>
<glyph name="m" format="2">
  <advance width="2568"/>
  <unicode hex="006D"/>
  <outline>
    <contour>
      <point x="170" y="0" type="line"/>
      <point x="596" y="0" type="line"/>
      <point x="596" y="922" type="line" smooth="yes"/>
      <point x="596" y="1092"/>
      <point x="704" y="1205"/>
      <point x="846" y="1205" type="curve" smooth="yes"/>
      <point x="986" y="1205"/>
      <point x="1080" y="1109"/>
      <point x="1080" y="958" type="curve" smooth="yes"/>
      <point x="1080" y="0" type="line"/>
      <point x="1493" y="0" type="line"/>
      <point x="1493" y="938" type="line" smooth="yes"/>
      <point x="1493" y="1097"/>
      <point x="1584" y="1205"/>
      <point x="1739" y="1205" type="curve" smooth="yes"/>
      <point x="1875" y="1205"/>
      <point x="1977" y="1120"/>
      <point x="1977" y="949" type="curve" smooth="yes"/>
      <point x="1977" y="0" type="line"/>
      <point x="2402" y="0" type="line"/>
      <point x="2402" y="1033" type="line" smooth="yes"/>
      <point x="2402" y="1366"/>
      <point x="2204" y="1556"/>
      <point x="1918" y="1556" type="curve" smooth="yes"/>
      <point x="1693" y="1556"/>
      <point x="1518" y="1441"/>
      <point x="1455" y="1265" type="curve"/>
      <point x="1439" y="1265" type="line"/>
      <point x="1390" y="1443"/>
      <point x="1233" y="1556"/>
      <point x="1022" y="1556" type="curve" smooth="yes"/>
      <point x="815" y="1556"/>
      <point x="658" y="1446"/>
      <point x="594" y="1265" type="curve"/>
      <point x="576" y="1265" type="line"/>
      <point x="576" y="1536" type="line"/>
      <point x="170" y="1536" type="line"/>
    </contour>
  </outline>
</glyph>
<glyph name="n" format="2">
  <advance width="1751"/>
  <unicode hex="006E"/>
  <outline>
    <contour>
      <point x="596" y="888" type="line" smooth="yes"/>
      <point x="597" y="1086"/>
      <point x="715" y="1202"/>
      <point x="887" y="1202" type="curve" smooth="yes"/>
      <point x="1058" y="1202"/>
      <point x="1161" y="1090"/>
      <point x="1160" y="902" type="curve" smooth="yes"/>
      <point x="1160" y="0" type="line"/>
      <point x="1586" y="0" type="line"/>
      <point x="1586" y="978" type="line" smooth="yes"/>
      <point x="1586" y="1336"/>
      <point x="1376" y="1556"/>
      <point x="1056" y="1556" type="curve" smooth="yes"/>
      <point x="828" y="1556"/>
      <point x="663" y="1444"/>
      <point x="594" y="1265" type="curve"/>
      <point x="576" y="1265" type="line"/>
      <point x="576" y="1536" type="line"/>
      <point x="170" y="1536" type="line"/>
      <point x="170" y="0" type="line"/>
      <point x="596" y="0" type="line"/>
    </contour>
  </outline>
</glyph>
<glyph name="o" format="2">
  <advance width="1728"/>
  <unicode hex="006F"/>
  <outline>
    <contour>
      <point x="864" y="-30" type="curve" smooth="yes"/>
      <point x="1330" y="-30"/>
      <point x="1620" y="289"/>
      <point x="1620" y="762" type="curve" smooth="yes"/>
      <point x="1620" y="1238"/>
      <point x="1330" y="1556"/>
      <point x="864" y="1556" type="curve" smooth="yes"/>
      <point x="398" y="1556"/>
      <point x="108" y="1238"/>
      <point x="108" y="762" type="curve" smooth="yes"/>
      <point x="108" y="289"/>
      <point x="398" y="-30"/>
    </contour>
    <contour>
      <point x="866" y="300" type="curve" smooth="yes"/>
      <point x="651" y="300"/>
      <point x="541" y="497"/>
      <point x="541" y="765" type="curve" smooth="yes"/>
      <point x="541" y="1033"/>
      <point x="651" y="1231"/>
      <point x="866" y="1231" type="curve" smooth="yes"/>
      <point x="1077" y="1231"/>
      <point x="1187" y="1033"/>
      <point x="1187" y="765" type="curve" smooth="yes"/>
      <point x="1187" y="497"/>
      <point x="1077" y="300"/>
    </contour>
  </outline>
</glyph>
<glyph name="p" format="2">
  <advance width="1781"/>
  <unicode hex="0070"/>
  <outline>
    <contour>
      <point x="170" y="-576" type="line"/>
      <point x="596" y="-576" type="line"/>
      <point x="596" y="246" type="line"/>
      <point x="609" y="246" type="line"/>
      <point x="668" y="118"/>
      <point x="797" y="-25"/>
      <point x="1045" y="-25" type="curve" smooth="yes"/>
      <point x="1395" y="-25"/>
      <point x="1668" y="252"/>
      <point x="1668" y="766" type="curve" smooth="yes"/>
      <point x="1668" y="1294"/>
      <point x="1383" y="1556"/>
      <point x="1046" y="1556" type="curve" smooth="yes"/>
      <point x="789" y="1556"/>
      <point x="666" y="1403"/>
      <point x="609" y="1278" type="curve"/>
      <point x="590" y="1278" type="line"/>
      <point x="590" y="1536" type="line"/>
      <point x="170" y="1536" type="line"/>
    </contour>
    <contour>
      <point x="587" y="768" type="curve" smooth="yes"/>
      <point x="587" y="1042"/>
      <point x="703" y="1217"/>
      <point x="910" y="1217" type="curve" smooth="yes"/>
      <point x="1121" y="1217"/>
      <point x="1233" y="1034"/>
      <point x="1233" y="768" type="curve" smooth="yes"/>
      <point x="1233" y="500"/>
      <point x="1119" y="314"/>
      <point x="910" y="314" type="curve" smooth="yes"/>
      <point x="705" y="314"/>
      <point x="587" y="494"/>
    </contour>
  </outline>
</glyph>
<glyph name="r" format="2">
  <advance width="1151"/>
  <unicode hex="0072"/>
  <outline>
    <contour>
      <point x="170" y="0" type="line"/>
      <point x="596" y="0" type="line"/>
      <point x="596" y="869" type="line" smooth="yes"/>
      <point x="596" y="1058"/>
      <point x="734" y="1188"/>
      <point x="922" y="1188" type="curve" smooth="yes"/>
      <point x="981" y="1188"/>
      <point x="1062" y="1178"/>
      <point x="1102" y="1165" type="curve"/>
      <point x="1102" y="1543" type="line"/>
      <point x="1064" y="1552"/>
      <point x="1011" y="1558"/>
      <point x="968" y="1558" type="curve" smooth="yes"/>
      <point x="796" y="1558"/>
      <point x="655" y="1458"/>
      <point x="599" y="1268" type="curve"/>
      <point x="583" y="1268" type="line"/>
      <point x="583" y="1536" type="line"/>
      <point x="170" y="1536" type="line"/>
    </contour>
  </outline>
</glyph>
<glyph name="s" format="2">
  <advance width="1582"/>
  <unicode hex="0073"/>
  <guideline x="298" y="1499" angle="0.0"/>
  <outline>
    <contour>
      <point x="1448" y="1098" type="line"/>
      <point x="1410" y="1381"/>
      <point x="1182" y="1556"/>
      <point x="794" y="1556" type="curve" smooth="yes"/>
      <point x="401" y="1556"/>
      <point x="142" y="1374"/>
      <point x="143" y="1078" type="curve" smooth="yes"/>
      <point x="142" y="848"/>
      <point x="287" y="699"/>
      <point x="587" y="639" type="curve" smooth="yes"/>
      <point x="853" y="586" type="line" smooth="yes"/>
      <point x="987" y="559"/>
      <point x="1048" y="510"/>
      <point x="1050" y="433" type="curve" smooth="yes"/>
      <point x="1048" y="342"/>
      <point x="949" y="277"/>
      <point x="800" y="277" type="curve" smooth="yes"/>
      <point x="648" y="277"/>
      <point x="547" y="342"/>
      <point x="521" y="467" type="curve"/>
      <point x="102" y="445" type="line"/>
      <point x="142" y="151"/>
      <point x="392" y="-30"/>
      <point x="799" y="-30" type="curve" smooth="yes"/>
      <point x="1197" y="-30"/>
      <point x="1482" y="173"/>
      <point x="1483" y="476" type="curve" smooth="yes"/>
      <point x="1482" y="698"/>
      <point x="1337" y="831"/>
      <point x="1039" y="892" type="curve" smooth="yes"/>
      <point x="761" y="948" type="line" smooth="yes"/>
      <point x="618" y="979"/>
      <point x="565" y="1028"/>
      <point x="566" y="1102" type="curve" smooth="yes"/>
      <point x="565" y="1194"/>
      <point x="669" y="1254"/>
      <point x="801" y="1254" type="curve" smooth="yes"/>
      <point x="949" y="1254"/>
      <point x="1037" y="1173"/>
      <point x="1058" y="1074" type="curve"/>
    </contour>
  </outline>
</glyph>
<glyph name="t" format="2">
  <advance width="1094"/>
  <unicode hex="0074"/>
  <guideline x="660" y="1978" angle="90.0"/>
  <outline>
    <contour>
      <point x="987" y="1536" type="line"/>
      <point x="62" y="1536" type="line"/>
      <point x="62" y="1216" type="line"/>
      <point x="987" y="1216" type="line"/>
    </contour>
    <component base="_part.t_base"/>
  </outline>
</glyph>
<glyph name="u" format="2">
  <advance width="1751"/>
  <unicode hex="0075"/>
  <outline>
    <contour>
      <point x="1155" y="654" type="line" smooth="yes"/>
      <point x="1156" y="448"/>
      <point x="1015" y="340"/>
      <point x="862" y="340" type="curve" smooth="yes"/>
      <point x="701" y="340"/>
      <point x="597" y="453"/>
      <point x="596" y="634" type="curve" smooth="yes"/>
      <point x="596" y="1536" type="line"/>
      <point x="170" y="1536" type="line"/>
      <point x="170" y="558" type="line" smooth="yes"/>
      <point x="171" y="199"/>
      <point x="381" y="-20"/>
      <point x="690" y="-20" type="curve" smooth="yes"/>
      <point x="921" y="-20"/>
      <point x="1087" y="99"/>
      <point x="1156" y="279" type="curve"/>
      <point x="1172" y="279" type="line"/>
      <point x="1172" y="0" type="line"/>
      <point x="1581" y="0" type="line"/>
      <point x="1581" y="1536" type="line"/>
      <point x="1155" y="1536" type="line"/>
    </contour>
  </outline>
</glyph>
<glyph name="v" format="2">
  <advance width="1650"/>
  <unicode hex="0076"/>
  <outline>
    <contour>
      <point x="1602" y="1536" type="line"/>
      <point x="1151" y="1536" type="line"/>
      <point x="833" y="437" type="line"/>
      <point x="817" y="437" type="line"/>
      <point x="498" y="1536" type="line"/>
      <point x="48" y="1536" type="line"/>
      <point x="585" y="0" type="line"/>
      <point x="1065" y="0" type="line"/>
    </contour>
  </outline>
</glyph>
<glyph name="w" format="2">
  <advance width="2394"/>
  <unicode hex="0077"/>
  <outline>
    <contour>
      <point x="473" y="0" type="line"/>
      <point x="923" y="0" type="line"/>
      <point x="1187" y="966" type="line"/>
      <point x="1206" y="966" type="line"/>
      <point x="1470" y="0" type="line"/>
      <point x="1921" y="0" type="line"/>
      <point x="2338" y="1536" type="line"/>
      <point x="1908" y="1536" type="line"/>
      <point x="1674" y="510" type="line"/>
      <point x="1661" y="510" type="line"/>
      <point x="1409" y="1536" type="line"/>
      <point x="986" y="1536" type="line"/>
      <point x="738" y="504" type="line"/>
      <point x="724" y="504" type="line"/>
      <point x="486" y="1536" type="line"/>
      <point x="55" y="1536" type="line"/>
    </contour>
  </outline>
</glyph>
<glyph name="x" format="2">
  <advance width="1616"/>
  <unicode hex="0078"/>
  <outline>
    <contour>
      <point x="526" y="1536" type="line"/>
      <point x="86" y="1536" type="line"/>
      <point x="526" y="768" type="line"/>
      <point x="70" y="0" type="line"/>
      <point x="510" y="0" type="line"/>
      <point x="808" y="531" type="line"/>
      <point x="1111" y="0" type="line"/>
      <point x="1546" y="0" type="line"/>
      <point x="1089" y="768" type="line"/>
      <point x="1534" y="1536" type="line"/>
      <point x="1097" y="1536" type="line"/>
      <point x="808" y="999" type="line"/>
    </contour>
  </outline>
</glyph>
<glyph name="y" format="2">
  <advance width="1650"/>
  <unicode hex="0079"/>
  <outline>
    <contour>
      <point x="433" y="-573" type="curve" smooth="yes"/>
      <point x="750" y="-573"/>
      <point x="919" y="-412"/>
      <point x="1005" y="-166" type="curve" smooth="yes"/>
      <point x="1602" y="1534" type="line"/>
      <point x="1151" y="1536" type="line"/>
      <point x="830" y="408" type="line"/>
      <point x="814" y="408" type="line"/>
      <point x="496" y="1536" type="line"/>
      <point x="48" y="1536" type="line"/>
      <point x="599" y="-44" type="line"/>
      <point x="574" y="-109" type="line" smooth="yes"/>
      <point x="514" y="-248"/>
      <point x="411" y="-258"/>
      <point x="261" y="-211" type="curve"/>
      <point x="165" y="-530" type="line"/>
      <point x="226" y="-555"/>
      <point x="325" y="-573"/>
    </contour>
  </outline>
</glyph>
<glyph name="z" format="2">
  <advance width="1610"/>
  <unicode hex="007A"/>
  <guideline x="1206" y="642" angle="51.57190000000003"/>
  <guideline x="971" y="442" angle="90.0"/>
  <outline>
    <contour>
      <point x="162" y="0" type="line"/>
      <point x="1453" y="0" type="line"/>
      <point x="1453" y="340" type="line"/>
      <point x="721" y="340" type="line"/>
      <point x="721" y="351" type="line"/>
      <point x="1427" y="1259" type="line"/>
      <point x="1427" y="1536" type="line"/>
      <point x="188" y="1536" type="line"/>
      <point x="188" y="1196" type="line"/>
      <point x="914" y="1196" type="line"/>
      <point x="914" y="1185" type="line"/>
      <point x="162" y="254" type="line"/>
    </contour>
  </outline>
</glyph>
<glyph name="braceleft" format="2">
  <advance width="1152"/>
  <unicode hex="007B"/>
  <guideline x="748" y="1333" angle="0.0"/>
  <guideline x="750" y="-445" angle="0.0"/>
  <outline>
    <contour>
      <point x="87" y="812" type="line"/>
      <point x="687" y="812"/>
      <point x="802" y="988"/>
      <point x="802" y="1191" type="curve" smooth="yes"/>
      <point x="802" y="1483" type="line" smooth="yes"/>
      <point x="802" y="1677"/>
      <point x="850" y="1768"/>
      <point x="1087" y="1768" type="curve"/>
      <point x="1087" y="2086" type="line"/>
      <point x="683" y="2086"/>
      <point x="394" y="2019"/>
      <point x="394" y="1526" type="curve" smooth="yes"/>
      <point x="394" y="1305" type="line" smooth="yes"/>
      <point x="394" y="1100"/>
      <point x="317" y="1013"/>
      <point x="87" y="1013" type="curve"/>
    </contour>
    <contour>
      <point x="1087" y="-445" type="curve"/>
      <point x="1087" y="-126" type="line"/>
      <point x="850" y="-126"/>
      <point x="802" y="-35"/>
      <point x="802" y="158" type="curve" smooth="yes"/>
      <point x="802" y="450" type="line" smooth="yes"/>
      <point x="802" y="654"/>
      <point x="687" y="830"/>
      <point x="87" y="830" type="curve"/>
      <point x="87" y="629" type="line"/>
      <point x="317" y="629"/>
      <point x="394" y="542"/>
      <point x="394" y="337" type="curve" smooth="yes"/>
      <point x="394" y="115" type="line" smooth="yes"/>
      <point x="394" y="-378"/>
      <point x="683" y="-445"/>
    </contour>
    <contour>
      <point x="87" y="629" type="line"/>
      <point x="446" y="629" type="line"/>
      <point x="446" y="1013" type="line"/>
      <point x="87" y="1013" type="line"/>
    </contour>
  </outline>
</glyph>
<glyph name="asciitilde" format="2">
  <advance width="1914"/>
  <unicode hex="007E"/>
  <guideline x="616" y="824" angle="320.0"/>
  <outline>
    <contour>
      <point x="215" y="553" type="curve"/>
      <point x="542" y="553" type="line"/>
      <point x="538" y="719"/>
      <point x="608" y="785"/>
      <point x="702" y="785" type="curve" smooth="yes"/>
      <point x="770" y="785"/>
      <point x="806" y="754"/>
      <point x="889" y="681" type="curve" smooth="yes"/>
      <point x="1029" y="558"/>
      <point x="1134" y="506"/>
      <point x="1266" y="506" type="curve" smooth="yes"/>
      <point x="1531" y="506"/>
      <point x="1712" y="715"/>
      <point x="1698" y="1094" type="curve"/>
      <point x="1372" y="1094" type="line"/>
      <point x="1376" y="933"/>
      <point x="1306" y="862"/>
      <point x="1212" y="862" type="curve" smooth="yes"/>
      <point x="1142" y="862"/>
      <point x="1099" y="899"/>
      <point x="1022" y="966" type="curve" smooth="yes"/>
      <point x="876" y="1095"/>
      <point x="773" y="1140"/>
      <point x="647" y="1140" type="curve" smooth="yes"/>
      <point x="376" y="1140"/>
      <point x="203" y="932"/>
    </contour>
  </outline>
</glyph>
<glyph name="sterling" format="2">
  <advance width="1891"/>
  <unicode hex="00A3"/>
  <outline>
    <contour>
      <point x="1686" y="0" type="line"/>
      <point x="1686" y="357" type="line"/>
      <point x="198" y="357" type="line"/>
      <point x="198" y="0" type="line"/>
    </contour>
    <contour>
      <point x="1290" y="815" type="line"/>
      <point x="1290" y="1156" type="line"/>
      <point x="193" y="1156" type="line"/>
      <point x="193" y="815" type="line"/>
    </contour>
    <contour>
      <point x="828" y="1469" type="line" smooth="yes"/>
      <point x="827" y="1645"/>
      <point x="924" y="1729"/>
      <point x="1050" y="1729" type="curve" smooth="yes"/>
      <point x="1179" y="1729"/>
      <point x="1290" y="1666"/>
      <point x="1285" y="1496" type="curve"/>
      <point x="1690" y="1485" type="line"/>
      <point x="1704" y="1830"/>
      <point x="1460" y="2076"/>
      <point x="1043" y="2076" type="curve" smooth="yes"/>
      <point x="670" y="2076"/>
      <point x="387" y="1859"/>
      <point x="402" y="1469" type="curve" smooth="yes"/>
      <point x="432" y="594" type="line" smooth="yes"/>
      <point x="435" y="488"/>
      <point x="416" y="376"/>
      <point x="329" y="357" type="curve"/>
      <point x="601" y="234" type="line"/>
      <point x="794" y="319"/>
      <point x="867" y="435"/>
      <point x="860" y="618" type="curve" smooth="yes"/>
    </contour>
  </outline>
</glyph>
<glyph name="currency" format="2">
  <advance width="2154"/>
  <unicode hex="00A4"/>
  <outline>
    <contour>
      <point x="1077" y="-28" type="curve" smooth="yes"/>
      <point x="1537" y="-28"/>
      <point x="1917" y="348"/>
      <point x="1918" y="836" type="curve" smooth="yes"/>
      <point x="1917" y="1324"/>
      <point x="1537" y="1696"/>
      <point x="1077" y="1696" type="curve" smooth="yes"/>
      <point x="612" y="1696"/>
      <point x="233" y="1324"/>
      <point x="234" y="836" type="curve"/>
      <point x="233" y="348"/>
      <point x="612" y="-28"/>
    </contour>
    <contour>
      <point x="1077" y="233" type="curve" smooth="yes"/>
      <point x="748" y="233"/>
      <point x="489" y="498"/>
      <point x="490" y="836" type="curve"/>
      <point x="489" y="1178"/>
      <point x="748" y="1439"/>
      <point x="1077" y="1439" type="curve" smooth="yes"/>
      <point x="1399" y="1439"/>
      <point x="1660" y="1178"/>
      <point x="1662" y="836" type="curve" smooth="yes"/>
      <point x="1660" y="498"/>
      <point x="1399" y="233"/>
    </contour>
    <contour>
      <point x="1686" y="1258" type="line"/>
      <point x="1973" y="1542" type="line"/>
      <point x="1778" y="1738" type="line"/>
      <point x="1494" y="1454" type="line"/>
    </contour>
    <contour>
      <point x="1778" y="-34" type="line"/>
      <point x="1973" y="162" type="line"/>
      <point x="1686" y="442" type="line"/>
      <point x="1494" y="250" type="line"/>
    </contour>
    <contour>
      <point x="379" y="-34" type="line"/>
      <point x="666" y="250" type="line"/>
      <point x="471" y="442" type="line"/>
      <point x="188" y="162" type="line"/>
    </contour>
    <contour>
      <point x="471" y="1258" type="line"/>
      <point x="666" y="1454" type="line"/>
      <point x="379" y="1738" type="line"/>
      <point x="188" y="1542" type="line"/>
    </contour>
  </outline>
</glyph>
<glyph name="yen" format="2">
  <advance width="1611"/>
  <unicode hex="00A5"/>
  <note>
line up with uni20BD
</note>
  <outline>
    <contour>
      <point x="484" y="2048" type="line"/>
      <point x="40" y="2048" type="line"/>
      <point x="614" y="794" type="line"/>
      <point x="907" y="1016" type="line"/>
    </contour>
    <contour>
      <point x="709" y="1026" type="line"/>
      <point x="994" y="794" type="line"/>
      <point x="1571" y="2048" type="line"/>
      <point x="1127" y="2048" type="line"/>
    </contour>
    <contour>
      <point x="1014" y="1078" type="line"/>
      <point x="586" y="1078" type="line"/>
      <point x="586" y="0" type="line"/>
      <point x="1014" y="0" type="line"/>
    </contour>
    <contour>
      <point x="1418" y="1056" type="line"/>
      <point x="150" y="1056" type="line"/>
      <point x="150" y="809" type="line"/>
      <point x="1418" y="809" type="line"/>
    </contour>
    <contour>
      <point x="1418" y="660" type="line"/>
      <point x="150" y="660" type="line"/>
      <point x="150" y="413" type="line"/>
      <point x="1418" y="413" type="line"/>
    </contour>
  </outline>
</glyph>
<glyph name="brokenbar" format="2">
  <advance width="971"/>
  <unicode hex="00A6"/>
  <outline>
    <contour>
      <point x="295" y="571" type="line"/>
      <point x="295" y="-384" type="line"/>
      <point x="676" y="-384" type="line"/>
      <point x="676" y="571" type="line"/>
    </contour>
    <contour>
      <point x="676" y="2048" type="line"/>
      <point x="295" y="2048" type="line"/>
      <point x="295" y="1097" type="line"/>
      <point x="676" y="1097" type="line"/>
    </contour>
  </outline>
</glyph>
<glyph name="section" format="2">
  <advance width="1670"/>
  <unicode hex="00A7"/>
  <note>
composed of "S" scaled down with RMX Tuner in temporary duplicate file
</note>
  <outline>
    <contour>
      <point x="1404" y="1540" type="line"/>
      <point x="1403" y="1850"/>
      <point x="1171" y="2076"/>
      <point x="820" y="2076" type="curve" smooth="yes"/>
      <point x="483" y="2076"/>
      <point x="245" y="1865"/>
      <point x="246" y="1578" type="curve" smooth="yes"/>
      <point x="245" y="1424"/>
      <point x="313" y="1306"/>
      <point x="414" y="1207" type="curve"/>
      <point x="414" y="1204" type="line"/>
      <point x="312" y="1175"/>
      <point x="175" y="1092"/>
      <point x="161" y="924" type="curve" smooth="yes"/>
      <point x="136" y="630"/>
      <point x="370" y="506"/>
      <point x="479" y="458" type="curve" smooth="yes"/>
      <point x="862" y="285" type="line" smooth="yes"/>
      <point x="936" y="248"/>
      <point x="1047" y="190"/>
      <point x="1047" y="86" type="curve" smooth="yes"/>
      <point x="1047" y="-12"/>
      <point x="941" y="-53"/>
      <point x="839" y="-55" type="curve" smooth="yes"/>
      <point x="683" y="-62"/>
      <point x="587" y="10"/>
      <point x="587" y="136" type="curve"/>
      <point x="211" y="136" type="line"/>
      <point x="211" y="-198"/>
      <point x="465" y="-414"/>
      <point x="834" y="-414" type="curve" smooth="yes"/>
      <point x="1170" y="-414"/>
      <point x="1426" y="-230"/>
      <point x="1426" y="86" type="curve" smooth="yes"/>
      <point x="1426" y="238"/>
      <point x="1367" y="359"/>
      <point x="1255" y="458" type="curve"/>
      <point x="1260" y="462" type="line"/>
      <point x="1349" y="488"/>
      <point x="1496" y="573"/>
      <point x="1511" y="740" type="curve" smooth="yes"/>
      <point x="1537" y="1031"/>
      <point x="1301" y="1154"/>
      <point x="1195" y="1202" type="curve" smooth="yes"/>
      <point x="812" y="1379" type="line" smooth="yes"/>
      <point x="732" y="1411"/>
      <point x="622" y="1482"/>
      <point x="622" y="1578" type="curve" smooth="yes"/>
      <point x="622" y="1674"/>
      <point x="714" y="1720"/>
      <point x="820" y="1720" type="curve" smooth="yes"/>
      <point x="959" y="1720"/>
      <point x="1029" y="1642"/>
      <point x="1030" y="1540" type="curve"/>
    </contour>
    <contour>
      <point x="1162" y="718" type="curve" smooth="yes"/>
      <point x="1151" y="634"/>
      <point x="1067" y="586"/>
      <point x="1005" y="614" type="curve"/>
      <point x="671" y="763" type="line" smooth="yes"/>
      <point x="559" y="811"/>
      <point x="498" y="875"/>
      <point x="508" y="946" type="curve" smooth="yes"/>
      <point x="517" y="1030"/>
      <point x="594" y="1083"/>
      <point x="666" y="1050" type="curve"/>
      <point x="1000" y="899" type="line" smooth="yes"/>
      <point x="1115" y="850"/>
      <point x="1171" y="786"/>
    </contour>
  </outline>
</glyph>
<glyph name="dieresis" format="2">
  <advance width="1506"/>
  <unicode hex="00A8"/>
  <guideline x="552" y="1929" angle="90.0"/>
  <outline>
    <contour>
      <point x="448" y="1746" type="curve" smooth="yes"/>
      <point x="564" y="1746"/>
      <point x="656" y="1839"/>
      <point x="656" y="1950" type="curve" smooth="yes"/>
      <point x="656" y="2063"/>
      <point x="564" y="2153"/>
      <point x="448" y="2153" type="curve" smooth="yes"/>
      <point x="333" y="2153"/>
      <point x="238" y="2063"/>
      <point x="238" y="1950" type="curve" smooth="yes"/>
      <point x="238" y="1839"/>
      <point x="333" y="1746"/>
    </contour>
    <contour>
      <point x="1060" y="1746" type="curve" smooth="yes"/>
      <point x="1176" y="1746"/>
      <point x="1268" y="1839"/>
      <point x="1268" y="1950" type="curve" smooth="yes"/>
      <point x="1268" y="2063"/>
      <point x="1176" y="2153"/>
      <point x="1060" y="2153" type="curve" smooth="yes"/>
      <point x="945" y="2153"/>
      <point x="850" y="2063"/>
      <point x="850" y="1950" type="curve" smooth="yes"/>
      <point x="850" y="1839"/>
      <point x="945" y="1746"/>
    </contour>
  </outline>
</glyph>
<glyph name="copyright" format="2">
  <advance width="2418"/>
  <unicode hex="00A9"/>
  <outline>
    <contour>
      <point x="1444" y="820" type="line"/>
      <point x="1445" y="640"/>
      <point x="1358" y="572"/>
      <point x="1190" y="572" type="curve" smooth="yes"/>
      <point x="1010" y="572"/>
      <point x="918" y="716"/>
      <point x="918" y="920" type="curve" smooth="yes"/>
      <point x="918" y="1084" type="line" smooth="yes"/>
      <point x="918" y="1288"/>
      <point x="1010" y="1432"/>
      <point x="1190" y="1432" type="curve" smooth="yes"/>
      <point x="1358" y="1432"/>
      <point x="1446" y="1360"/>
      <point x="1446" y="1184" type="curve"/>
      <point x="1667" y="1184" type="line"/>
      <point x="1668" y="1472"/>
      <point x="1481" y="1616"/>
      <point x="1190" y="1616" type="curve" smooth="yes"/>
      <point x="890" y="1616"/>
      <point x="697" y="1400"/>
      <point x="696" y="1084" type="curve"/>
      <point x="696" y="920" type="line"/>
      <point x="697" y="604"/>
      <point x="890" y="388"/>
      <point x="1190" y="388" type="curve" smooth="yes"/>
      <point x="1481" y="388"/>
      <point x="1668" y="532"/>
      <point x="1667" y="820" type="curve"/>
    </contour>
    <contour>
      <point x="377" y="1004" type="curve"/>
      <point x="377" y="1488"/>
      <point x="753" y="1860"/>
      <point x="1209" y="1860" type="curve" smooth="yes"/>
      <point x="1669" y="1860"/>
      <point x="2041" y="1488"/>
      <point x="2041" y="1004" type="curve" smooth="yes"/>
      <point x="2041" y="516"/>
      <point x="1669" y="144"/>
      <point x="1209" y="144" type="curve" smooth="yes"/>
      <point x="753" y="144"/>
      <point x="377" y="516"/>
    </contour>
    <contour>
      <point x="204" y="1004" type="curve"/>
      <point x="205" y="420"/>
      <point x="659" y="-28"/>
      <point x="1209" y="-28" type="curve" smooth="yes"/>
      <point x="1764" y="-28"/>
      <point x="2214" y="420"/>
      <point x="2214" y="1004" type="curve" smooth="yes"/>
      <point x="2214" y="1584"/>
      <point x="1764" y="2032"/>
      <point x="1209" y="2032" type="curve" smooth="yes"/>
      <point x="659" y="2032"/>
      <point x="205" y="1584"/>
    </contour>
  </outline>
</glyph>
<glyph name="ordfeminine" format="2">
  <advance width="1372"/>
  <unicode hex="00AA"/>
  <outline>
    <contour>
      <point x="858" y="1184" type="line"/>
      <point x="858" y="1107"/>
      <point x="872" y="1031"/>
      <point x="892" y="970" type="curve"/>
      <point x="1143" y="970" type="line"/>
      <point x="1110" y="1057"/>
      <point x="1105" y="1142"/>
      <point x="1105" y="1220" type="curve" smooth="yes"/>
      <point x="1105" y="1652" type="line"/>
      <point x="1105" y="1904"/>
      <point x="940" y="2032"/>
      <point x="693" y="2032" type="curve" smooth="yes"/>
      <point x="428" y="2032"/>
      <point x="253" y="1896"/>
      <point x="253" y="1710" type="curve"/>
      <point x="498" y="1692" type="line"/>
      <point x="498" y="1780"/>
      <point x="570" y="1828"/>
      <point x="693" y="1828" type="curve" smooth="yes"/>
      <point x="806" y="1828"/>
      <point x="858" y="1763"/>
      <point x="858" y="1652" type="curve"/>
    </contour>
    <contour>
      <point x="920" y="1582" type="line"/>
      <point x="715" y="1582" type="line"/>
      <point x="390" y="1582"/>
      <point x="231" y="1468"/>
      <point x="231" y="1264" type="curve" smooth="yes"/>
      <point x="231" y="1076"/>
      <point x="358" y="952"/>
      <point x="582" y="952" type="curve" smooth="yes"/>
      <point x="775" y="952"/>
      <point x="882" y="1055"/>
      <point x="924" y="1146" type="curve"/>
      <point x="900" y="1308" type="line"/>
      <point x="900" y="1240"/>
      <point x="759" y="1150"/>
      <point x="645" y="1150" type="curve" smooth="yes"/>
      <point x="530" y="1150"/>
      <point x="480" y="1196"/>
      <point x="480" y="1270" type="curve" smooth="yes"/>
      <point x="480" y="1350"/>
      <point x="553" y="1422"/>
      <point x="715" y="1422" type="curve"/>
      <point x="920" y="1422" type="line"/>
    </contour>
  </outline>
</glyph>
<glyph name="logicalnot" format="2">
  <advance width="1633"/>
  <unicode hex="00AC"/>
  <outline>
    <contour>
      <point x="1410" y="1108" type="line"/>
      <point x="229" y="1108" type="line"/>
      <point x="229" y="872" type="line"/>
      <point x="1410" y="872" type="line"/>
    </contour>
    <contour>
      <point x="1410" y="1000" type="line"/>
      <point x="1127" y="1000" type="line"/>
      <point x="1127" y="516" type="line"/>
      <point x="1410" y="516" type="line"/>
    </contour>
  </outline>
</glyph>
<glyph name="registered" format="2">
  <advance width="1869"/>
  <unicode hex="00AE"/>
  <note>
Stroke L: 32
Stroke R: 96
Stroke B: 112
</note>
  <outline>
    <contour>
      <point x="645" y="916" type="line"/>
      <point x="837" y="916" type="line"/>
      <point x="837" y="1512" type="line"/>
      <point x="958" y="1512" type="line" smooth="yes"/>
      <point x="1012" y="1512"/>
      <point x="1060" y="1483"/>
      <point x="1060" y="1410" type="curve" smooth="yes"/>
      <point x="1060" y="1339"/>
      <point x="1013" y="1303"/>
      <point x="957" y="1303" type="curve" smooth="yes"/>
      <point x="750" y="1303" type="line"/>
      <point x="750" y="1164" type="line"/>
      <point x="997" y="1164" type="line" smooth="yes"/>
      <point x="1142" y="1164"/>
      <point x="1262" y="1252"/>
      <point x="1262" y="1410" type="curve" smooth="yes"/>
      <point x="1262" y="1565"/>
      <point x="1146" y="1654"/>
      <point x="1006" y="1654" type="curve" smooth="yes"/>
      <point x="645" y="1654" type="line"/>
    </contour>
    <contour>
      <point x="1116" y="1257" type="line"/>
      <point x="917" y="1257" type="line"/>
      <point x="1074" y="916" type="line"/>
      <point x="1284" y="916" type="line"/>
    </contour>
    <contour>
      <point x="934" y="476" type="curve" smooth="yes"/>
      <point x="1377" y="476"/>
      <point x="1734" y="834"/>
      <point x="1734" y="1276" type="curve" smooth="yes"/>
      <point x="1734" y="1718"/>
      <point x="1376" y="2076"/>
      <point x="934" y="2076" type="curve" smooth="yes"/>
      <point x="492" y="2076"/>
      <point x="134" y="1718"/>
      <point x="134" y="1276" type="curve" smooth="yes"/>
      <point x="134" y="834"/>
      <point x="492" y="476"/>
    </contour>
    <contour>
      <point x="934" y="687" type="curve" smooth="yes"/>
      <point x="609" y="687"/>
      <point x="346" y="951"/>
      <point x="346" y="1276" type="curve" smooth="yes"/>
      <point x="346" y="1601"/>
      <point x="609" y="1865"/>
      <point x="934" y="1865" type="curve" smooth="yes"/>
      <point x="1260" y="1865"/>
      <point x="1523" y="1601"/>
      <point x="1523" y="1276" type="curve" smooth="yes"/>
      <point x="1523" y="950"/>
      <point x="1260" y="687"/>
    </contour>
  </outline>
</glyph>
<glyph name="macron" format="2">
  <advance width="1590"/>
  <unicode hex="00AF"/>
  <outline>
    <contour>
      <point x="1282" y="2048" type="line"/>
      <point x="308" y="2048" type="line"/>
      <point x="308" y="1817" type="line"/>
      <point x="1282" y="1817" type="line"/>
    </contour>
  </outline>
</glyph>
<glyph name="degree" format="2">
  <advance width="1294"/>
  <unicode hex="00B0"/>
  <outline>
    <contour>
      <point x="647" y="1079" type="curve" smooth="yes"/>
      <point x="919" y="1079"/>
      <point x="1138" y="1299"/>
      <point x="1138" y="1570" type="curve" smooth="yes"/>
      <point x="1138" y="1842"/>
      <point x="919" y="2062"/>
      <point x="647" y="2062" type="curve" smooth="yes"/>
      <point x="376" y="2062"/>
      <point x="156" y="1842"/>
      <point x="156" y="1570" type="curve" smooth="yes"/>
      <point x="156" y="1299"/>
      <point x="376" y="1079"/>
    </contour>
    <contour>
      <point x="647" y="1363" type="curve" smooth="yes"/>
      <point x="533" y="1363"/>
      <point x="440" y="1456"/>
      <point x="440" y="1570" type="curve" smooth="yes"/>
      <point x="440" y="1685"/>
      <point x="533" y="1778"/>
      <point x="647" y="1778" type="curve" smooth="yes"/>
      <point x="762" y="1778"/>
      <point x="854" y="1685"/>
      <point x="854" y="1570" type="curve" smooth="yes"/>
      <point x="854" y="1456"/>
      <point x="762" y="1363"/>
    </contour>
  </outline>
</glyph>
<glyph name="plusminus" format="2">
  <advance width="1914"/>
  <unicode hex="00B1"/>
  <outline>
    <contour>
      <point x="253" y="77" type="line"/>
      <point x="1661" y="77" type="line"/>
      <point x="1661" y="416" type="line"/>
      <point x="253" y="416" type="line"/>
    </contour>
    <contour>
      <point x="253" y="909" type="line"/>
      <point x="1661" y="909" type="line"/>
      <point x="1661" y="1238" type="line"/>
      <point x="253" y="1238" type="line"/>
    </contour>
    <contour>
      <point x="778" y="563" type="line"/>
      <point x="1136" y="563" type="line"/>
      <point x="1136" y="1584" type="line"/>
      <point x="778" y="1584" type="line"/>
    </contour>
  </outline>
</glyph>
<glyph name="two.sups" format="2">
  <advance width="1194"/>
  <unicode hex="00B2"/>
  <outline>
    <contour>
      <point x="123" y="1024" type="line"/>
      <point x="1100" y="1024" type="line"/>
      <point x="1100" y="1274" type="line"/>
      <point x="565" y="1274" type="line"/>
      <point x="565" y="1285" type="line"/>
      <point x="743" y="1417" type="line" smooth="yes"/>
      <point x="980" y="1575"/>
      <point x="1086" y="1704"/>
      <point x="1086" y="1880" type="curve" smooth="yes"/>
      <point x="1086" y="2098"/>
      <point x="894" y="2268"/>
      <point x="596" y="2268" type="curve" smooth="yes"/>
      <point x="306" y="2268"/>
      <point x="98" y="2114"/>
      <point x="98" y="1857" type="curve"/>
      <point x="393" y="1857" type="line"/>
      <point x="393" y="1966"/>
      <point x="472" y="2026"/>
      <point x="592" y="2026" type="curve" smooth="yes"/>
      <point x="704" y="2026"/>
      <point x="794" y="1972"/>
      <point x="794" y="1876" type="curve" smooth="yes"/>
      <point x="794" y="1784"/>
      <point x="722" y="1725"/>
      <point x="610" y="1634" type="curve" smooth="yes"/>
      <point x="123" y="1245" type="line"/>
    </contour>
  </outline>
</glyph>
<glyph name="three.sups" format="2">
  <advance width="1246"/>
  <unicode hex="00B3"/>
  <outline>
    <contour>
      <point x="618" y="1008" type="curve" smooth="yes"/>
      <point x="928" y="1008"/>
      <point x="1154" y="1160"/>
      <point x="1154" y="1376" type="curve" smooth="yes"/>
      <point x="1154" y="1531"/>
      <point x="1041" y="1635"/>
      <point x="847" y="1654" type="curve"/>
      <point x="847" y="1664" type="line"/>
      <point x="986" y="1683"/>
      <point x="1101" y="1772"/>
      <point x="1101" y="1916" type="curve" smooth="yes"/>
      <point x="1101" y="2112"/>
      <point x="911" y="2268"/>
      <point x="625" y="2268" type="curve" smooth="yes"/>
      <point x="342" y="2268"/>
      <point x="123" y="2119"/>
      <point x="119" y="1902" type="curve"/>
      <point x="414" y="1902" type="line"/>
      <point x="418" y="1976"/>
      <point x="508" y="2026"/>
      <point x="622" y="2026" type="curve" smooth="yes"/>
      <point x="730" y="2026"/>
      <point x="802" y="1974"/>
      <point x="802" y="1897" type="curve" smooth="yes"/>
      <point x="802" y="1818"/>
      <point x="719" y="1763"/>
      <point x="595" y="1763" type="curve" smooth="yes"/>
      <point x="454" y="1763" type="line"/>
      <point x="454" y="1536" type="line"/>
      <point x="595" y="1536" type="line" smooth="yes"/>
      <point x="744" y="1536"/>
      <point x="834" y="1478"/>
      <point x="834" y="1397" type="curve" smooth="yes"/>
      <point x="834" y="1311"/>
      <point x="738" y="1262"/>
      <point x="618" y="1262" type="curve" smooth="yes"/>
      <point x="502" y="1262"/>
      <point x="411" y="1306"/>
      <point x="405" y="1380" type="curve"/>
      <point x="91" y="1380" type="line"/>
      <point x="98" y="1158"/>
      <point x="316" y="1008"/>
    </contour>
  </outline>
</glyph>
<glyph name="acute" format="2">
  <advance width="1400"/>
  <unicode hex="00B4"/>
  <outline>
    <contour>
      <point x="534" y="1734" type="line"/>
      <point x="835" y="1734" type="line"/>
      <point x="1140" y="2189" type="line"/>
      <point x="746" y="2189" type="line"/>
    </contour>
  </outline>
</glyph>
<glyph name="micro" format="2">
  <advance width="1877"/>
  <unicode hex="00B5"/>
  <outline>
    <contour>
      <point x="170" y="-557" type="line"/>
      <point x="579" y="-557" type="line"/>
      <point x="579" y="218" type="line"/>
      <point x="591" y="218" type="line"/>
      <point x="653" y="85"/>
      <point x="785" y="9"/>
      <point x="938" y="9" type="curve" smooth="yes"/>
      <point x="1092" y="9"/>
      <point x="1224" y="85"/>
      <point x="1286" y="218" type="curve"/>
      <point x="1298" y="218" type="line"/>
      <point x="1298" y="0" type="line"/>
      <point x="1706" y="0" type="line"/>
      <point x="1706" y="1536" type="line"/>
      <point x="1281" y="1536" type="line"/>
      <point x="1281" y="654" type="line" smooth="yes"/>
      <point x="1281" y="469"/>
      <point x="1143" y="340"/>
      <point x="938" y="340" type="curve" smooth="yes"/>
      <point x="735" y="340"/>
      <point x="597" y="469"/>
      <point x="596" y="654" type="curve" smooth="yes"/>
      <point x="596" y="1536" type="line"/>
      <point x="170" y="1536" type="line"/>
    </contour>
  </outline>
</glyph>
<glyph name="paragraph" format="2">
  <advance width="1717"/>
  <unicode hex="00B6"/>
  <note>
aka PILCROW SIGN
</note>
  <outline>
    <contour>
      <point x="1351" y="1720" type="line"/>
      <point x="1351" y="2048" type="line"/>
      <point x="833" y="2048" type="line" smooth="yes"/>
      <point x="382" y="2048"/>
      <point x="138" y="1772"/>
      <point x="138" y="1404" type="curve" smooth="yes"/>
      <point x="138" y="1032"/>
      <point x="382" y="760"/>
      <point x="833" y="760" type="curve" smooth="yes"/>
      <point x="951" y="760" type="line"/>
      <point x="951" y="1720" type="line"/>
    </contour>
    <contour>
      <point x="1199" y="0" type="line"/>
      <point x="1538" y="0" type="line"/>
      <point x="1538" y="2048" type="line"/>
      <point x="1199" y="2048" type="line"/>
    </contour>
  </outline>
</glyph>
<glyph name="cedilla" format="2">
  <advance width="1054"/>
  <unicode hex="00B8"/>
  <outline>
    <contour>
      <point x="431" y="8" type="line"/>
      <point x="386" y="-195" type="line"/>
      <point x="525" y="-212"/>
      <point x="589" y="-251"/>
      <point x="586" y="-333" type="curve" smooth="yes"/>
      <point x="583" y="-418"/>
      <point x="482" y="-458"/>
      <point x="314" y="-458" type="curve"/>
      <point x="318" y="-648" type="line"/>
      <point x="653" y="-648"/>
      <point x="847" y="-521"/>
      <point x="846" y="-322" type="curve" smooth="yes"/>
      <point x="845" y="-182"/>
      <point x="748" y="-100"/>
      <point x="611" y="-79" type="curve"/>
      <point x="627" y="8" type="line"/>
    </contour>
  </outline>
</glyph>
<glyph name="one.sups" format="2">
  <advance width="894"/>
  <unicode hex="00B9"/>
  <outline>
    <contour>
      <point x="686" y="2252" type="line"/>
      <point x="394" y="2252" type="line"/>
      <point x="388" y="2165"/>
      <point x="274" y="2047"/>
      <point x="94" y="2048" type="curve"/>
      <point x="94" y="1804" type="line"/>
      <point x="250" y="1802"/>
      <point x="343" y="1841"/>
      <point x="374" y="1882" type="curve"/>
      <point x="386" y="1882" type="line"/>
      <point x="386" y="1024" type="line"/>
      <point x="686" y="1024" type="line"/>
    </contour>
  </outline>
</glyph>
<glyph name="ordmasculine" format="2">
  <advance width="1365"/>
  <unicode hex="00BA"/>
  <outline>
    <contour>
      <point x="192" y="1436" type="line"/>
      <point x="192" y="1152"/>
      <point x="381" y="950"/>
      <point x="686" y="950" type="curve" smooth="yes"/>
      <point x="988" y="950"/>
      <point x="1173" y="1152"/>
      <point x="1173" y="1436" type="curve"/>
      <point x="1173" y="1542" type="line"/>
      <point x="1173" y="1828"/>
      <point x="986" y="2032"/>
      <point x="682" y="2032" type="curve" smooth="yes"/>
      <point x="383" y="2032"/>
      <point x="192" y="1828"/>
      <point x="192" y="1542" type="curve"/>
    </contour>
    <contour>
      <point x="439" y="1542" type="line"/>
      <point x="439" y="1702"/>
      <point x="522" y="1828"/>
      <point x="682" y="1828" type="curve" smooth="yes"/>
      <point x="847" y="1828"/>
      <point x="926" y="1702"/>
      <point x="926" y="1542" type="curve"/>
      <point x="926" y="1436" type="line"/>
      <point x="926" y="1272"/>
      <point x="847" y="1152"/>
      <point x="686" y="1152" type="curve" smooth="yes"/>
      <point x="522" y="1152"/>
      <point x="439" y="1272"/>
      <point x="439" y="1436" type="curve"/>
    </contour>
  </outline>
</glyph>
<glyph name="AE" format="2">
  <advance width="2901"/>
  <unicode hex="00C6"/>
  <outline>
    <contour>
      <point x="67" y="0" type="line"/>
      <point x="543" y="0" type="line"/>
      <point x="1211" y="1622" type="line"/>
      <point x="1354" y="1622" type="line"/>
      <point x="1354" y="0" type="line"/>
      <point x="2738" y="0" type="line"/>
      <point x="2738" y="357" type="line"/>
      <point x="1787" y="357" type="line"/>
      <point x="1787" y="846" type="line"/>
      <point x="2663" y="846" type="line"/>
      <point x="2663" y="1203" type="line"/>
      <point x="1787" y="1203" type="line"/>
      <point x="1787" y="1691" type="line"/>
      <point x="2734" y="1691" type="line"/>
      <point x="2734" y="2048" type="line"/>
      <point x="944" y="2048" type="line"/>
    </contour>
    <contour>
      <point x="537" y="467" type="line"/>
      <point x="1601" y="467" type="line"/>
      <point x="1601" y="805" type="line"/>
      <point x="537" y="805" type="line"/>
    </contour>
  </outline>
</glyph>
<glyph name="Oslash" format="2">
  <advance width="2202"/>
  <unicode hex="00D8"/>
  <outline>
    <contour>
      <point x="463" y="-98" type="line"/>
      <point x="1930" y="2010" type="line"/>
      <point x="1735" y="2142" type="line"/>
      <point x="268" y="34" type="line"/>
    </contour>
    <component base="O"/>
  </outline>
</glyph>
<glyph name="Thorn" format="2">
  <advance width="1889"/>
  <unicode hex="00DE"/>
  <outline>
    <contour>
      <point x="174" y="2048" type="line"/>
      <point x="174" y="0" type="line"/>
      <point x="607" y="0" type="line"/>
      <point x="607" y="2048" type="line"/>
    </contour>
    <contour>
      <point x="374" y="1672" type="line"/>
      <point x="374" y="1337" type="line"/>
      <point x="907" y="1337" type="line" smooth="yes"/>
      <point x="1153" y="1337"/>
      <point x="1258" y="1202"/>
      <point x="1258" y="1042" type="curve" smooth="yes"/>
      <point x="1258" y="884"/>
      <point x="1153" y="754"/>
      <point x="907" y="754" type="curve" smooth="yes"/>
      <point x="374" y="754" type="line"/>
      <point x="374" y="422" type="line"/>
      <point x="907" y="422" type="line" smooth="yes"/>
      <point x="1401" y="422"/>
      <point x="1672" y="686"/>
      <point x="1672" y="1046" type="curve" smooth="yes"/>
      <point x="1672" y="1406"/>
      <point x="1401" y="1672"/>
      <point x="907" y="1672" type="curve" smooth="yes"/>
    </contour>
  </outline>
</glyph>
<glyph name="germandbls" format="2">
  <advance width="1870"/>
  <unicode hex="00DF"/>
  <outline>
    <contour>
      <point x="178" y="0" type="line"/>
      <point x="604" y="0" type="line"/>
      <point x="604" y="1445" type="line" smooth="yes"/>
      <point x="604" y="1611"/>
      <point x="722" y="1719"/>
      <point x="897" y="1719" type="curve" smooth="yes"/>
      <point x="1074" y="1719"/>
      <point x="1180" y="1609"/>
      <point x="1178" y="1459" type="curve" smooth="yes"/>
      <point x="1177" y="1320"/>
      <point x="1084" y="1202"/>
      <point x="939" y="1202" type="curve" smooth="yes"/>
      <point x="833" y="1202" type="line"/>
      <point x="833" y="870" type="line"/>
      <point x="991" y="870" type="line" smooth="yes"/>
      <point x="1195" y="870"/>
      <point x="1321" y="765"/>
      <point x="1322" y="605" type="curve" smooth="yes"/>
      <point x="1324" y="450"/>
      <point x="1207" y="347"/>
      <point x="1026" y="347" type="curve" smooth="yes"/>
      <point x="825" y="347" type="line"/>
      <point x="825" y="0" type="line"/>
      <point x="1094" y="0" type="line" smooth="yes"/>
      <point x="1483" y="0"/>
      <point x="1751" y="205"/>
      <point x="1753" y="564" type="curve" smooth="yes"/>
      <point x="1754" y="851"/>
      <point x="1584" y="1058"/>
      <point x="1318" y="1076" type="curve"/>
      <point x="1318" y="1098" type="line"/>
      <point x="1501" y="1150"/>
      <point x="1614" y="1310"/>
      <point x="1614" y="1522" type="curve" smooth="yes"/>
      <point x="1614" y="1886"/>
      <point x="1281" y="2076"/>
      <point x="883" y="2076" type="curve" smooth="yes"/>
      <point x="457" y="2076"/>
      <point x="178" y="1861"/>
      <point x="178" y="1507" type="curve" smooth="yes"/>
    </contour>
  </outline>
</glyph>
<glyph name="ae" format="2">
  <advance width="2573"/>
  <unicode hex="00E6"/>
  <outline>
    <contour>
      <point x="1786" y="-30" type="curve" smooth="yes"/>
      <point x="2134" y="-30"/>
      <point x="2395" y="155"/>
      <point x="2455" y="440" type="curve"/>
      <point x="2062" y="466" type="line"/>
      <point x="2018" y="349"/>
      <point x="1908" y="288"/>
      <point x="1766" y="288" type="curve" smooth="yes"/>
      <point x="1554" y="288"/>
      <point x="1418" y="430"/>
      <point x="1418" y="658" type="curve" smooth="yes"/>
      <point x="1418" y="909" type="line" smooth="yes"/>
      <point x="1421" y="1089"/>
      <point x="1555" y="1238"/>
      <point x="1750" y="1238" type="curve" smooth="yes"/>
      <point x="1934" y="1238"/>
      <point x="2062" y="1106"/>
      <point x="2064" y="923" type="curve"/>
      <point x="1199" y="923" type="line"/>
      <point x="1199" y="659" type="line"/>
      <point x="2465" y="659" type="line"/>
      <point x="2465" y="776" type="line" smooth="yes"/>
      <point x="2465" y="1298"/>
      <point x="2149" y="1556"/>
      <point x="1742" y="1556" type="curve" smooth="yes"/>
      <point x="1493" y="1556"/>
      <point x="1305" y="1454"/>
      <point x="1178" y="1232" type="curve"/>
      <point x="1192" y="329" type="line"/>
      <point x="1270" y="99"/>
      <point x="1500" y="-30"/>
    </contour>
    <contour>
      <point x="730" y="265" type="curve" smooth="yes"/>
      <point x="599" y="265"/>
      <point x="505" y="326"/>
      <point x="505" y="443" type="curve" smooth="yes"/>
      <point x="505" y="563"/>
      <point x="604" y="622"/>
      <point x="754" y="643" type="curve" smooth="yes"/>
      <point x="847" y="656"/>
      <point x="999" y="678"/>
      <point x="1050" y="712" type="curve"/>
      <point x="1050" y="549" type="line" smooth="yes"/>
      <point x="1050" y="388"/>
      <point x="917" y="265"/>
    </contour>
    <contour>
      <point x="632" y="-29" type="curve" smooth="yes"/>
      <point x="893" y="-29"/>
      <point x="1134" y="79"/>
      <point x="1215" y="251" type="curve"/>
      <point x="1242" y="251" type="line"/>
      <point x="1294" y="1299" type="line" smooth="yes"/>
      <point x="1216" y="1494"/>
      <point x="1016" y="1556"/>
      <point x="828" y="1556" type="curve" smooth="yes"/>
      <point x="450" y="1556"/>
      <point x="212" y="1380"/>
      <point x="152" y="1100" type="curve"/>
      <point x="546" y="1068" type="line"/>
      <point x="574" y="1170"/>
      <point x="667" y="1245"/>
      <point x="819" y="1245" type="curve" smooth="yes"/>
      <point x="964" y="1245"/>
      <point x="1047" y="1173"/>
      <point x="1047" y="1046" type="curve" smooth="yes"/>
      <point x="1047" y="1040" type="line" smooth="yes"/>
      <point x="1047" y="942"/>
      <point x="943" y="929"/>
      <point x="675" y="902" type="curve" smooth="yes"/>
      <point x="372" y="874"/>
      <point x="98" y="771"/>
      <point x="98" y="429" type="curve" smooth="yes"/>
      <point x="98" y="126"/>
      <point x="314" y="-29"/>
    </contour>
  </outline>
</glyph>
<glyph name="eth" format="2">
  <advance width="1610"/>
  <unicode hex="00F0"/>
  <outline>
    <contour>
      <point x="1278" y="1878" type="line"/>
      <point x="1162" y="2094" type="line"/>
      <point x="303" y="1657" type="line"/>
      <point x="419" y="1442" type="line"/>
    </contour>
    <contour>
      <point x="804" y="-32" type="curve" smooth="yes"/>
      <point x="1220" y="-32"/>
      <point x="1498" y="256"/>
      <point x="1498" y="752" type="curve" smooth="yes"/>
      <point x="1498" y="1450"/>
      <point x="1003" y="1944"/>
      <point x="541" y="2176" type="curve"/>
      <point x="353" y="1910" type="line"/>
      <point x="723" y="1706"/>
      <point x="880" y="1548"/>
      <point x="1016" y="1312" type="curve"/>
      <point x="996" y="1312" type="line"/>
      <point x="914" y="1408"/>
      <point x="767" y="1442"/>
      <point x="622" y="1423" type="curve" smooth="yes"/>
      <point x="363" y="1378"/>
      <point x="113" y="1121"/>
      <point x="113" y="704" type="curve" smooth="yes"/>
      <point x="113" y="276"/>
      <point x="382" y="-32"/>
    </contour>
    <contour>
      <point x="821" y="300" type="curve" smooth="yes"/>
      <point x="628" y="300"/>
      <point x="519" y="439"/>
      <point x="519" y="706" type="curve" smooth="yes"/>
      <point x="519" y="980"/>
      <point x="634" y="1110"/>
      <point x="821" y="1110" type="curve" smooth="yes"/>
      <point x="1012" y="1110"/>
      <point x="1126" y="974"/>
      <point x="1126" y="705" type="curve" smooth="yes"/>
      <point x="1126" y="438"/>
      <point x="1012" y="300"/>
    </contour>
  </outline>
</glyph>
<glyph name="divide" format="2">
  <advance width="1914"/>
  <unicode hex="00F7"/>
  <guideline x="352" y="819" angle="0.0"/>
  <outline>
    <contour>
      <point x="1657" y="989" type="line"/>
      <point x="257" y="989" type="line"/>
      <point x="257" y="650" type="line"/>
      <point x="1657" y="650" type="line"/>
    </contour>
    <contour>
      <point x="957" y="22" type="curve" smooth="yes"/>
      <point x="1088" y="22"/>
      <point x="1195" y="130"/>
      <point x="1195" y="265" type="curve" smooth="yes"/>
      <point x="1195" y="396"/>
      <point x="1088" y="503"/>
      <point x="957" y="503" type="curve" smooth="yes"/>
      <point x="822" y="503"/>
      <point x="714" y="396"/>
      <point x="714" y="265" type="curve" smooth="yes"/>
      <point x="714" y="130"/>
      <point x="822" y="22"/>
    </contour>
    <contour>
      <point x="957" y="1135" type="curve" smooth="yes"/>
      <point x="1089" y="1135"/>
      <point x="1195" y="1244"/>
      <point x="1195" y="1378" type="curve" smooth="yes"/>
      <point x="1195" y="1510"/>
      <point x="1089" y="1616"/>
      <point x="957" y="1616" type="curve" smooth="yes"/>
      <point x="823" y="1616"/>
      <point x="714" y="1510"/>
      <point x="714" y="1378" type="curve" smooth="yes"/>
      <point x="714" y="1244"/>
      <point x="823" y="1135"/>
    </contour>
  </outline>
</glyph>
<glyph name="oslash" format="2">
  <advance width="1733"/>
  <unicode hex="00F8"/>
  <outline>
    <contour>
      <point x="409" y="-98" type="line"/>
      <point x="1514" y="1490" type="line"/>
      <point x="1317" y="1622" type="line"/>
      <point x="214" y="34" type="line"/>
    </contour>
    <component base="o" yOffset="-2"/>
  </outline>
</glyph>
<glyph name="thorn" format="2">
  <advance width="1726"/>
  <unicode hex="00FE"/>
  <outline>
    <contour>
      <point x="170" y="2048" type="line"/>
      <point x="170" y="-576" type="line"/>
      <point x="596" y="-576" type="line"/>
      <point x="596" y="302" type="line"/>
      <point x="447" y="750" type="line"/>
      <point x="596" y="1256" type="line"/>
      <point x="596" y="2048" type="line"/>
    </contour>
    <contour>
      <point x="426" y="1359" type="line"/>
      <point x="426" y="169" type="line"/>
      <point x="614" y="169" type="line"/>
      <point x="669" y="58"/>
      <point x="795" y="-25"/>
      <point x="990" y="-25" type="curve" smooth="yes"/>
      <point x="1336" y="-25"/>
      <point x="1613" y="250"/>
      <point x="1613" y="766" type="curve" smooth="yes"/>
      <point x="1613" y="1294"/>
      <point x="1324" y="1556"/>
      <point x="990" y="1556" type="curve" smooth="yes"/>
      <point x="787" y="1556"/>
      <point x="666" y="1466"/>
      <point x="614" y="1359" type="curve"/>
    </contour>
    <contour>
      <point x="1209" y="768" type="curve" smooth="yes"/>
      <point x="1209" y="490"/>
      <point x="1096" y="314"/>
      <point x="871" y="314" type="curve" smooth="yes"/>
      <point x="636" y="314"/>
      <point x="554" y="518"/>
      <point x="554" y="768" type="curve" smooth="yes"/>
      <point x="554" y="1021"/>
      <point x="639" y="1217"/>
      <point x="871" y="1217" type="curve" smooth="yes"/>
      <point x="1097" y="1217"/>
      <point x="1209" y="1044"/>
    </contour>
  </outline>
</glyph>
<glyph name="Hbar" format="2">
  <advance width="2282"/>
  <unicode hex="0126"/>
  <outline>
    <contour>
      <point x="2182" y="1693" type="line"/>
      <point x="100" y="1693" type="line"/>
      <point x="100" y="1451" type="line"/>
      <point x="2182" y="1451" type="line"/>
    </contour>
    <component base="H" xOffset="90"/>
  </outline>
</glyph>
<glyph name="idotless" format="2">
  <advance width="766"/>
  <unicode hex="0131"/>
  <outline>
    <contour>
      <point x="170" y="0" type="line"/>
      <point x="596" y="0" type="line"/>
      <point x="596" y="1536" type="line"/>
      <point x="170" y="1536" type="line"/>
    </contour>
  </outline>
</glyph>
<glyph name="kgreenlandic" format="2">
  <advance width="1889"/>
  <unicode hex="0138"/>
  <outline>
    <contour>
      <point x="624" y="1488" type="line"/>
      <point x="202" y="1488" type="line"/>
      <point x="202" y="0" type="line"/>
      <point x="624" y="0" type="line"/>
    </contour>
    <contour>
      <point x="1665" y="1488" type="line"/>
      <point x="1134" y="1488" type="line"/>
      <point x="748" y="938" type="line"/>
      <point x="500" y="938" type="line"/>
      <point x="551" y="537" type="line"/>
      <point x="963" y="537" type="line"/>
    </contour>
    <contour>
      <point x="1150" y="0" type="line"/>
      <point x="1687" y="0" type="line"/>
      <point x="1106" y="811" type="line"/>
      <point x="743" y="618" type="line"/>
    </contour>
  </outline>
</glyph>
<glyph name="Lslash" format="2">
  <advance width="1649"/>
  <unicode hex="0141"/>
  <outline>
    <contour>
      <point x="968" y="1323" type="line"/>
      <point x="41" y="1065" type="line"/>
      <point x="41" y="830" type="line"/>
      <point x="968" y="1086" type="line"/>
    </contour>
    <component base="L" xOffset="86"/>
  </outline>
</glyph>
<glyph name="lslash" format="2">
  <advance width="766"/>
  <unicode hex="0142"/>
  <outline>
    <contour>
      <point x="787" y="1333" type="line"/>
      <point x="-21" y="1074" type="line"/>
      <point x="-21" y="838" type="line"/>
      <point x="787" y="1097" type="line"/>
    </contour>
    <component base="l"/>
  </outline>
</glyph>
<glyph name="Eng" format="2">
  <advance width="2070"/>
  <unicode hex="014A"/>
  <outline>
    <contour>
      <point x="1517" y="0" type="line"/>
      <point x="1517" y="-88" type="line" smooth="yes"/>
      <point x="1517" y="-219"/>
      <point x="1422" y="-279"/>
      <point x="1282" y="-279" type="curve" smooth="yes"/>
      <point x="1229" y="-279"/>
      <point x="1173" y="-273"/>
      <point x="1134" y="-264" type="curve"/>
      <point x="1134" y="-586" type="line"/>
      <point x="1180" y="-601"/>
      <point x="1240" y="-607"/>
      <point x="1289" y="-607" type="curve" smooth="yes"/>
      <point x="1651" y="-607"/>
      <point x="1891" y="-472"/>
      <point x="1891" y="-82" type="curve" smooth="yes"/>
      <point x="1891" y="0" type="line"/>
    </contour>
    <component base="N"/>
  </outline>
</glyph>
<glyph name="eng" format="2">
  <advance width="1778"/>
  <unicode hex="014B"/>
  <outline>
    <contour>
      <point x="1160" y="0" type="line"/>
      <point x="1160" y="-85" type="line" smooth="yes"/>
      <point x="1160" y="-200"/>
      <point x="1091" y="-247"/>
      <point x="977" y="-247" type="curve" smooth="yes"/>
      <point x="928" y="-247"/>
      <point x="888" y="-241"/>
      <point x="850" y="-232" type="curve"/>
      <point x="822" y="-578" type="line"/>
      <point x="892" y="-593"/>
      <point x="963" y="-595"/>
      <point x="1037" y="-595" type="curve" smooth="yes"/>
      <point x="1365" y="-595"/>
      <point x="1586" y="-424"/>
      <point x="1586" y="-85" type="curve" smooth="yes"/>
      <point x="1586" y="0" type="line"/>
    </contour>
    <component base="n"/>
  </outline>
</glyph>
<glyph name="OE" format="2">
  <advance width="2866"/>
  <unicode hex="0152"/>
  <note>
!post:RemoveOverlap
</note>
  <outline>
    <contour>
      <point x="1072" y="0" type="curve" smooth="yes"/>
      <point x="1485" y="0" type="line"/>
      <point x="1485" y="357" type="line"/>
      <point x="1072" y="357" type="line" smooth="yes"/>
      <point x="781" y="357"/>
      <point x="575" y="558"/>
      <point x="576" y="1022" type="curve" smooth="yes"/>
      <point x="575" y="1484"/>
      <point x="781" y="1691"/>
      <point x="1072" y="1691" type="curve" smooth="yes"/>
      <point x="1485" y="1691" type="line"/>
      <point x="1485" y="2048" type="line"/>
      <point x="1072" y="2048" type="line" smooth="yes"/>
      <point x="539" y="2048"/>
      <point x="141" y="1688"/>
      <point x="142" y="1022" type="curve" smooth="yes"/>
      <point x="141" y="359"/>
      <point x="539" y="0"/>
    </contour>
    <component base="E" xOffset="1142"/>
  </outline>
</glyph>
<glyph name="tbar" format="2">
  <advance width="1094"/>
  <unicode hex="0167"/>
  <outline>
    <contour>
      <point x="62" y="770" type="line"/>
      <point x="987" y="770" type="line"/>
      <point x="987" y="974" type="line"/>
      <point x="62" y="974" type="line"/>
    </contour>
    <component base="t"/>
  </outline>
</glyph>
<glyph name="longs" format="2">
  <advance width="814"/>
  <unicode hex="017F"/>
  <outline>
    <contour>
      <point x="431" y="0" type="line"/>
      <point x="431" y="1614" type="line"/>
      <point x="431" y="1739"/>
      <point x="503" y="1805"/>
      <point x="637" y="1805" type="curve" smooth="yes"/>
      <point x="699" y="1805"/>
      <point x="731" y="1801"/>
      <point x="774" y="1793" type="curve"/>
      <point x="806" y="2112" type="line"/>
      <point x="729" y="2128"/>
      <point x="654" y="2140"/>
      <point x="581" y="2140" type="curve" smooth="yes"/>
      <point x="219" y="2140"/>
      <point x="8" y="1957"/>
      <point x="9" y="1614" type="curve"/>
      <point x="9" y="0" type="line"/>
    </contour>
  </outline>
</glyph>
<glyph name="Bhook" format="2">
  <advance width="2440"/>
  <unicode hex="0181"/>
  <outline>
    <contour>
      <point x="984" y="1694" type="line"/>
      <point x="984" y="2048" type="line"/>
      <point x="686" y="2048" type="line" smooth="yes"/>
      <point x="322" y="2048"/>
      <point x="99" y="1842"/>
      <point x="100" y="1520" type="curve" smooth="yes"/>
      <point x="100" y="1319" type="line"/>
      <point x="486" y="1319" type="line"/>
      <point x="486" y="1438" type="line" smooth="yes"/>
      <point x="484" y="1562"/>
      <point x="521" y="1694"/>
      <point x="687" y="1694" type="curve" smooth="yes"/>
    </contour>
    <component base="B" xOffset="579"/>
  </outline>
</glyph>
<glyph name="Btopbar" format="2">
  <advance width="1845"/>
  <unicode hex="0182"/>
  <outline>
    <contour>
      <point x="178" y="0" type="line"/>
      <point x="944" y="0" type="line" smooth="yes"/>
      <point x="1430" y="0"/>
      <point x="1732" y="267"/>
      <point x="1732" y="654" type="curve" smooth="yes"/>
      <point x="1732" y="1042"/>
      <point x="1430" y="1291"/>
      <point x="944" y="1291" type="curve" smooth="yes"/>
      <point x="611" y="1291" type="line"/>
      <point x="611" y="1691" type="line"/>
      <point x="1537" y="1691" type="line"/>
      <point x="1537" y="2048" type="line"/>
      <point x="178" y="2048" type="line"/>
    </contour>
    <contour>
      <point x="611" y="348" type="line"/>
      <point x="611" y="949" type="line"/>
      <point x="944" y="949" type="line" smooth="yes"/>
      <point x="1176" y="949"/>
      <point x="1303" y="821"/>
      <point x="1303" y="658" type="curve" smooth="yes"/>
      <point x="1303" y="490"/>
      <point x="1176" y="348"/>
      <point x="944" y="348" type="curve" smooth="yes"/>
    </contour>
  </outline>
</glyph>
<glyph name="Tonesix" format="2">
  <advance width="2209"/>
  <unicode hex="0184"/>
  <outline>
    <contour>
      <point x="890" y="2048" type="line"/>
      <point x="35" y="2048" type="line"/>
      <point x="35" y="1691" type="line"/>
      <point x="890" y="1691" type="line"/>
    </contour>
    <contour>
      <point x="807" y="1291" type="line"/>
      <point x="807" y="949" type="line"/>
      <point x="1295" y="949" type="line"/>
      <point x="1527" y="949"/>
      <point x="1654" y="821"/>
      <point x="1654" y="658" type="curve"/>
      <point x="1654" y="490"/>
      <point x="1527" y="348"/>
      <point x="1295" y="348" type="curve"/>
      <point x="962" y="348" type="line"/>
      <point x="962" y="2048" type="line"/>
      <point x="530" y="2048" type="line"/>
      <point x="530" y="0" type="line"/>
      <point x="1295" y="0" type="line"/>
      <point x="1781" y="0"/>
      <point x="2083" y="267"/>
      <point x="2083" y="654" type="curve"/>
      <point x="2083" y="1042"/>
      <point x="1781" y="1291"/>
      <point x="1295" y="1291" type="curve"/>
    </contour>
  </outline>
</glyph>
<glyph name="tonesix" format="2">
  <advance width="1882"/>
  <unicode hex="0185"/>
  <outline>
    <contour>
      <point x="371" y="2112" type="line"/>
      <point x="109" y="1875" type="line"/>
      <point x="109" y="1672" type="line"/>
      <point x="371" y="1440" type="line"/>
      <point x="442" y="1440" type="line"/>
      <point x="442" y="2112" type="line"/>
    </contour>
    <contour>
      <point x="622" y="1359" type="line"/>
      <point x="622" y="169" type="line"/>
      <point x="810" y="169" type="line"/>
      <point x="861" y="61"/>
      <point x="983" y="-25"/>
      <point x="1186" y="-25" type="curve" smooth="yes"/>
      <point x="1531" y="-25"/>
      <point x="1808" y="250"/>
      <point x="1810" y="766" type="curve" smooth="yes"/>
      <point x="1808" y="1294"/>
      <point x="1519" y="1556"/>
      <point x="1185" y="1556" type="curve" smooth="yes"/>
      <point x="999" y="1556"/>
      <point x="864" y="1473"/>
      <point x="810" y="1359" type="curve"/>
    </contour>
    <contour>
      <point x="1406" y="768" type="curve" smooth="yes"/>
      <point x="1404" y="493"/>
      <point x="1291" y="314"/>
      <point x="1068" y="314" type="curve" smooth="yes"/>
      <point x="831" y="314"/>
      <point x="749" y="518"/>
      <point x="750" y="768" type="curve" smooth="yes"/>
      <point x="749" y="1018"/>
      <point x="832" y="1217"/>
      <point x="1068" y="1217" type="curve" smooth="yes"/>
      <point x="1292" y="1217"/>
      <point x="1404" y="1042"/>
    </contour>
    <contour>
      <point x="367" y="2048" type="line"/>
      <point x="367" y="0" type="line"/>
      <point x="787" y="0" type="line"/>
      <point x="787" y="302" type="line"/>
      <point x="638" y="750" type="line"/>
      <point x="793" y="1256" type="line"/>
      <point x="793" y="2048" type="line"/>
    </contour>
  </outline>
</glyph>
<glyph name="Oopen" format="2">
  <advance width="2118"/>
  <unicode hex="0186"/>
  <outline>
    <contour>
      <point x="1022" y="-28" type="curve" smooth="yes"/>
      <point x="1570" y="-28"/>
      <point x="1976" y="357"/>
      <point x="1976" y="1024" type="curve"/>
      <point x="1976" y="1694"/>
      <point x="1562" y="2076"/>
      <point x="1022" y="2076" type="curve" smooth="yes"/>
      <point x="547" y="2076"/>
      <point x="190" y="1804"/>
      <point x="133" y="1331" type="curve"/>
      <point x="570" y="1331" type="line"/>
      <point x="604" y="1558"/>
      <point x="774" y="1693"/>
      <point x="1012" y="1693" type="curve" smooth="yes"/>
      <point x="1329" y="1693"/>
      <point x="1537" y="1450"/>
      <point x="1537" y="1024" type="curve"/>
      <point x="1537" y="586"/>
      <point x="1326" y="355"/>
      <point x="1014" y="355" type="curve" smooth="yes"/>
      <point x="783" y="355"/>
      <point x="611" y="481"/>
      <point x="570" y="700" type="curve"/>
      <point x="133" y="698" type="line"/>
      <point x="180" y="321"/>
      <point x="497" y="-28"/>
    </contour>
  </outline>
</glyph>
<glyph name="Chook" format="2">
  <advance width="2359"/>
  <unicode hex="0187"/>
  <outline>
    <contour>
      <point x="1985" y="1331" type="line"/>
      <point x="1985" y="1503" type="line" smooth="yes"/>
      <point x="1985" y="1697"/>
      <point x="2134" y="1759"/>
      <point x="2262" y="1759" type="curve"/>
      <point x="2294" y="1759"/>
      <point x="2351" y="1755"/>
      <point x="2383" y="1754" type="curve"/>
      <point x="2383" y="2098" type="line"/>
      <point x="2311" y="2110"/>
      <point x="2250" y="2110"/>
      <point x="2180" y="2110" type="curve" smooth="yes"/>
      <point x="1853" y="2110"/>
      <point x="1569" y="1916"/>
      <point x="1569" y="1558" type="curve" smooth="yes"/>
      <point x="1569" y="1331" type="line"/>
    </contour>
    <component base="C"/>
  </outline>
</glyph>
<glyph name="chook" format="2">
  <advance width="1811"/>
  <unicode hex="0188"/>
  <outline>
    <contour>
      <point x="1554" y="968" type="line"/>
      <point x="1554" y="1199" type="line" smooth="yes"/>
      <point x="1554" y="1340"/>
      <point x="1615" y="1393"/>
      <point x="1735" y="1393" type="curve" smooth="yes"/>
      <point x="1773" y="1393"/>
      <point x="1806" y="1386"/>
      <point x="1840" y="1382" type="curve"/>
      <point x="1840" y="1662" type="line"/>
      <point x="1781" y="1678"/>
      <point x="1721" y="1686"/>
      <point x="1663" y="1686" type="curve" smooth="yes"/>
      <point x="1377" y="1686"/>
      <point x="1160" y="1511"/>
      <point x="1160" y="1202" type="curve" smooth="yes"/>
      <point x="1160" y="968" type="line"/>
    </contour>
    <component base="c"/>
  </outline>
</glyph>
<glyph name="Dhook" format="2">
  <advance width="2636"/>
  <unicode hex="018A"/>
  <outline>
    <contour>
      <point x="100" y="1319" type="line"/>
      <point x="486" y="1319" type="line"/>
      <point x="486" y="1438" type="line" smooth="yes"/>
      <point x="484" y="1562"/>
      <point x="521" y="1677"/>
      <point x="687" y="1677" type="curve" smooth="yes"/>
      <point x="984" y="1677" type="line"/>
      <point x="984" y="2048" type="line"/>
      <point x="686" y="2048" type="line" smooth="yes"/>
      <point x="322" y="2048"/>
      <point x="99" y="1842"/>
      <point x="100" y="1520" type="curve" smooth="yes"/>
    </contour>
    <component base="D" xOffset="588"/>
  </outline>
</glyph>
<glyph name="Dtopbar" format="2">
  <advance width="1889"/>
  <unicode hex="018B"/>
  <outline>
    <contour>
      <point x="1722" y="0" type="line"/>
      <point x="1722" y="2040" type="line"/>
      <point x="366" y="2040" type="line"/>
      <point x="366" y="1686" type="line"/>
      <point x="1287" y="1686" type="line"/>
      <point x="1287" y="1294" type="line"/>
      <point x="958" y="1294" type="line" smooth="yes"/>
      <point x="473" y="1294"/>
      <point x="169" y="1039"/>
      <point x="169" y="654" type="curve" smooth="yes"/>
      <point x="169" y="270"/>
      <point x="473" y="0"/>
      <point x="958" y="0" type="curve" smooth="yes"/>
    </contour>
    <contour>
      <point x="1287" y="348" type="line"/>
      <point x="958" y="348" type="line" smooth="yes"/>
      <point x="722" y="348"/>
      <point x="606" y="490"/>
      <point x="606" y="658" type="curve" smooth="yes"/>
      <point x="606" y="821"/>
      <point x="722" y="947"/>
      <point x="958" y="947" type="curve" smooth="yes"/>
      <point x="1287" y="947" type="line"/>
    </contour>
  </outline>
</glyph>
<glyph name="deltaturn" format="2">
  <advance width="1844"/>
  <unicode hex="018D"/>
  <outline>
    <contour>
      <point x="1471" y="-516" type="line"/>
      <point x="1471" y="-299" type="line"/>
      <point x="1378" y="-200"/>
      <point x="1162" y="5"/>
      <point x="1036" y="110" type="curve"/>
      <point x="1056" y="110"/>
      <point x="1075" y="110"/>
      <point x="1086" y="111" type="curve" smooth="yes"/>
      <point x="1404" y="162"/>
      <point x="1649" y="428"/>
      <point x="1649" y="804" type="curve" smooth="yes"/>
      <point x="1649" y="832" type="line" smooth="yes"/>
      <point x="1649" y="1224"/>
      <point x="1386" y="1516"/>
      <point x="923" y="1516" type="curve" smooth="yes"/>
      <point x="458" y="1516"/>
      <point x="199" y="1202"/>
      <point x="199" y="784" type="curve" smooth="yes"/>
      <point x="199" y="756" type="line" smooth="yes"/>
      <point x="199" y="458"/>
      <point x="395" y="222"/>
      <point x="674" y="0" type="curve" smooth="yes"/>
      <point x="786" y="-86"/>
      <point x="884" y="-150"/>
      <point x="926" y="-184" type="curve"/>
      <point x="349" y="-184" type="line"/>
      <point x="349" y="-516" type="line"/>
    </contour>
    <contour>
      <point x="1229" y="756" type="line"/>
      <point x="1229" y="519"/>
      <point x="1144" y="325"/>
      <point x="916" y="325" type="curve" smooth="yes"/>
      <point x="887" y="325"/>
      <point x="863" y="326"/>
      <point x="839" y="336" type="curve"/>
      <point x="721" y="403"/>
      <point x="618" y="550"/>
      <point x="618" y="756" type="curve" smooth="yes"/>
      <point x="618" y="784" type="line" smooth="yes"/>
      <point x="618" y="995"/>
      <point x="692" y="1181"/>
      <point x="923" y="1181" type="curve" smooth="yes"/>
      <point x="1166" y="1181"/>
      <point x="1229" y="981"/>
      <point x="1229" y="784" type="curve" smooth="yes"/>
    </contour>
  </outline>
</glyph>
<glyph name="Schwa" format="2">
  <advance width="2152"/>
  <unicode hex="018F"/>
  <outline>
    <contour>
      <point x="1081" y="-28" type="curve" smooth="yes"/>
      <point x="1580" y="-28"/>
      <point x="1966" y="349"/>
      <point x="1966" y="890" type="curve" smooth="yes"/>
      <point x="1966" y="1106" type="line" smooth="yes"/>
      <point x="1966" y="1647"/>
      <point x="1625" y="2032"/>
      <point x="984" y="2032" type="curve" smooth="yes"/>
      <point x="681" y="2032"/>
      <point x="398" y="1955"/>
      <point x="339" y="1926" type="curve"/>
      <point x="410" y="1567" type="line"/>
      <point x="520" y="1602"/>
      <point x="708" y="1647"/>
      <point x="962" y="1647" type="curve" smooth="yes"/>
      <point x="1388" y="1647"/>
      <point x="1529" y="1403"/>
      <point x="1529" y="1106" type="curve" smooth="yes"/>
      <point x="1529" y="890" type="line" smooth="yes"/>
      <point x="1529" y="592"/>
      <point x="1377" y="353"/>
      <point x="1081" y="353" type="curve" smooth="yes"/>
      <point x="748" y="353"/>
      <point x="624" y="528"/>
      <point x="623" y="754" type="curve" smooth="yes"/>
      <point x="623" y="795" type="line"/>
      <point x="1646" y="795" type="line"/>
      <point x="1646" y="1148" type="line"/>
      <point x="188" y="1148" type="line"/>
      <point x="188" y="916" type="line" smooth="yes"/>
      <point x="189" y="338"/>
      <point x="497" y="-28"/>
    </contour>
  </outline>
</glyph>
<glyph name="Epsilon1" format="2">
  <advance width="1889"/>
  <unicode hex="0190"/>
  <outline>
    <contour>
      <point x="1191" y="960" type="line"/>
      <point x="1191" y="1189" type="line"/>
      <point x="941" y="1189" type="line" smooth="yes"/>
      <point x="725" y="1189"/>
      <point x="628" y="1279"/>
      <point x="629" y="1450" type="curve" smooth="yes"/>
      <point x="628" y="1582"/>
      <point x="729" y="1680"/>
      <point x="961" y="1680" type="curve" smooth="yes"/>
      <point x="1137" y="1680"/>
      <point x="1263" y="1608"/>
      <point x="1264" y="1463" type="curve"/>
      <point x="1699" y="1463" type="line"/>
      <point x="1698" y="1815"/>
      <point x="1359" y="2032"/>
      <point x="961" y="2032" type="curve" smooth="yes"/>
      <point x="500" y="2032"/>
      <point x="190" y="1832"/>
      <point x="191" y="1460" type="curve" smooth="yes"/>
      <point x="190" y="1154"/>
      <point x="486" y="960"/>
      <point x="878" y="960" type="curve"/>
    </contour>
    <contour>
      <point x="878" y="1080" type="line"/>
      <point x="431" y="1080"/>
      <point x="158" y="896"/>
      <point x="159" y="560" type="curve" smooth="yes"/>
      <point x="158" y="154"/>
      <point x="492" y="-28"/>
      <point x="961" y="-28" type="curve" smooth="yes"/>
      <point x="1332" y="-28"/>
      <point x="1728" y="148"/>
      <point x="1730" y="556" type="curve"/>
      <point x="1292" y="556" type="line"/>
      <point x="1291" y="418"/>
      <point x="1167" y="320"/>
      <point x="961" y="320" type="curve" smooth="yes"/>
      <point x="747" y="320"/>
      <point x="597" y="393"/>
      <point x="598" y="570" type="curve" smooth="yes"/>
      <point x="597" y="786"/>
      <point x="724" y="855"/>
      <point x="941" y="855" type="curve" smooth="yes"/>
      <point x="1191" y="855" type="line"/>
      <point x="1191" y="1080" type="line"/>
    </contour>
  </outline>
</glyph>
<glyph name="Fhook" format="2">
  <advance width="1710"/>
  <unicode hex="0191"/>
  <outline>
    <contour>
      <point x="241" y="0" type="line"/>
      <point x="241" y="-93" type="line" smooth="yes"/>
      <point x="241" y="-212"/>
      <point x="140" y="-243"/>
      <point x="28" y="-243" type="curve" smooth="yes"/>
      <point x="4" y="-243"/>
      <point x="-32" y="-244"/>
      <point x="-58" y="-240" type="curve"/>
      <point x="-58" y="-566" type="line"/>
      <point x="1" y="-576"/>
      <point x="78" y="-576"/>
      <point x="117" y="-576" type="curve" smooth="yes"/>
      <point x="414" y="-576"/>
      <point x="674" y="-490"/>
      <point x="674" y="-94" type="curve" smooth="yes"/>
      <point x="674" y="0" type="line"/>
    </contour>
    <component base="F" xOffset="62"/>
  </outline>
</glyph>
<glyph name="florin" format="2">
  <advance width="1321"/>
  <unicode hex="0192"/>
  <outline>
    <contour>
      <point x="1130" y="1488" type="line"/>
      <point x="831" y="1488" type="line"/>
      <point x="831" y="1614" type="line" smooth="yes"/>
      <point x="832" y="1739"/>
      <point x="909" y="1803"/>
      <point x="1037" y="1803" type="curve" smooth="yes"/>
      <point x="1103" y="1803"/>
      <point x="1139" y="1798"/>
      <point x="1175" y="1790" type="curve"/>
      <point x="1216" y="2111" type="line"/>
      <point x="1148" y="2126"/>
      <point x="1064" y="2140"/>
      <point x="978" y="2140" type="curve" smooth="yes"/>
      <point x="632" y="2140"/>
      <point x="419" y="1957"/>
      <point x="418" y="1614" type="curve" smooth="yes"/>
      <point x="418" y="1488" type="line"/>
      <point x="186" y="1488" type="line"/>
      <point x="186" y="1186" type="line"/>
      <point x="418" y="1186" type="line"/>
      <point x="418" y="-59" type="line" smooth="yes"/>
      <point x="419" y="-186"/>
      <point x="382" y="-265"/>
      <point x="256" y="-265" type="curve" smooth="yes"/>
      <point x="221" y="-265"/>
      <point x="156" y="-258"/>
      <point x="125" y="-249" type="curve"/>
      <point x="105" y="-580" type="line"/>
      <point x="180" y="-596"/>
      <point x="242" y="-600"/>
      <point x="311" y="-600" type="curve" smooth="yes"/>
      <point x="640" y="-600"/>
      <point x="832" y="-410"/>
      <point x="831" y="-59" type="curve" smooth="yes"/>
      <point x="831" y="1186" type="line"/>
      <point x="1130" y="1186" type="line"/>
    </contour>
  </outline>
</glyph>
<glyph name="Ghook" format="2">
  <advance width="2349"/>
  <unicode hex="0193"/>
  <outline>
    <contour>
      <point x="1974" y="1386" type="line"/>
      <point x="1974" y="1698" type="line" smooth="yes"/>
      <point x="1974" y="1866"/>
      <point x="2099" y="1899"/>
      <point x="2239" y="1899" type="curve" smooth="yes"/>
      <point x="2279" y="1899"/>
      <point x="2319" y="1893"/>
      <point x="2358" y="1889" type="curve"/>
      <point x="2358" y="2228" type="line"/>
      <point x="2289" y="2245"/>
      <point x="2225" y="2252"/>
      <point x="2158" y="2252" type="curve" smooth="yes"/>
      <point x="1822" y="2252"/>
      <point x="1539" y="2056"/>
      <point x="1535" y="1698" type="curve" smooth="yes"/>
      <point x="1533" y="1386" type="line"/>
    </contour>
    <component base="G"/>
  </outline>
</glyph>
<glyph name="Gamma1" format="2">
  <advance width="2098"/>
  <unicode hex="0194"/>
  <outline>
    <contour>
      <point x="117" y="2012" type="line"/>
      <point x="1002" y="166" type="line" smooth="yes"/>
      <point x="1091" y="-24"/>
      <point x="1130" y="-118"/>
      <point x="1130" y="-198" type="curve" smooth="yes"/>
      <point x="1130" y="-247"/>
      <point x="1114" y="-299"/>
      <point x="1049" y="-299" type="curve" smooth="yes"/>
      <point x="986" y="-299"/>
      <point x="967" y="-254"/>
      <point x="967" y="-198" type="curve" smooth="yes"/>
      <point x="967" y="-113"/>
      <point x="1014" y="-18"/>
      <point x="1100" y="166" type="curve" smooth="yes"/>
      <point x="1981" y="2012" type="line"/>
      <point x="1487" y="2012" type="line"/>
      <point x="918" y="686" type="line" smooth="yes"/>
      <point x="741" y="272"/>
      <point x="538" y="-78"/>
      <point x="538" y="-212" type="curve" smooth="yes"/>
      <point x="538" y="-487"/>
      <point x="776" y="-600"/>
      <point x="1049" y="-600" type="curve" smooth="yes"/>
      <point x="1322" y="-600"/>
      <point x="1548" y="-487"/>
      <point x="1548" y="-212" type="curve" smooth="yes"/>
      <point x="1548" y="-79"/>
      <point x="1358" y="277"/>
      <point x="1181" y="686" type="curve" smooth="yes"/>
      <point x="608" y="2012" type="line"/>
    </contour>
  </outline>
</glyph>
<glyph name="hv" format="2">
  <advance width="2767"/>
  <unicode hex="0195"/>
  <note>
Note: Must be split in two, or conversion to quadratic curves will fail.
</note>
  <outline>
    <contour>
      <point x="170" y="0" type="line"/>
      <point x="596" y="0" type="line"/>
      <point x="596" y="888" type="line" smooth="yes"/>
      <point x="597" y="1086"/>
      <point x="718" y="1202"/>
      <point x="892" y="1202" type="curve" smooth="yes"/>
      <point x="1065" y="1202"/>
      <point x="1166" y="1091"/>
      <point x="1166" y="902" type="curve" smooth="yes"/>
      <point x="1166" y="768" type="line"/>
      <point x="1592" y="768" type="line"/>
      <point x="1592" y="978" type="line" smooth="yes"/>
      <point x="1592" y="1338"/>
      <point x="1381" y="1556"/>
      <point x="1061" y="1556" type="curve" smooth="yes"/>
      <point x="828" y="1556"/>
      <point x="672" y="1446"/>
      <point x="602" y="1265" type="curve"/>
      <point x="584" y="1265" type="line"/>
      <point x="584" y="2048" type="line"/>
      <point x="170" y="2048" type="line"/>
    </contour>
    <contour>
      <point x="1786" y="-28" type="curve" smooth="yes"/>
      <point x="2339" y="-28"/>
      <point x="2597" y="426"/>
      <point x="2597" y="1366" type="curve"/>
      <point x="2597" y="1536" type="line"/>
      <point x="2171" y="1536" type="line"/>
      <point x="2171" y="1366" type="line" smooth="yes"/>
      <point x="2171" y="664"/>
      <point x="2040" y="324"/>
      <point x="1802" y="324" type="curve" smooth="yes"/>
      <point x="1697" y="324"/>
      <point x="1592" y="390"/>
      <point x="1592" y="598" type="curve"/>
      <point x="1592" y="768" type="line"/>
      <point x="1166" y="768" type="line"/>
      <point x="1166" y="598" type="line" smooth="yes"/>
      <point x="1166" y="202"/>
      <point x="1393" y="-28"/>
    </contour>
  </outline>
</glyph>
<glyph name="Iota1" format="2">
  <advance width="1094"/>
  <unicode hex="0196"/>
  <outline>
    <contour>
      <point x="571" y="2112" type="line"/>
      <point x="149" y="2112" type="line"/>
      <point x="149" y="498" type="line" smooth="yes"/>
      <point x="149" y="159"/>
      <point x="360" y="-28"/>
      <point x="721" y="-28" type="curve" smooth="yes"/>
      <point x="794" y="-28"/>
      <point x="870" y="-16"/>
      <point x="946" y="0" type="curve"/>
      <point x="914" y="323" type="line"/>
      <point x="874" y="315"/>
      <point x="842" y="310"/>
      <point x="777" y="310" type="curve" smooth="yes"/>
      <point x="643" y="310"/>
      <point x="571" y="377"/>
      <point x="571" y="498" type="curve" smooth="yes"/>
    </contour>
  </outline>
</glyph>
<glyph name="Khook" format="2">
  <advance width="2053"/>
  <unicode hex="0198"/>
  <outline>
    <contour>
      <point x="178" y="0" type="line"/>
      <point x="611" y="0" type="line"/>
      <point x="611" y="527" type="line"/>
      <point x="862" y="796" type="line"/>
      <point x="1464" y="0" type="line"/>
      <point x="1982" y="0" type="line"/>
      <point x="1137" y="1102" type="line"/>
      <point x="1620" y="1606" type="line" smooth="yes"/>
      <point x="1712" y="1701"/>
      <point x="1783" y="1734"/>
      <point x="1895" y="1675" type="curve"/>
      <point x="2034" y="1982" type="line"/>
      <point x="1776" y="2134"/>
      <point x="1521" y="2097"/>
      <point x="1310" y="1878" type="curve" smooth="yes"/>
      <point x="638" y="1166" type="line"/>
      <point x="611" y="1166" type="line"/>
      <point x="611" y="2048" type="line"/>
      <point x="178" y="2048" type="line"/>
    </contour>
  </outline>
</glyph>
<glyph name="khook" format="2">
  <advance width="1625"/>
  <unicode hex="0199"/>
  <outline>
    <contour>
      <point x="1150" y="0" type="line"/>
      <point x="1616" y="0" type="line"/>
      <point x="1001" y="880" type="line"/>
      <point x="1581" y="1536" type="line"/>
      <point x="1084" y="1536" type="line"/>
      <point x="616" y="998" type="line"/>
      <point x="596" y="998" type="line"/>
      <point x="596" y="1492" type="line"/>
      <point x="170" y="1492" type="line"/>
      <point x="170" y="0" type="line"/>
      <point x="596" y="0" type="line"/>
      <point x="596" y="414" type="line"/>
      <point x="744" y="576" type="line"/>
    </contour>
    <contour>
      <point x="596" y="1339" type="line"/>
      <point x="596" y="1594" type="line" smooth="yes"/>
      <point x="597" y="1714"/>
      <point x="702" y="1745"/>
      <point x="810" y="1745" type="curve" smooth="yes"/>
      <point x="846" y="1745"/>
      <point x="881" y="1741"/>
      <point x="915" y="1737" type="curve"/>
      <point x="915" y="2062" type="line"/>
      <point x="863" y="2069"/>
      <point x="787" y="2076"/>
      <point x="698" y="2076" type="curve" smooth="yes"/>
      <point x="438" y="2076"/>
      <point x="171" y="1990"/>
      <point x="170" y="1594" type="curve" smooth="yes"/>
      <point x="170" y="1339" type="line"/>
    </contour>
  </outline>
</glyph>
<glyph name="lambdabar" format="2">
  <advance width="1882"/>
  <unicode hex="019B"/>
  <outline>
    <contour>
      <point x="1095" y="1887" type="line"/>
      <point x="290" y="1632" type="line"/>
      <point x="290" y="1359" type="line"/>
      <point x="1095" y="1618" type="line"/>
    </contour>
    <contour>
      <point x="922" y="934" type="line"/>
      <point x="1006" y="1528" type="line"/>
      <point x="716" y="1530" type="line"/>
      <point x="150" y="0" type="line"/>
      <point x="602" y="0" type="line"/>
    </contour>
    <contour>
      <point x="550" y="2131" type="curve"/>
      <point x="489" y="2131"/>
      <point x="376" y="2121"/>
      <point x="315" y="2103" type="curve"/>
      <point x="325" y="1790" type="line"/>
      <point x="359" y="1794"/>
      <point x="386" y="1794"/>
      <point x="408" y="1794" type="curve" smooth="yes"/>
      <point x="504" y="1794"/>
      <point x="561" y="1756"/>
      <point x="595" y="1673" type="curve" smooth="yes"/>
      <point x="753" y="1318" type="line"/>
      <point x="1136" y="286" type="line" smooth="yes"/>
      <point x="1212" y="88"/>
      <point x="1336" y="-26"/>
      <point x="1568" y="-26" type="curve" smooth="yes"/>
      <point x="1632" y="-26"/>
      <point x="1686" y="-26"/>
      <point x="1724" y="-18" type="curve"/>
      <point x="1723" y="313" type="line"/>
      <point x="1712" y="313"/>
      <point x="1695" y="313"/>
      <point x="1675" y="313" type="curve" smooth="yes"/>
      <point x="1600" y="313"/>
      <point x="1558" y="390"/>
      <point x="1526" y="466" type="curve" smooth="yes"/>
      <point x="937" y="1894" type="line" smooth="yes"/>
      <point x="875" y="2045"/>
      <point x="757" y="2131"/>
    </contour>
  </outline>
</glyph>
<glyph name="mcapturn" format="2">
  <advance width="2686"/>
  <unicode hex="019C"/>
  <outline>
    <contour>
      <point x="2046" y="352" type="line"/>
      <point x="2087" y="0" type="line"/>
      <point x="2467" y="0" type="line"/>
      <point x="2467" y="2004" type="line"/>
      <point x="2046" y="2004" type="line"/>
    </contour>
    <contour>
      <point x="2095" y="692" type="line"/>
      <point x="2095" y="476"/>
      <point x="2010" y="310"/>
      <point x="1766" y="310" type="curve" smooth="yes"/>
      <point x="1638" y="310"/>
      <point x="1550" y="388"/>
      <point x="1550" y="584" type="curve"/>
      <point x="1550" y="2004" type="line"/>
      <point x="1134" y="2004" type="line"/>
      <point x="1134" y="584" type="line"/>
      <point x="1134" y="133"/>
      <point x="1334" y="-28"/>
      <point x="1643" y="-28" type="curve" smooth="yes"/>
      <point x="2030" y="-28"/>
      <point x="2228" y="280"/>
      <point x="2228" y="696" type="curve"/>
    </contour>
    <contour>
      <point x="1184" y="692" type="line"/>
      <point x="1184" y="474"/>
      <point x="1097" y="310"/>
      <point x="854" y="310" type="curve" smooth="yes"/>
      <point x="726" y="310"/>
      <point x="638" y="388"/>
      <point x="638" y="584" type="curve" smooth="yes"/>
      <point x="638" y="2004" type="line"/>
      <point x="221" y="2004" type="line"/>
      <point x="221" y="584" type="line" smooth="yes"/>
      <point x="221" y="137"/>
      <point x="394" y="-28"/>
      <point x="730" y="-28" type="curve" smooth="yes"/>
      <point x="1126" y="-28"/>
      <point x="1322" y="273"/>
      <point x="1322" y="696" type="curve"/>
    </contour>
  </outline>
</glyph>
<glyph name="Nhook" format="2">
  <advance width="2072"/>
  <unicode hex="019D"/>
  <outline>
    <contour>
      <point x="181" y="0" type="line"/>
      <point x="181" y="-93" type="line" smooth="yes"/>
      <point x="181" y="-212"/>
      <point x="80" y="-243"/>
      <point x="-32" y="-243" type="curve"/>
      <point x="-56" y="-243"/>
      <point x="-92" y="-244"/>
      <point x="-118" y="-240" type="curve"/>
      <point x="-118" y="-566" type="line"/>
      <point x="-68" y="-576"/>
      <point x="29" y="-576"/>
      <point x="81" y="-576" type="curve"/>
      <point x="344" y="-576"/>
      <point x="614" y="-490"/>
      <point x="614" y="-94" type="curve" smooth="yes"/>
      <point x="614" y="0" type="line"/>
    </contour>
    <component base="N" xOffset="2"/>
  </outline>
</glyph>
<glyph name="Ohorn" format="2">
  <advance width="2290"/>
  <unicode hex="01A0"/>
  <outline>
    <contour>
      <point x="1981" y="2148" type="line"/>
      <point x="1981" y="1899"/>
      <point x="1920" y="1754"/>
      <point x="1726" y="1754" type="curve"/>
      <point x="1726" y="1534" type="line"/>
      <point x="2092" y="1534"/>
      <point x="2255" y="1759"/>
      <point x="2255" y="2148" type="curve"/>
    </contour>
    <component base="O"/>
  </outline>
</glyph>
<glyph name="ohorn" format="2">
  <advance width="1780"/>
  <unicode hex="01A1"/>
  <outline>
    <contour>
      <point x="1526" y="1626" type="line"/>
      <point x="1526" y="1398"/>
      <point x="1482" y="1259"/>
      <point x="1270" y="1259" type="curve"/>
      <point x="1270" y="1089" type="line"/>
      <point x="1628" y="1089"/>
      <point x="1780" y="1288"/>
      <point x="1780" y="1626" type="curve"/>
    </contour>
    <component base="o"/>
  </outline>
</glyph>
<glyph name="OI" format="2">
  <advance width="2622"/>
  <unicode hex="01A2"/>
  <outline>
    <contour>
      <point x="1836" y="1170" type="line"/>
      <point x="1415" y="1170" type="line"/>
      <point x="1415" y="418" type="line"/>
      <point x="1365" y="377"/>
      <point x="1275" y="320"/>
      <point x="1074" y="320" type="curve" smooth="yes"/>
      <point x="736" y="320"/>
      <point x="597" y="569"/>
      <point x="598" y="942" type="curve" smooth="yes"/>
      <point x="598" y="1040" type="line"/>
      <point x="155" y="1036" type="line"/>
      <point x="155" y="942" type="line" smooth="yes"/>
      <point x="155" y="322"/>
      <point x="518" y="-28"/>
      <point x="1050" y="-28" type="curve" smooth="yes"/>
      <point x="1501" y="-28"/>
      <point x="1739" y="143"/>
      <point x="1836" y="255" type="curve"/>
    </contour>
    <contour>
      <point x="1836" y="1749" type="line"/>
      <point x="1739" y="1863"/>
      <point x="1503" y="2032"/>
      <point x="1050" y="2032" type="curve" smooth="yes"/>
      <point x="516" y="2032"/>
      <point x="155" y="1676"/>
      <point x="155" y="1062" type="curve" smooth="yes"/>
      <point x="155" y="958" type="line"/>
      <point x="598" y="956" type="line"/>
      <point x="598" y="1062" type="line" smooth="yes"/>
      <point x="597" y="1457"/>
      <point x="738" y="1682"/>
      <point x="1072" y="1682" type="curve" smooth="yes"/>
      <point x="1259" y="1682"/>
      <point x="1355" y="1639"/>
      <point x="1415" y="1586" type="curve"/>
      <point x="1415" y="827" type="line"/>
      <point x="1836" y="832" type="line"/>
    </contour>
    <contour>
      <point x="2466" y="2004" type="line"/>
      <point x="2151" y="2004" type="line"/>
      <point x="1609" y="1757" type="line"/>
      <point x="1609" y="1306" type="line"/>
      <point x="2049" y="1504" type="line"/>
      <point x="2049" y="-572" type="line"/>
      <point x="2466" y="-572" type="line"/>
    </contour>
  </outline>
</glyph>
<glyph name="oi" format="2">
  <advance width="2093"/>
  <unicode hex="01A3"/>
  <outline>
    <contour>
      <point x="814" y="310" type="curve" smooth="yes"/>
      <point x="587" y="310"/>
      <point x="530" y="497"/>
      <point x="530" y="726" type="curve" smooth="yes"/>
      <point x="530" y="762" type="line" smooth="yes"/>
      <point x="530" y="971"/>
      <point x="573" y="1181"/>
      <point x="810" y="1181" type="curve"/>
      <point x="896" y="1181"/>
      <point x="955" y="1152"/>
      <point x="998" y="1100" type="curve"/>
      <point x="998" y="782" type="line"/>
      <point x="1418" y="753" type="line"/>
      <point x="1418" y="1177" type="line"/>
      <point x="1332" y="1328"/>
      <point x="1123" y="1516"/>
      <point x="822" y="1516" type="curve" smooth="yes"/>
      <point x="345" y="1516"/>
      <point x="112" y="1185"/>
      <point x="113" y="762" type="curve" smooth="yes"/>
      <point x="113" y="726" type="line" smooth="yes"/>
      <point x="112" y="301"/>
      <point x="343" y="-28"/>
      <point x="822" y="-28" type="curve"/>
      <point x="1140" y="-28"/>
      <point x="1314" y="110"/>
      <point x="1418" y="279" type="curve"/>
      <point x="1418" y="842" type="line"/>
      <point x="998" y="842" type="line"/>
      <point x="998" y="372" type="line"/>
      <point x="955" y="331"/>
      <point x="892" y="310"/>
    </contour>
    <contour>
      <point x="1982" y="1488" type="line"/>
      <point x="1694" y="1488" type="line"/>
      <point x="1233" y="1287" type="line"/>
      <point x="1233" y="886" type="line"/>
      <point x="1562" y="1017" type="line"/>
      <point x="1562" y="-572" type="line"/>
      <point x="1982" y="-572" type="line"/>
    </contour>
  </outline>
</glyph>
<glyph name="phook" format="2">
  <advance width="1781"/>
  <unicode hex="01A5"/>
  <outline>
    <contour>
      <point x="590" y="1536" type="line"/>
      <point x="590" y="1617"/>
      <point x="644" y="1657"/>
      <point x="757" y="1655" type="curve" smooth="yes"/>
      <point x="812" y="1653"/>
      <point x="869" y="1642"/>
      <point x="893" y="1635" type="curve"/>
      <point x="893" y="1919" type="line"/>
      <point x="853" y="1929"/>
      <point x="775" y="1943"/>
      <point x="675" y="1943" type="curve" smooth="yes"/>
      <point x="329" y="1943"/>
      <point x="170" y="1824"/>
      <point x="170" y="1536" type="curve"/>
    </contour>
    <component base="p"/>
  </outline>
</glyph>
<glyph name="YR" format="2">
  <advance width="2147"/>
  <unicode hex="01A6"/>
  <outline>
    <contour>
      <point x="140" y="1864" type="line"/>
      <point x="577" y="1864" type="line"/>
      <point x="577" y="2144" type="line"/>
      <point x="140" y="2144" type="line"/>
    </contour>
    <contour>
      <point x="138" y="2004" type="line"/>
      <point x="138" y="0" type="line"/>
      <point x="577" y="0" type="line"/>
      <point x="577" y="1652" type="line"/>
      <point x="914" y="1652" type="line" smooth="yes"/>
      <point x="1134" y="1652"/>
      <point x="1242" y="1540"/>
      <point x="1242" y="1359" type="curve" smooth="yes"/>
      <point x="1242" y="1186"/>
      <point x="1129" y="1072"/>
      <point x="914" y="1072" type="curve" smooth="yes"/>
      <point x="424" y="1072" type="line"/>
      <point x="426" y="724" type="line"/>
      <point x="1090" y="724" type="line"/>
      <point x="1230" y="802" type="line"/>
      <point x="1501" y="897"/>
      <point x="1678" y="1064"/>
      <point x="1678" y="1398" type="curve" smooth="yes"/>
      <point x="1678" y="1792"/>
      <point x="1386" y="2004"/>
      <point x="914" y="2004" type="curve" smooth="yes"/>
    </contour>
    <contour>
      <point x="1542" y="-482" type="line"/>
      <point x="2010" y="-482" type="line"/>
      <point x="2010" y="-463" type="line"/>
      <point x="1279" y="893" type="line"/>
      <point x="818" y="893" type="line"/>
    </contour>
  </outline>
</glyph>
<glyph name="eshlooprev" format="2">
  <advance width="1837"/>
  <unicode hex="01AA"/>
  <outline>
    <contour>
      <point x="914" y="1392" type="line"/>
      <point x="914" y="-30" type="line" smooth="yes"/>
      <point x="913" y="-394"/>
      <point x="1111" y="-594"/>
      <point x="1444" y="-594" type="curve" smooth="yes"/>
      <point x="1517" y="-594"/>
      <point x="1589" y="-588"/>
      <point x="1652" y="-572" type="curve"/>
      <point x="1652" y="-243" type="line"/>
      <point x="1604" y="-251"/>
      <point x="1565" y="-255"/>
      <point x="1528" y="-255" type="curve" smooth="yes"/>
      <point x="1404" y="-255"/>
      <point x="1333" y="-184"/>
      <point x="1334" y="-30" type="curve" smooth="yes"/>
      <point x="1334" y="1606" type="line"/>
    </contour>
    <contour>
      <point x="185" y="1606" type="curve" smooth="yes"/>
      <point x="184" y="1295"/>
      <point x="442" y="1042"/>
      <point x="758" y="1042" type="curve" smooth="yes"/>
      <point x="1073" y="1042"/>
      <point x="1333" y="1298"/>
      <point x="1334" y="1606" type="curve" smooth="yes"/>
      <point x="1333" y="1914"/>
      <point x="1073" y="2170"/>
      <point x="758" y="2170" type="curve" smooth="yes"/>
      <point x="440" y="2170"/>
      <point x="184" y="1914"/>
    </contour>
    <contour>
      <point x="761" y="1400" type="curve" smooth="yes"/>
      <point x="640" y="1400"/>
      <point x="552" y="1470"/>
      <point x="554" y="1610" type="curve" smooth="yes"/>
      <point x="552" y="1745"/>
      <point x="640" y="1816"/>
      <point x="761" y="1816" type="curve" smooth="yes"/>
      <point x="868" y="1816"/>
      <point x="960" y="1747"/>
      <point x="962" y="1610" type="curve" smooth="yes"/>
      <point x="960" y="1470"/>
      <point x="871" y="1400"/>
    </contour>
  </outline>
</glyph>
<glyph name="tpalatalhook" format="2">
  <advance width="1104"/>
  <unicode hex="01AB"/>
  <outline>
    <contour>
      <point x="727" y="294" type="line"/>
      <point x="727" y="-94" type="line" smooth="yes"/>
      <point x="727" y="-247"/>
      <point x="595" y="-281"/>
      <point x="486" y="-281" type="curve" smooth="yes"/>
      <point x="443" y="-281"/>
      <point x="411" y="-277"/>
      <point x="379" y="-273" type="curve"/>
      <point x="379" y="-554" type="line"/>
      <point x="439" y="-569"/>
      <point x="493" y="-574"/>
      <point x="558" y="-574" type="curve" smooth="yes"/>
      <point x="842" y="-574"/>
      <point x="1026" y="-402"/>
      <point x="1026" y="-94" type="curve" smooth="yes"/>
      <point x="1026" y="357" type="line"/>
    </contour>
    <component base="t"/>
  </outline>
</glyph>
<glyph name="Thook" format="2">
  <advance width="1980"/>
  <unicode hex="01AC"/>
  <note>
!post:RemoveOverlap
</note>
  <outline>
    <contour>
      <point x="1038" y="2048" type="line"/>
      <point x="662" y="2048" type="line" smooth="yes"/>
      <point x="298" y="2048"/>
      <point x="100" y="1846"/>
      <point x="100" y="1519" type="curve" smooth="yes"/>
      <point x="100" y="1322" type="line"/>
      <point x="458" y="1322" type="line"/>
      <point x="458" y="1442" type="line" smooth="yes"/>
      <point x="458" y="1565"/>
      <point x="496" y="1691"/>
      <point x="662" y="1691" type="curve" smooth="yes"/>
      <point x="1038" y="1691" type="line"/>
    </contour>
    <contour>
      <point x="1880" y="2048" type="line"/>
      <point x="737" y="2048" type="line"/>
      <point x="737" y="1691" type="line"/>
      <point x="825" y="1691" type="line"/>
      <point x="825" y="0" type="line"/>
      <point x="1253" y="0" type="line"/>
      <point x="1253" y="1691" type="line"/>
      <point x="1880" y="1691" type="line"/>
    </contour>
  </outline>
</glyph>
<glyph name="thook" format="2">
  <advance width="1310"/>
  <unicode hex="01AD"/>
  <outline>
    <contour>
      <point x="804" y="1434" type="line"/>
      <point x="804" y="1688" type="line" smooth="yes"/>
      <point x="804" y="1843"/>
      <point x="932" y="1882"/>
      <point x="1043" y="1882" type="curve" smooth="yes"/>
      <point x="1082" y="1882"/>
      <point x="1122" y="1876"/>
      <point x="1146" y="1870" type="curve"/>
      <point x="1146" y="2148" type="line"/>
      <point x="1086" y="2162"/>
      <point x="1023" y="2170"/>
      <point x="928" y="2170" type="curve" smooth="yes"/>
      <point x="635" y="2170"/>
      <point x="386" y="2074"/>
      <point x="386" y="1688" type="curve" smooth="yes"/>
      <point x="386" y="1434" type="line"/>
    </contour>
    <contour>
      <point x="1066" y="1488" type="line"/>
      <point x="166" y="1488" type="line"/>
      <point x="166" y="1186" type="line"/>
      <point x="1066" y="1186" type="line"/>
    </contour>
    <contour>
      <point x="386" y="1582" type="line"/>
      <point x="386" y="426" type="line"/>
      <point x="386" y="103"/>
      <point x="558" y="-28"/>
      <point x="830" y="-28" type="curve" smooth="yes"/>
      <point x="926" y="-28"/>
      <point x="1009" y="-17"/>
      <point x="1082" y="10" type="curve"/>
      <point x="1082" y="323" type="line"/>
      <point x="1051" y="319"/>
      <point x="1014" y="314"/>
      <point x="962" y="314" type="curve" smooth="yes"/>
      <point x="858" y="314"/>
      <point x="804" y="349"/>
      <point x="804" y="472" type="curve"/>
      <point x="804" y="1582" type="line"/>
    </contour>
  </outline>
</glyph>
<glyph name="Trthook" format="2">
  <advance width="1882"/>
  <unicode hex="01AE"/>
  <outline>
    <contour>
      <point x="1155" y="0" type="line"/>
      <point x="727" y="0" type="line"/>
      <point x="727" y="-94" type="line" smooth="yes"/>
      <point x="727" y="-490"/>
      <point x="995" y="-576"/>
      <point x="1261" y="-576" type="curve"/>
      <point x="1459" y="-576" type="line"/>
      <point x="1459" y="-241" type="line"/>
      <point x="1374" y="-241" type="line"/>
      <point x="1264" y="-241"/>
      <point x="1155" y="-214"/>
      <point x="1155" y="-94" type="curve" smooth="yes"/>
    </contour>
    <component base="T"/>
  </outline>
</glyph>
<glyph name="Uhorn" format="2">
  <advance width="2450"/>
  <unicode hex="01AF"/>
  <outline>
    <contour>
      <point x="2075" y="2122" type="line"/>
      <point x="2075" y="1858"/>
      <point x="2047" y="1698"/>
      <point x="1741" y="1698" type="curve"/>
      <point x="1741" y="1474" type="line"/>
      <point x="2210" y="1474"/>
      <point x="2350" y="1713"/>
      <point x="2350" y="2122" type="curve"/>
    </contour>
    <component base="U"/>
  </outline>
</glyph>
<glyph name="uhorn" format="2">
  <advance width="1997"/>
  <unicode hex="01B0"/>
  <outline>
    <contour>
      <point x="1794" y="1621" type="line"/>
      <point x="1793" y="1394"/>
      <point x="1763" y="1284"/>
      <point x="1485" y="1284" type="curve"/>
      <point x="1485" y="1094" type="line"/>
      <point x="1906" y="1094"/>
      <point x="2040" y="1274"/>
      <point x="2041" y="1621" type="curve"/>
    </contour>
    <component base="u" xOffset="10"/>
  </outline>
</glyph>
<glyph name="Upsilon2" format="2">
  <advance width="2192"/>
  <unicode hex="01B1"/>
  <outline>
    <contour>
      <point x="127" y="937" type="curve" smooth="yes"/>
      <point x="127" y="372"/>
      <point x="530" y="-28"/>
      <point x="1096" y="-28" type="curve" smooth="yes"/>
      <point x="1662" y="-28"/>
      <point x="2065" y="372"/>
      <point x="2065" y="937" type="curve"/>
      <point x="2065" y="1279"/>
      <point x="1918" y="1526"/>
      <point x="1682" y="1675" type="curve"/>
      <point x="1682" y="1691" type="line"/>
      <point x="2065" y="1691" type="line"/>
      <point x="2065" y="2048" type="line"/>
      <point x="1253" y="2048" type="line"/>
      <point x="1253" y="1600" type="line"/>
      <point x="1469" y="1512"/>
      <point x="1628" y="1268"/>
      <point x="1628" y="970" type="curve" smooth="yes"/>
      <point x="1628" y="619"/>
      <point x="1407" y="358"/>
      <point x="1096" y="358" type="curve" smooth="yes"/>
      <point x="785" y="358"/>
      <point x="564" y="619"/>
      <point x="564" y="970" type="curve"/>
      <point x="564" y="1268"/>
      <point x="723" y="1512"/>
      <point x="939" y="1600" type="curve"/>
      <point x="939" y="2048" type="line"/>
      <point x="127" y="2048" type="line"/>
      <point x="127" y="1691" type="line"/>
      <point x="510" y="1691" type="line"/>
      <point x="510" y="1675" type="line"/>
      <point x="274" y="1525"/>
      <point x="127" y="1279"/>
    </contour>
  </outline>
</glyph>
<glyph name="Vcursive" format="2">
  <advance width="1882"/>
  <unicode hex="01B2"/>
  <outline>
    <contour>
      <point x="943" y="-28" type="curve" smooth="yes"/>
      <point x="1406" y="-28"/>
      <point x="1738" y="225"/>
      <point x="1738" y="689" type="curve" smooth="yes"/>
      <point x="1738" y="1466" type="line" smooth="yes"/>
      <point x="1738" y="1829"/>
      <point x="1528" y="2030"/>
      <point x="1191" y="2030" type="curve" smooth="yes"/>
      <point x="1114" y="2030"/>
      <point x="1052" y="2022"/>
      <point x="985" y="2006" type="curve"/>
      <point x="985" y="1661" type="line"/>
      <point x="1029" y="1669"/>
      <point x="1071" y="1671"/>
      <point x="1106" y="1671" type="curve" smooth="yes"/>
      <point x="1248" y="1671"/>
      <point x="1297" y="1622"/>
      <point x="1296" y="1466" type="curve" smooth="yes"/>
      <point x="1296" y="689" type="line" smooth="yes"/>
      <point x="1297" y="448"/>
      <point x="1183" y="320"/>
      <point x="943" y="320" type="curve" smooth="yes"/>
      <point x="702" y="320"/>
      <point x="584" y="448"/>
      <point x="583" y="689" type="curve" smooth="yes"/>
      <point x="583" y="2004" type="line"/>
      <point x="148" y="2004" type="line"/>
      <point x="148" y="689" type="line" smooth="yes"/>
      <point x="149" y="222"/>
      <point x="479" y="-28"/>
    </contour>
  </outline>
</glyph>
<glyph name="Yhook" format="2">
  <advance width="2223"/>
  <unicode hex="01B3"/>
  <note>
!post:RemoveOverlap
</note>
  <outline>
    <contour>
      <point x="1762" y="1514" type="line"/>
      <point x="1799" y="1577" type="line" smooth="yes"/>
      <point x="1878" y="1714"/>
      <point x="1953" y="1742"/>
      <point x="2089" y="1700" type="curve"/>
      <point x="2182" y="2025" type="line"/>
      <point x="1929" y="2122"/>
      <point x="1641" y="2083"/>
      <point x="1467" y="1784" type="curve" smooth="yes"/>
      <point x="1402" y="1671" type="line"/>
    </contour>
    <contour>
      <point x="1060" y="1118" type="line"/>
      <point x="1108" y="1118" type="line"/>
      <point x="1108" y="1166" type="line"/>
      <point x="1060" y="1166" type="line"/>
    </contour>
    <contour>
      <point x="545" y="2048" type="line"/>
      <point x="74" y="2048" type="line"/>
      <point x="869" y="791" type="line"/>
      <point x="869" y="0" type="line"/>
      <point x="1299" y="0" type="line"/>
      <point x="1299" y="791" type="line"/>
      <point x="1762" y="1514" type="line"/>
      <point x="1402" y="1671" type="line"/>
      <point x="1084" y="1146" type="line"/>
    </contour>
  </outline>
</glyph>
<glyph name="yhook" format="2">
  <advance width="1757"/>
  <unicode hex="01B4"/>
  <outline>
    <contour>
      <point x="1457" y="1278" type="line"/>
      <point x="1477" y="1336" type="line" smooth="yes"/>
      <point x="1521" y="1456"/>
      <point x="1559" y="1519"/>
      <point x="1658" y="1544" type="curve" smooth="yes"/>
      <point x="1693" y="1551"/>
      <point x="1731" y="1546"/>
      <point x="1780" y="1535" type="curve"/>
      <point x="1813" y="1865" type="line"/>
      <point x="1641" y="1887"/>
      <point x="1549" y="1899"/>
      <point x="1442" y="1868" type="curve" smooth="yes"/>
      <point x="1260" y="1830"/>
      <point x="1149" y="1676"/>
      <point x="1090" y="1502" type="curve" smooth="yes"/>
      <point x="1053" y="1386" type="line"/>
    </contour>
    <contour>
      <point x="604" y="-42" type="line" smooth="yes"/>
      <point x="565" y="-171"/>
      <point x="488" y="-248"/>
      <point x="301" y="-248" type="curve"/>
      <point x="274" y="-248"/>
      <point x="253" y="-246"/>
      <point x="228" y="-242" type="curve"/>
      <point x="228" y="-573" type="line"/>
      <point x="295" y="-595"/>
      <point x="342" y="-600"/>
      <point x="420" y="-600" type="curve" smooth="yes"/>
      <point x="736" y="-600"/>
      <point x="910" y="-387"/>
      <point x="965" y="-221" type="curve" smooth="yes"/>
      <point x="1457" y="1278" type="line"/>
      <point x="1053" y="1386" type="line"/>
      <point x="815" y="658" type="line"/>
      <point x="513" y="1536" type="line"/>
      <point x="70" y="1536" type="line"/>
      <point x="630" y="41" type="line"/>
    </contour>
  </outline>
</glyph>
<glyph name="Ezh" format="2">
  <advance width="1932"/>
  <unicode hex="01B7"/>
  <outline>
    <contour>
      <point x="100" y="180" type="line"/>
      <point x="114" y="-254"/>
      <point x="489" y="-557"/>
      <point x="958" y="-557" type="curve" smooth="yes"/>
      <point x="1491" y="-557"/>
      <point x="1830" y="-162"/>
      <point x="1830" y="314" type="curve" smooth="yes"/>
      <point x="1830" y="705"/>
      <point x="1598" y="1080"/>
      <point x="1111" y="1122" type="curve"/>
      <point x="1111" y="1142" type="line"/>
      <point x="1778" y="1736" type="line"/>
      <point x="1778" y="2048" type="line"/>
      <point x="214" y="2048" type="line"/>
      <point x="214" y="1685" type="line"/>
      <point x="1239" y="1685" type="line"/>
      <point x="1239" y="1669" type="line"/>
      <point x="668" y="1160" type="line"/>
      <point x="668" y="846" type="line"/>
      <point x="890" y="846" type="line" smooth="yes"/>
      <point x="1184" y="846"/>
      <point x="1382" y="628"/>
      <point x="1382" y="335" type="curve" smooth="yes"/>
      <point x="1382" y="74"/>
      <point x="1237" y="-191"/>
      <point x="962" y="-191" type="curve" smooth="yes"/>
      <point x="754" y="-191"/>
      <point x="549" y="-43"/>
      <point x="537" y="180" type="curve"/>
    </contour>
  </outline>
</glyph>
<glyph name="ezhtail" format="2">
  <advance width="1621"/>
  <unicode hex="01BA"/>
  <outline>
    <contour>
      <point x="222" y="1488" type="line"/>
      <point x="222" y="1153" type="line"/>
      <point x="798" y="1153" type="line"/>
      <point x="465" y="888" type="line"/>
      <point x="465" y="646" type="line"/>
      <point x="758" y="646" type="line"/>
      <point x="1463" y="1253" type="line"/>
      <point x="1463" y="1488" type="line"/>
    </contour>
    <contour>
      <point x="554" y="-159" type="curve" smooth="yes"/>
      <point x="552" y="-82"/>
      <point x="612" y="-28"/>
      <point x="868" y="23" type="curve" smooth="yes"/>
      <point x="1139" y="78"/>
      <point x="1410" y="199"/>
      <point x="1411" y="478" type="curve" smooth="yes"/>
      <point x="1410" y="726"/>
      <point x="1183" y="936"/>
      <point x="798" y="936" type="curve" smooth="yes"/>
      <point x="617" y="936" type="line"/>
      <point x="617" y="646" type="line"/>
      <point x="798" y="646" type="line" smooth="yes"/>
      <point x="927" y="646"/>
      <point x="1007" y="590"/>
      <point x="1008" y="498" type="curve" smooth="yes"/>
      <point x="1007" y="400"/>
      <point x="927" y="364"/>
      <point x="708" y="322" type="curve" smooth="yes"/>
      <point x="340" y="253"/>
      <point x="146" y="120"/>
      <point x="147" y="-142" type="curve" smooth="yes"/>
      <point x="146" y="-406"/>
      <point x="400" y="-600"/>
      <point x="797" y="-600" type="curve" smooth="yes"/>
      <point x="1225" y="-600"/>
      <point x="1458" y="-339"/>
      <point x="1459" y="-98" type="curve"/>
      <point x="1062" y="-98" type="line"/>
      <point x="1054" y="-258"/>
      <point x="916" y="-306"/>
      <point x="787" y="-306" type="curve" smooth="yes"/>
      <point x="648" y="-306"/>
      <point x="552" y="-255"/>
    </contour>
  </outline>
</glyph>
<glyph name="Tonefive" format="2">
  <advance width="1790"/>
  <unicode hex="01BC"/>
  <outline>
    <contour>
      <point x="543" y="2048" type="line"/>
      <point x="99" y="2048" type="line"/>
      <point x="99" y="1694" type="line"/>
      <point x="543" y="1694" type="line"/>
    </contour>
    <component base="five" xOffset="48"/>
  </outline>
</glyph>
<glyph name="tonefive" format="2">
  <advance width="1844"/>
  <unicode hex="01BD"/>
  <outline>
    <contour>
      <point x="747" y="634" type="line"/>
      <point x="784" y="671"/>
      <point x="855" y="701"/>
      <point x="975" y="701" type="curve" smooth="yes"/>
      <point x="1133" y="701"/>
      <point x="1223" y="624"/>
      <point x="1223" y="510" type="curve" smooth="yes"/>
      <point x="1223" y="391"/>
      <point x="1146" y="315"/>
      <point x="979" y="315" type="curve" smooth="yes"/>
      <point x="827" y="315"/>
      <point x="728" y="363"/>
      <point x="719" y="463" type="curve"/>
      <point x="304" y="444" type="line"/>
      <point x="303" y="118"/>
      <point x="636" y="-24"/>
      <point x="979" y="-24" type="curve" smooth="yes"/>
      <point x="1449" y="-24"/>
      <point x="1641" y="192"/>
      <point x="1642" y="482" type="curve" smooth="yes"/>
      <point x="1641" y="797"/>
      <point x="1438" y="982"/>
      <point x="1092" y="978" type="curve" smooth="yes"/>
      <point x="961" y="977"/>
      <point x="847" y="944"/>
      <point x="785" y="911" type="curve"/>
      <point x="822" y="1158" type="line"/>
      <point x="1537" y="1158" type="line"/>
      <point x="1537" y="1488" type="line"/>
      <point x="480" y="1488" type="line"/>
      <point x="367" y="651" type="line"/>
    </contour>
    <contour>
      <point x="640" y="1488" type="line"/>
      <point x="202" y="1488" type="line"/>
      <point x="202" y="1158" type="line"/>
      <point x="640" y="1158" type="line"/>
    </contour>
  </outline>
</glyph>
<glyph name="glottalstopbarinv" format="2">
  <advance width="1621"/>
  <unicode hex="01BE"/>
  <outline>
    <contour>
      <point x="1060" y="415" type="curve" smooth="yes"/>
      <point x="1061" y="321"/>
      <point x="972" y="266"/>
      <point x="828" y="266" type="curve" smooth="yes"/>
      <point x="700" y="266"/>
      <point x="562" y="318"/>
      <point x="553" y="475" type="curve"/>
      <point x="154" y="475" type="line"/>
      <point x="156" y="238"/>
      <point x="388" y="-28"/>
      <point x="821" y="-28" type="curve" smooth="yes"/>
      <point x="1216" y="-28"/>
      <point x="1469" y="166"/>
      <point x="1468" y="430" type="curve" smooth="yes"/>
      <point x="1469" y="880"/>
      <point x="964" y="737"/>
      <point x="963" y="1125" type="curve" smooth="yes"/>
      <point x="963" y="1858" type="line"/>
      <point x="541" y="1858" type="line"/>
      <point x="541" y="1129" type="line" smooth="yes"/>
      <point x="542" y="593"/>
      <point x="1061" y="642"/>
    </contour>
    <contour>
      <point x="1223" y="1488" type="line"/>
      <point x="323" y="1488" type="line"/>
      <point x="323" y="1186" type="line"/>
      <point x="1223" y="1186" type="line"/>
    </contour>
  </outline>
</glyph>
<glyph name="wynn" format="2">
  <advance width="1898"/>
  <unicode hex="01BF"/>
  <outline>
    <contour>
      <point x="677" y="1204" type="line"/>
      <point x="648" y="1488" type="line"/>
      <point x="254" y="1488" type="line"/>
      <point x="254" y="-572" type="line"/>
      <point x="677" y="-572" type="line"/>
    </contour>
    <contour>
      <point x="629" y="809" type="line"/>
      <point x="636" y="1046"/>
      <point x="719" y="1180"/>
      <point x="935" y="1180" type="curve" smooth="yes"/>
      <point x="1149" y="1180"/>
      <point x="1221" y="989"/>
      <point x="1222" y="763" type="curve" smooth="yes"/>
      <point x="1222" y="730" type="line" smooth="yes"/>
      <point x="1221" y="325"/>
      <point x="923" y="108"/>
      <point x="500" y="56" type="curve"/>
      <point x="536" y="-274" type="line"/>
      <point x="1239" y="-106"/>
      <point x="1643" y="149"/>
      <point x="1644" y="730" type="curve" smooth="yes"/>
      <point x="1644" y="763" type="line" smooth="yes"/>
      <point x="1643" y="1213"/>
      <point x="1432" y="1516"/>
      <point x="1046" y="1516" type="curve" smooth="yes"/>
      <point x="665" y="1516"/>
      <point x="509" y="1187"/>
      <point x="454" y="762" type="curve"/>
    </contour>
  </outline>
</glyph>
<glyph name="pipe" format="2">
  <advance width="844"/>
  <unicode hex="01C0"/>
  <outline>
    <contour>
      <point x="546" y="2012" type="line"/>
      <point x="298" y="2012" type="line"/>
      <point x="298" y="0" type="line"/>
      <point x="546" y="0" type="line"/>
    </contour>
  </outline>
</glyph>
<glyph name="Gbar" format="2">
  <advance width="2142"/>
  <unicode hex="01E4"/>
  <outline>
    <contour>
      <point x="2090" y="662" type="line"/>
      <point x="1138" y="662" type="line"/>
      <point x="1138" y="508" type="line"/>
      <point x="2090" y="508" type="line"/>
    </contour>
    <component base="G"/>
  </outline>
</glyph>
<glyph name="uni01F6" format="2">
  <advance width="3162"/>
  <unicode hex="01F6"/>
  <outline>
    <contour>
      <point x="2243" y="-28" type="curve" smooth="yes"/>
      <point x="2701" y="-28"/>
      <point x="2992" y="232"/>
      <point x="2992" y="689" type="curve" smooth="yes"/>
      <point x="2992" y="1495" type="line"/>
      <point x="2559" y="1495" type="line"/>
      <point x="2559" y="689" type="line" smooth="yes"/>
      <point x="2559" y="458"/>
      <point x="2444" y="337"/>
      <point x="2243" y="337" type="curve" smooth="yes"/>
      <point x="2042" y="337"/>
      <point x="1922" y="458"/>
      <point x="1922" y="689" type="curve" smooth="yes"/>
      <point x="1922" y="2048" type="line"/>
      <point x="1490" y="2048" type="line"/>
      <point x="1490" y="1203" type="line"/>
      <point x="611" y="1203" type="line"/>
      <point x="611" y="2048" type="line"/>
      <point x="178" y="2048" type="line"/>
      <point x="178" y="0" type="line"/>
      <point x="611" y="0" type="line"/>
      <point x="611" y="846" type="line"/>
      <point x="1490" y="846" type="line"/>
      <point x="1490" y="689" type="line" smooth="yes"/>
      <point x="1490" y="235"/>
      <point x="1783" y="-28"/>
    </contour>
  </outline>
</glyph>
<glyph name="uni01F7" format="2">
  <advance width="2107"/>
  <unicode hex="01F7"/>
  <outline>
    <contour>
      <point x="670" y="2004" type="line"/>
      <point x="235" y="2004" type="line"/>
      <point x="235" y="-572" type="line"/>
      <point x="670" y="-572" type="line"/>
    </contour>
    <contour>
      <point x="474" y="-258" type="line"/>
      <point x="1360" y="-40"/>
      <point x="1876" y="465"/>
      <point x="1877" y="1076" type="curve" smooth="yes"/>
      <point x="1877" y="1148" type="line" smooth="yes"/>
      <point x="1876" y="1718"/>
      <point x="1535" y="2032"/>
      <point x="1014" y="2032" type="curve" smooth="yes"/>
      <point x="807" y="2032"/>
      <point x="633" y="1963"/>
      <point x="540" y="1866" type="curve"/>
      <point x="540" y="1309" type="line"/>
      <point x="597" y="1523"/>
      <point x="781" y="1682"/>
      <point x="1014" y="1682" type="curve" smooth="yes"/>
      <point x="1362" y="1682"/>
      <point x="1431" y="1429"/>
      <point x="1432" y="1152" type="curve" smooth="yes"/>
      <point x="1432" y="1076" type="line" smooth="yes"/>
      <point x="1431" y="649"/>
      <point x="1116" y="270"/>
      <point x="474" y="95" type="curve"/>
    </contour>
  </outline>
</glyph>
<glyph name="uni021C" format="2">
  <advance width="1886"/>
  <unicode hex="021C"/>
  <outline>
    <contour>
      <point x="326" y="418" type="line"/>
      <point x="1178" y="627"/>
      <point x="1683" y="915"/>
      <point x="1683" y="1460" type="curve" smooth="yes"/>
      <point x="1683" y="1832"/>
      <point x="1378" y="2030"/>
      <point x="916" y="2030" type="curve" smooth="yes"/>
      <point x="526" y="2030"/>
      <point x="175" y="1823"/>
      <point x="175" y="1459" type="curve"/>
      <point x="610" y="1459" type="line"/>
      <point x="610" y="1603"/>
      <point x="754" y="1680"/>
      <point x="916" y="1680" type="curve" smooth="yes"/>
      <point x="1156" y="1680"/>
      <point x="1250" y="1567"/>
      <point x="1250" y="1404" type="curve" smooth="yes"/>
      <point x="1250" y="1090"/>
      <point x="1028" y="950"/>
      <point x="326" y="743" type="curve"/>
    </contour>
    <contour>
      <point x="1035" y="752" type="line"/>
      <point x="1194" y="742"/>
      <point x="1276" y="690"/>
      <point x="1276" y="483" type="curve" smooth="yes"/>
      <point x="1276" y="108"/>
      <point x="945" y="-136"/>
      <point x="326" y="-254" type="curve"/>
      <point x="326" y="-600" type="line"/>
      <point x="1126" y="-489"/>
      <point x="1713" y="-142"/>
      <point x="1713" y="474" type="curve" smooth="yes"/>
      <point x="1713" y="796"/>
      <point x="1480" y="992"/>
      <point x="1122" y="1004" type="curve"/>
    </contour>
  </outline>
</glyph>
<glyph name="uni021D" format="2">
  <advance width="1623"/>
  <unicode hex="021D"/>
  <outline>
    <contour>
      <point x="338" y="214" type="line"/>
      <point x="1046" y="401"/>
      <point x="1426" y="660"/>
      <point x="1427" y="1080" type="curve" smooth="yes"/>
      <point x="1426" y="1364"/>
      <point x="1176" y="1516"/>
      <point x="787" y="1516" type="curve" smooth="yes"/>
      <point x="448" y="1516"/>
      <point x="168" y="1344"/>
      <point x="170" y="1058" type="curve"/>
      <point x="590" y="1058" type="line"/>
      <point x="589" y="1153"/>
      <point x="680" y="1202"/>
      <point x="811" y="1202" type="curve" smooth="yes"/>
      <point x="964" y="1202"/>
      <point x="1006" y="1121"/>
      <point x="1007" y="1020" type="curve" smooth="yes"/>
      <point x="1006" y="790"/>
      <point x="757" y="649"/>
      <point x="338" y="516" type="curve"/>
    </contour>
    <contour>
      <point x="840" y="547" type="line"/>
      <point x="940" y="538"/>
      <point x="1032" y="451"/>
      <point x="1033" y="286" type="curve" smooth="yes"/>
      <point x="1032" y="3"/>
      <point x="810" y="-130"/>
      <point x="338" y="-290" type="curve"/>
      <point x="338" y="-600" type="line"/>
      <point x="1021" y="-466"/>
      <point x="1454" y="-195"/>
      <point x="1455" y="258" type="curve" smooth="yes"/>
      <point x="1454" y="558"/>
      <point x="1252" y="706"/>
      <point x="927" y="721" type="curve"/>
    </contour>
  </outline>
</glyph>
<glyph name="uni0220" format="2">
  <advance width="1891"/>
  <unicode hex="0220"/>
  <outline>
    <contour>
      <point x="1705" y="-572" type="line"/>
      <point x="1705" y="1414" type="line" smooth="yes"/>
      <point x="1704" y="1808"/>
      <point x="1395" y="2032"/>
      <point x="1008" y="2032" type="curve" smooth="yes"/>
      <point x="716" y="2032"/>
      <point x="489" y="1885"/>
      <point x="344" y="1731" type="curve"/>
      <point x="344" y="1348" type="line"/>
      <point x="529" y="1580"/>
      <point x="736" y="1696"/>
      <point x="960" y="1696" type="curve" smooth="yes"/>
      <point x="1186" y="1696"/>
      <point x="1279" y="1591"/>
      <point x="1280" y="1414" type="curve" smooth="yes"/>
      <point x="1280" y="-572" type="line"/>
    </contour>
    <contour>
      <point x="611" y="2004" type="line"/>
      <point x="190" y="2004" type="line"/>
      <point x="190" y="0" type="line"/>
      <point x="611" y="0" type="line"/>
    </contour>
  </outline>
</glyph>
<glyph name="uni0221" format="2">
  <advance width="2022"/>
  <unicode hex="0221"/>
  <outline>
    <contour>
      <point x="1182" y="343" type="line"/>
      <point x="1182" y="-67" type="line"/>
      <point x="1183" y="-350"/>
      <point x="1325" y="-576"/>
      <point x="1746" y="-576" type="curve" smooth="yes"/>
      <point x="2078" y="-576"/>
      <point x="2251" y="-438"/>
      <point x="2250" y="-219" type="curve" smooth="yes"/>
      <point x="2251" y="10"/>
      <point x="2061" y="169"/>
      <point x="1732" y="169" type="curve" smooth="yes"/>
      <point x="1537" y="169"/>
      <point x="1371" y="110"/>
      <point x="1216" y="5" type="curve"/>
      <point x="827" y="-310" type="line"/>
      <point x="1013" y="-565" type="line"/>
      <point x="1425" y="-233" type="line" smooth="yes"/>
      <point x="1548" y="-141"/>
      <point x="1653" y="-83"/>
      <point x="1736" y="-87" type="curve" smooth="yes"/>
      <point x="1837" y="-88"/>
      <point x="1885" y="-142"/>
      <point x="1884" y="-210" type="curve" smooth="yes"/>
      <point x="1885" y="-275"/>
      <point x="1830" y="-322"/>
      <point x="1755" y="-322" type="curve" smooth="yes"/>
      <point x="1677" y="-322"/>
      <point x="1611" y="-274"/>
      <point x="1610" y="-166" type="curve"/>
      <point x="1610" y="343" type="line"/>
    </contour>
    <component base="d" xOffset="5"/>
  </outline>
</glyph>
<glyph name="uni0222" format="2">
  <advance width="1889"/>
  <unicode hex="0222"/>
  <outline>
    <contour>
      <point x="932" y="1272" type="line"/>
      <point x="482" y="1272"/>
      <point x="145" y="1069"/>
      <point x="146" y="637" type="curve" smooth="yes"/>
      <point x="145" y="207"/>
      <point x="479" y="-28"/>
      <point x="932" y="-28" type="curve" smooth="yes"/>
      <point x="962" y="-28" type="line" smooth="yes"/>
      <point x="1411" y="-28"/>
      <point x="1743" y="207"/>
      <point x="1743" y="641" type="curve" smooth="yes"/>
      <point x="1743" y="1069"/>
      <point x="1408" y="1272"/>
      <point x="962" y="1272" type="curve" smooth="yes"/>
    </contour>
    <contour>
      <point x="962" y="962" type="line"/>
      <point x="1179" y="962"/>
      <point x="1300" y="837"/>
      <point x="1301" y="641" type="curve" smooth="yes"/>
      <point x="1300" y="439"/>
      <point x="1179" y="318"/>
      <point x="962" y="318" type="curve" smooth="yes"/>
      <point x="932" y="318" type="line" smooth="yes"/>
      <point x="715" y="318"/>
      <point x="587" y="439"/>
      <point x="588" y="637" type="curve" smooth="yes"/>
      <point x="587" y="842"/>
      <point x="718" y="962"/>
      <point x="932" y="962" type="curve" smooth="yes"/>
    </contour>
    <contour>
      <point x="925" y="1316" type="line"/>
      <point x="703" y="1316"/>
      <point x="587" y="1374"/>
      <point x="588" y="1525" type="curve" smooth="yes"/>
      <point x="587" y="1632"/>
      <point x="642" y="1671"/>
      <point x="752" y="1696" type="curve"/>
      <point x="752" y="2032" type="line"/>
      <point x="396" y="2030"/>
      <point x="145" y="1871"/>
      <point x="146" y="1525" type="curve" smooth="yes"/>
      <point x="145" y="1155"/>
      <point x="485" y="1009"/>
      <point x="925" y="1009" type="curve" smooth="yes"/>
      <point x="964" y="1009" type="line" smooth="yes"/>
      <point x="1400" y="1009"/>
      <point x="1747" y="1155"/>
      <point x="1748" y="1525" type="curve" smooth="yes"/>
      <point x="1747" y="1871"/>
      <point x="1493" y="2030"/>
      <point x="1139" y="2032" type="curve"/>
      <point x="1139" y="1696" type="line"/>
      <point x="1246" y="1671"/>
      <point x="1305" y="1632"/>
      <point x="1306" y="1525" type="curve" smooth="yes"/>
      <point x="1305" y="1366"/>
      <point x="1175" y="1316"/>
      <point x="964" y="1316" type="curve" smooth="yes"/>
    </contour>
  </outline>
</glyph>
<glyph name="uni0223" format="2">
  <advance width="1886"/>
  <unicode hex="0223"/>
  <outline>
    <contour>
      <point x="930" y="1249" type="line"/>
      <point x="480" y="1249"/>
      <point x="154" y="1062"/>
      <point x="154" y="630" type="curve" smooth="yes"/>
      <point x="154" y="200"/>
      <point x="480" y="-28"/>
      <point x="930" y="-28" type="curve" smooth="yes"/>
      <point x="959" y="-28" type="line" smooth="yes"/>
      <point x="1406" y="-28"/>
      <point x="1732" y="200"/>
      <point x="1732" y="631" type="curve" smooth="yes"/>
      <point x="1732" y="1062"/>
      <point x="1404" y="1249"/>
      <point x="959" y="1249" type="curve" smooth="yes"/>
    </contour>
    <contour>
      <point x="959" y="950" type="line"/>
      <point x="1183" y="950"/>
      <point x="1310" y="827"/>
      <point x="1310" y="631" type="curve" smooth="yes"/>
      <point x="1310" y="432"/>
      <point x="1183" y="310"/>
      <point x="959" y="310" type="curve" smooth="yes"/>
      <point x="930" y="310" type="line" smooth="yes"/>
      <point x="709" y="310"/>
      <point x="577" y="432"/>
      <point x="577" y="630" type="curve" smooth="yes"/>
      <point x="577" y="827"/>
      <point x="709" y="950"/>
      <point x="930" y="950" type="curve" smooth="yes"/>
    </contour>
    <contour>
      <point x="962" y="1285" type="curve" smooth="yes"/>
      <point x="925" y="1285" type="line" smooth="yes"/>
      <point x="708" y="1285"/>
      <point x="577" y="1357"/>
      <point x="577" y="1565" type="curve" smooth="yes"/>
      <point x="577" y="1712"/>
      <point x="647" y="1784"/>
      <point x="750" y="1818" type="curve"/>
      <point x="750" y="2140" type="line"/>
      <point x="399" y="2138"/>
      <point x="154" y="1942"/>
      <point x="154" y="1572" type="curve" smooth="yes"/>
      <point x="154" y="1143"/>
      <point x="488" y="990"/>
      <point x="925" y="990" type="curve" smooth="yes"/>
      <point x="962" y="990" type="line" smooth="yes"/>
      <point x="1401" y="990"/>
      <point x="1732" y="1143"/>
      <point x="1732" y="1572" type="curve" smooth="yes"/>
      <point x="1732" y="1947"/>
      <point x="1485" y="2138"/>
      <point x="1137" y="2140" type="curve"/>
      <point x="1137" y="1818" type="line"/>
      <point x="1239" y="1784"/>
      <point x="1314" y="1712"/>
      <point x="1314" y="1565" type="curve" smooth="yes"/>
      <point x="1314" y="1359"/>
      <point x="1182" y="1285"/>
    </contour>
  </outline>
</glyph>
<glyph name="uni0224" format="2">
  <advance width="1878"/>
  <unicode hex="0224"/>
  <note>
!post:RemoveOverlap
</note>
  <outline>
    <contour>
      <point x="1078" y="357" type="line"/>
      <point x="1078" y="0" type="line"/>
      <point x="1193" y="0" type="line" smooth="yes"/>
      <point x="1362" y="0"/>
      <point x="1399" y="-117"/>
      <point x="1398" y="-247" type="curve"/>
      <point x="1398" y="-352" type="line"/>
      <point x="1754" y="-352" type="line"/>
      <point x="1754" y="-170" type="line"/>
      <point x="1755" y="157"/>
      <point x="1553" y="357"/>
      <point x="1193" y="357" type="curve" smooth="yes"/>
    </contour>
    <contour>
      <point x="1078" y="357" type="line"/>
      <point x="690" y="357" type="line"/>
      <point x="1722" y="1791" type="line"/>
      <point x="1722" y="2048" type="line"/>
      <point x="154" y="2048" type="line"/>
      <point x="154" y="1691" type="line"/>
      <point x="1188" y="1691" type="line"/>
      <point x="156" y="257" type="line"/>
      <point x="156" y="0" type="line"/>
      <point x="1078" y="0" type="line"/>
    </contour>
  </outline>
</glyph>
<glyph name="zhook" format="2">
  <advance width="1599"/>
  <unicode hex="0225"/>
  <outline>
    <contour>
      <point x="1151" y="-373" type="line"/>
      <point x="1505" y="-373" type="line"/>
      <point x="1505" y="-191" type="line"/>
      <point x="1505" y="135"/>
      <point x="1304" y="338"/>
      <point x="943" y="338" type="curve" smooth="yes"/>
      <point x="693" y="338" type="line"/>
      <point x="1426" y="1288" type="line"/>
      <point x="1426" y="1536" type="line"/>
      <point x="184" y="1536" type="line"/>
      <point x="184" y="1198" type="line"/>
      <point x="898" y="1198" type="line"/>
      <point x="164" y="250" type="line"/>
      <point x="164" y="0" type="line"/>
      <point x="943" y="0" type="line" smooth="yes"/>
      <point x="1120" y="0"/>
      <point x="1151" y="-145"/>
      <point x="1151" y="-270" type="curve" smooth="yes"/>
    </contour>
  </outline>
</glyph>
